# MagicaVoxel @ ephtracy

# material
mtllib Tree2.mtl
usemtl palette

# normals
vn -1 0 0
vn 1 0 0
vn 0 0 1
vn 0 0 -1
vn 0 -1 0
vn 0 1 0

# texcoords
vt 0.373047 0.5
vt 0.853516 0.5
vt 0.900391 0.5

# verts
v -4 7 3
v -4 7 -3
v -4 8 -1
v -4 8 -2
v -4 9 -1
v -4 9 -2
v -4 12 2
v -4 12 1
v -4 13 2
v -4 13 1
v -4 15 3
v -4 15 -3
v -3 0 -2
v -3 0 -3
v -3 1 -2
v -3 1 -3
v -3 7 4
v -3 7 3
v -3 7 -3
v -3 7 -4
v -3 15 4
v -3 15 3
v -3 15 -3
v -3 15 -4
v -1 0 1
v -1 0 -1
v -1 7 1
v -1 7 -1
v 0 0 3
v 0 0 2
v 0 1 3
v 0 1 2
v -2 0 -2
v -2 0 -3
v -2 1 -2
v -2 1 -3
v 1 0 3
v 1 0 2
v 1 0 1
v 1 0 -1
v 1 1 3
v 1 1 2
v 1 7 1
v 1 7 -1
v 3 7 4
v 3 7 3
v 3 7 -3
v 3 7 -4
v 3 15 4
v 3 15 3
v 3 15 -3
v 3 15 -4
v 4 7 3
v 4 7 -3
v 4 10 2
v 4 10 1
v 4 11 2
v 4 11 1
v 4 13 -1
v 4 13 -2
v 4 14 -1
v 4 14 -2
v 4 15 3
v 4 15 -3
v -3 7 4
v -3 15 4
v -2 13 4
v -2 14 4
v -1 13 4
v -1 14 4
v 1 9 4
v 1 10 4
v 2 9 4
v 2 10 4
v 3 7 4
v 3 15 4
v -4 7 3
v -4 15 3
v -3 7 3
v -3 15 3
v 0 0 3
v 0 1 3
v 1 0 3
v 1 1 3
v 3 7 3
v 3 15 3
v 4 7 3
v 4 15 3
v -1 0 1
v -1 7 1
v 1 0 1
v 1 7 1
v -3 0 -2
v -3 1 -2
v -2 0 -2
v -2 1 -2
v 0 0 2
v 0 1 2
v 1 0 2
v 1 1 2
v -1 0 -1
v -1 7 -1
v 1 0 -1
v 1 7 -1
v -4 7 -3
v -4 15 -3
v -3 0 -3
v -3 1 -3
v -3 7 -3
v -3 15 -3
v -2 0 -3
v -2 1 -3
v 3 7 -3
v 3 15 -3
v 4 7 -3
v 4 15 -3
v -3 7 -4
v -3 15 -4
v -2 13 -4
v -2 14 -4
v -1 13 -4
v -1 14 -4
v 0 9 -4
v 0 10 -4
v 1 9 -4
v 1 10 -4
v 3 7 -4
v 3 15 -4
v 0 0 3
v 1 0 3
v 0 0 2
v 1 0 2
v -1 0 1
v 1 0 1
v -1 0 -1
v 1 0 -1
v -3 0 -2
v -2 0 -2
v -3 0 -3
v -2 0 -3
v -3 7 4
v 3 7 4
v -4 7 3
v -3 7 3
v 3 7 3
v 4 7 3
v -1 7 1
v 1 7 1
v -1 7 -1
v 1 7 -1
v -4 7 -3
v -3 7 -3
v 3 7 -3
v 4 7 -3
v -3 7 -4
v 3 7 -4
v 0 1 3
v 1 1 3
v 0 1 2
v 1 1 2
v -3 1 -2
v -2 1 -2
v -3 1 -3
v -2 1 -3
v -3 15 4
v 3 15 4
v -4 15 3
v -3 15 3
v 3 15 3
v 4 15 3
v -4 15 -3
v -3 15 -3
v 3 15 -3
v 4 15 -3
v -3 15 -4
v 3 15 -4

# faces
f 3/3/1 2/3/1 1/3/1
f 4/3/1 2/3/1 3/3/1
f 5/3/1 3/3/1 1/3/1
f 5/2/1 4/2/1 3/2/1
f 6/3/1 2/3/1 4/3/1
f 6/2/1 4/2/1 5/2/1
f 7/3/1 5/3/1 1/3/1
f 7/3/1 6/3/1 5/3/1
f 8/3/1 6/3/1 7/3/1
f 9/3/1 7/3/1 1/3/1
f 9/2/1 8/2/1 7/2/1
f 10/3/1 6/3/1 8/3/1
f 10/2/1 8/2/1 9/2/1
f 11/3/1 9/3/1 1/3/1
f 11/3/1 10/3/1 9/3/1
f 12/3/1 2/3/1 6/3/1
f 12/3/1 10/3/1 11/3/1
f 12/3/1 6/3/1 10/3/1
f 15/2/1 14/2/1 13/2/1
f 16/2/1 14/2/1 15/2/1
f 21/3/1 18/3/1 17/3/1
f 22/3/1 18/3/1 21/3/1
f 23/3/1 20/3/1 19/3/1
f 24/3/1 20/3/1 23/3/1
f 27/1/1 26/1/1 25/1/1
f 28/1/1 26/1/1 27/1/1
f 31/2/1 30/2/1 29/2/1
f 32/2/1 30/2/1 31/2/1
f 33/2/2 34/2/2 35/2/2
f 35/2/2 34/2/2 36/2/2
f 37/2/2 38/2/2 41/2/2
f 41/2/2 38/2/2 42/2/2
f 39/1/2 40/1/2 43/1/2
f 43/1/2 40/1/2 44/1/2
f 45/3/2 46/3/2 49/3/2
f 49/3/2 46/3/2 50/3/2
f 47/3/2 48/3/2 51/3/2
f 51/3/2 48/3/2 52/3/2
f 53/3/2 54/3/2 55/3/2
f 55/3/2 54/3/2 56/3/2
f 53/3/2 55/3/2 57/3/2
f 55/2/2 56/2/2 57/2/2
f 56/3/2 54/3/2 58/3/2
f 57/2/2 56/2/2 58/2/2
f 57/3/2 58/3/2 59/3/2
f 58/3/2 54/3/2 59/3/2
f 59/3/2 54/3/2 60/3/2
f 57/3/2 59/3/2 61/3/2
f 59/2/2 60/2/2 61/2/2
f 60/3/2 54/3/2 62/3/2
f 61/2/2 60/2/2 62/2/2
f 53/3/2 57/3/2 63/3/2
f 57/3/2 61/3/2 63/3/2
f 61/3/2 62/3/2 63/3/2
f 62/3/2 54/3/2 64/3/2
f 63/3/2 62/3/2 64/3/2
f 67/3/3 66/3/3 65/3/3
f 68/3/3 66/3/3 67/3/3
f 69/3/3 67/3/3 65/3/3
f 69/2/3 68/2/3 67/2/3
f 70/3/3 66/3/3 68/3/3
f 70/2/3 68/2/3 69/2/3
f 71/3/3 69/3/3 65/3/3
f 71/3/3 70/3/3 69/3/3
f 72/3/3 70/3/3 71/3/3
f 73/3/3 71/3/3 65/3/3
f 73/2/3 72/2/3 71/2/3
f 74/3/3 70/3/3 72/3/3
f 74/2/3 72/2/3 73/2/3
f 75/3/3 73/3/3 65/3/3
f 75/3/3 74/3/3 73/3/3
f 76/3/3 66/3/3 70/3/3
f 76/3/3 74/3/3 75/3/3
f 76/3/3 70/3/3 74/3/3
f 79/3/3 78/3/3 77/3/3
f 80/3/3 78/3/3 79/3/3
f 83/2/3 82/2/3 81/2/3
f 84/2/3 82/2/3 83/2/3
f 87/3/3 86/3/3 85/3/3
f 88/3/3 86/3/3 87/3/3
f 91/1/3 90/1/3 89/1/3
f 92/1/3 90/1/3 91/1/3
f 95/2/3 94/2/3 93/2/3
f 96/2/3 94/2/3 95/2/3
f 97/2/4 98/2/4 99/2/4
f 99/2/4 98/2/4 100/2/4
f 101/1/4 102/1/4 103/1/4
f 103/1/4 102/1/4 104/1/4
f 105/3/4 106/3/4 109/3/4
f 109/3/4 106/3/4 110/3/4
f 107/2/4 108/2/4 111/2/4
f 111/2/4 108/2/4 112/2/4
f 113/3/4 114/3/4 115/3/4
f 115/3/4 114/3/4 116/3/4
f 117/3/4 118/3/4 119/3/4
f 119/3/4 118/3/4 120/3/4
f 117/3/4 119/3/4 121/3/4
f 119/2/4 120/2/4 121/2/4
f 120/3/4 118/3/4 122/3/4
f 121/2/4 120/2/4 122/2/4
f 117/3/4 121/3/4 123/3/4
f 121/3/4 122/3/4 123/3/4
f 123/3/4 122/3/4 124/3/4
f 117/3/4 123/3/4 125/3/4
f 123/2/4 124/2/4 125/2/4
f 124/3/4 122/3/4 126/3/4
f 125/2/4 124/2/4 126/2/4
f 117/3/4 125/3/4 127/3/4
f 125/3/4 126/3/4 127/3/4
f 122/3/4 118/3/4 128/3/4
f 127/3/4 126/3/4 128/3/4
f 126/3/4 122/3/4 128/3/4
f 131/2/5 130/2/5 129/2/5
f 132/2/5 130/2/5 131/2/5
f 135/1/5 134/1/5 133/1/5
f 136/1/5 134/1/5 135/1/5
f 139/2/5 138/2/5 137/2/5
f 140/2/5 138/2/5 139/2/5
f 144/3/5 142/3/5 141/3/5
f 145/3/5 142/3/5 144/3/5
f 147/3/5 144/3/5 143/3/5
f 147/3/5 146/3/5 145/3/5
f 147/3/5 145/3/5 144/3/5
f 148/3/5 146/3/5 147/3/5
f 149/3/5 147/3/5 143/3/5
f 150/3/5 146/3/5 148/3/5
f 151/3/5 149/3/5 143/3/5
f 151/3/5 150/3/5 149/3/5
f 152/3/5 150/3/5 151/3/5
f 153/3/5 146/3/5 150/3/5
f 153/3/5 150/3/5 152/3/5
f 154/3/5 146/3/5 153/3/5
f 155/3/5 153/3/5 152/3/5
f 156/3/5 153/3/5 155/3/5
f 157/2/6 158/2/6 159/2/6
f 159/2/6 158/2/6 160/2/6
f 161/2/6 162/2/6 163/2/6
f 163/2/6 162/2/6 164/2/6
f 165/3/6 166/3/6 168/3/6
f 168/3/6 166/3/6 169/3/6
f 167/3/6 168/3/6 171/3/6
f 169/3/6 170/3/6 171/3/6
f 168/3/6 169/3/6 171/3/6
f 171/3/6 170/3/6 172/3/6
f 172/3/6 170/3/6 173/3/6
f 173/3/6 170/3/6 174/3/6
f 172/3/6 173/3/6 175/3/6
f 175/3/6 173/3/6 176/3/6
