# MagicaVoxel @ ephtracy

# material
mtllib Iceman.mtl
usemtl palette

# normals
vn -1 0 0
vn 1 0 0
vn 0 0 1
vn 0 0 -1
vn 0 -1 0
vn 0 1 0

# texcoords
vt 0.00585938 0.5
vt 0.373047 0.5
vt 0.611328 0.5
vt 0.751953 0.5
vt 0.845703 0.5
vt 0.947266 0.5
vt 0.958984 0.5
vt 0.982422 0.5
vt 0.986328 0.5

# verts
v -5 3 6
v -5 3 2
v -5 3 1
v -5 3 -0
v -5 4 6
v -5 4 2
v -5 4 1
v -5 4 -0
v -5 8 2
v -5 8 1
v -5 10 -3
v -5 10 -4
v -5 11 -0
v -5 11 -3
v -5 12 4
v -5 12 -0
v -5 13 5
v -5 13 4
v -5 16 -2
v -5 16 -4
v -5 17 5
v -5 17 -2
v -4 0 1
v -4 0 -0
v -4 1 4
v -4 1 1
v -4 1 -0
v -4 1 -3
v -4 2 4
v -4 2 -3
v -4 3 4
v -4 3 2
v -4 3 1
v -4 3 -0
v -4 4 4
v -4 4 2
v -4 4 1
v -4 4 -0
v -4 8 2
v -4 8 1
v -4 9 4
v -4 9 -3
v -4 10 -3
v -4 11 -0
v -4 11 -3
v -4 12 4
v -4 12 -0
v 1 16 5
v 1 16 4
v 1 17 5
v 1 17 4
v 2 15 5
v 2 15 4
v 2 16 5
v 2 16 4
v 3 0 1
v 3 0 -0
v 3 1 1
v 3 1 -0
v 3 14 5
v 3 14 4
v 3 15 5
v 3 15 4
v 4 13 5
v 4 13 4
v 4 14 5
v 4 14 4
v -4 3 6
v -4 3 4
v -4 4 6
v -4 4 4
v -4 13 5
v -4 13 4
v -4 14 5
v -4 14 4
v -3 0 1
v -3 0 -0
v -3 1 1
v -3 1 -0
v -3 14 5
v -3 14 4
v -3 15 5
v -3 15 4
v -2 15 5
v -2 15 4
v -2 16 5
v -2 16 4
v -1 16 5
v -1 16 4
v -1 17 5
v -1 17 4
v 4 0 1
v 4 0 -0
v 4 1 4
v 4 1 1
v 4 1 -0
v 4 1 -3
v 4 2 4
v 4 2 -3
v 4 3 2
v 4 3 1
v 4 4 2
v 4 4 1
v 4 8 2
v 4 8 1
v 4 9 4
v 4 9 -3
v 4 10 -3
v 4 11 -0
v 4 11 -3
v 4 12 4
v 4 12 -0
v 5 3 2
v 5 3 1
v 5 4 2
v 5 4 1
v 5 8 2
v 5 8 1
v 5 10 -3
v 5 10 -4
v 5 11 -0
v 5 11 -3
v 5 12 4
v 5 12 -0
v 5 13 5
v 5 13 4
v 5 16 -2
v 5 16 -4
v 5 17 5
v 5 17 -2
v -5 3 6
v -5 4 6
v -4 3 6
v -4 4 6
v -5 13 5
v -5 17 5
v -4 13 5
v -4 14 5
v -3 14 5
v -3 15 5
v -2 15 5
v -2 16 5
v -1 16 5
v -1 17 5
v 1 16 5
v 1 17 5
v 2 15 5
v 2 16 5
v 3 14 5
v 3 15 5
v 4 13 5
v 4 14 5
v 5 13 5
v 5 17 5
v -5 12 4
v -5 13 4
v -4 1 4
v -4 2 4
v -4 3 4
v -4 4 4
v -4 9 4
v -4 12 4
v -4 13 4
v -4 14 4
v -3 12 4
v -3 13 4
v -3 14 4
v -3 15 4
v -2 2 4
v -2 8 4
v -2 9 4
v -2 12 4
v -2 13 4
v -2 14 4
v -2 15 4
v -2 16 4
v -1 4 4
v -1 8 4
v -1 9 4
v -1 13 4
v -1 14 4
v -1 15 4
v -1 16 4
v -1 17 4
v 0 4 4
v 0 8 4
v 0 14 4
v 0 15 4
v 1 8 4
v 1 9 4
v 1 16 4
v 1 17 4
v 2 2 4
v 2 8 4
v 2 9 4
v 2 15 4
v 2 16 4
v 3 14 4
v 3 15 4
v 4 1 4
v 4 2 4
v 4 9 4
v 4 12 4
v 4 13 4
v 4 14 4
v 5 12 4
v 5 13 4
v -5 4 2
v -5 8 2
v -4 4 2
v -4 8 2
v 4 3 2
v 4 4 2
v 4 8 2
v 5 3 2
v 5 4 2
v 5 8 2
v -4 0 1
v -4 1 1
v -3 0 1
v -3 1 1
v 3 0 1
v 3 1 1
v 4 0 1
v 4 1 1
v -5 11 -0
v -5 12 -0
v -4 11 -0
v -4 12 -0
v 4 11 -0
v 4 12 -0
v 5 11 -0
v 5 12 -0
v -5 10 -3
v -5 11 -3
v -4 10 -3
v -4 11 -3
v 4 10 -3
v 4 11 -3
v 5 10 -3
v 5 11 -3
v -5 4 1
v -5 8 1
v -4 4 1
v -4 8 1
v 4 3 1
v 4 4 1
v 4 8 1
v 5 3 1
v 5 4 1
v 5 8 1
v -5 3 -0
v -5 4 -0
v -4 0 -0
v -4 1 -0
v -4 3 -0
v -4 4 -0
v -3 0 -0
v -3 1 -0
v 3 0 -0
v 3 1 -0
v 4 0 -0
v 4 1 -0
v -5 16 -2
v -5 17 -2
v 5 16 -2
v 5 17 -2
v -4 1 -3
v -4 2 -3
v -4 9 -3
v -4 10 -3
v 4 1 -3
v 4 2 -3
v 4 9 -3
v 4 10 -3
v -5 10 -4
v -5 16 -4
v 5 10 -4
v 5 16 -4
v -4 0 1
v -3 0 1
v 3 0 1
v 4 0 1
v -4 0 -0
v -3 0 -0
v 3 0 -0
v 4 0 -0
v -4 1 4
v 4 1 4
v -4 1 1
v -3 1 1
v 3 1 1
v 4 1 1
v -4 1 -0
v -3 1 -0
v 3 1 -0
v 4 1 -0
v -4 1 -3
v 4 1 -3
v -5 3 6
v -4 3 6
v -4 3 4
v -5 3 2
v -4 3 2
v 4 3 2
v 5 3 2
v -5 3 1
v -4 3 1
v 4 3 1
v 5 3 1
v -5 3 -0
v -4 3 -0
v -5 10 -3
v -4 10 -3
v 4 10 -3
v 5 10 -3
v -5 10 -4
v 5 10 -4
v -5 11 -0
v -4 11 -0
v 4 11 -0
v 5 11 -0
v -5 11 -3
v -4 11 -3
v 4 11 -3
v 5 11 -3
v -5 12 4
v -4 12 4
v 4 12 4
v 5 12 4
v -5 12 -0
v -4 12 -0
v 4 12 -0
v 5 12 -0
v -5 13 5
v -4 13 5
v 4 13 5
v 5 13 5
v -5 13 4
v -4 13 4
v 4 13 4
v 5 13 4
v -4 14 5
v -3 14 5
v 3 14 5
v 4 14 5
v -4 14 4
v -3 14 4
v 3 14 4
v 4 14 4
v -3 15 5
v -2 15 5
v 2 15 5
v 3 15 5
v -3 15 4
v -2 15 4
v 2 15 4
v 3 15 4
v -2 16 5
v -1 16 5
v 1 16 5
v 2 16 5
v -2 16 4
v -1 16 4
v 1 16 4
v 2 16 4
v -5 4 6
v -4 4 6
v -4 4 4
v -5 4 2
v -4 4 2
v -5 4 1
v -4 4 1
v -5 4 -0
v -4 4 -0
v -5 8 2
v -4 8 2
v 4 8 2
v 5 8 2
v -5 8 1
v -4 8 1
v 4 8 1
v 5 8 1
v -5 16 -2
v 5 16 -2
v -5 16 -4
v 5 16 -4
v -5 17 5
v -1 17 5
v 1 17 5
v 5 17 5
v -1 17 4
v 1 17 4
v -5 17 -2
v 5 17 -2

# faces
f 5/8/1 2/8/1 1/8/1
f 6/1/1 3/1/1 2/1/1
f 6/8/1 2/8/1 5/8/1
f 7/8/1 4/8/1 3/8/1
f 7/1/1 3/1/1 6/1/1
f 8/8/1 4/8/1 7/8/1
f 9/7/1 7/7/1 6/7/1
f 10/7/1 7/7/1 9/7/1
f 14/2/1 12/2/1 11/2/1
f 16/2/1 14/2/1 13/2/1
f 18/2/1 16/2/1 15/2/1
f 19/2/1 14/2/1 16/2/1
f 19/2/1 18/2/1 17/2/1
f 19/2/1 16/2/1 18/2/1
f 20/2/1 12/2/1 14/2/1
f 20/2/1 14/2/1 19/2/1
f 21/2/1 19/2/1 17/2/1
f 22/2/1 19/2/1 21/2/1
f 26/9/1 24/9/1 23/9/1
f 27/9/1 24/9/1 26/9/1
f 29/8/1 26/8/1 25/8/1
f 29/8/1 28/8/1 27/8/1
f 29/8/1 27/8/1 26/8/1
f 30/8/1 28/8/1 29/8/1
f 31/7/1 30/7/1 29/7/1
f 32/7/1 30/7/1 31/7/1
f 33/7/1 30/7/1 32/7/1
f 34/7/1 30/7/1 33/7/1
f 38/7/1 30/7/1 34/7/1
f 39/7/1 36/7/1 35/7/1
f 40/7/1 38/7/1 37/7/1
f 41/7/1 39/7/1 35/7/1
f 41/7/1 40/7/1 39/7/1
f 42/7/1 38/7/1 40/7/1
f 42/7/1 40/7/1 41/7/1
f 42/7/1 30/7/1 38/7/1
f 43/1/1 42/1/1 41/1/1
f 44/1/1 43/1/1 41/1/1
f 45/1/1 43/1/1 44/1/1
f 46/1/1 44/1/1 41/1/1
f 47/1/1 44/1/1 46/1/1
f 50/2/1 49/2/1 48/2/1
f 51/2/1 49/2/1 50/2/1
f 54/2/1 53/2/1 52/2/1
f 55/2/1 53/2/1 54/2/1
f 58/9/1 57/9/1 56/9/1
f 59/9/1 57/9/1 58/9/1
f 62/2/1 61/2/1 60/2/1
f 63/2/1 61/2/1 62/2/1
f 66/2/1 65/2/1 64/2/1
f 67/2/1 65/2/1 66/2/1
f 68/8/2 69/8/2 70/8/2
f 70/8/2 69/8/2 71/8/2
f 72/2/2 73/2/2 74/2/2
f 74/2/2 73/2/2 75/2/2
f 76/9/2 77/9/2 78/9/2
f 78/9/2 77/9/2 79/9/2
f 80/2/2 81/2/2 82/2/2
f 82/2/2 81/2/2 83/2/2
f 84/2/2 85/2/2 86/2/2
f 86/2/2 85/2/2 87/2/2
f 88/2/2 89/2/2 90/2/2
f 90/2/2 89/2/2 91/2/2
f 92/9/2 93/9/2 95/9/2
f 95/9/2 93/9/2 96/9/2
f 94/8/2 95/8/2 98/8/2
f 96/8/2 97/8/2 98/8/2
f 95/8/2 96/8/2 98/8/2
f 98/8/2 97/8/2 99/8/2
f 98/7/2 99/7/2 100/7/2
f 100/7/2 99/7/2 101/7/2
f 98/7/2 100/7/2 102/7/2
f 101/7/2 99/7/2 103/7/2
f 98/7/2 102/7/2 104/7/2
f 103/7/2 99/7/2 105/7/2
f 98/7/2 104/7/2 106/7/2
f 104/7/2 105/7/2 106/7/2
f 105/7/2 99/7/2 107/7/2
f 106/7/2 105/7/2 107/7/2
f 106/1/2 107/1/2 108/1/2
f 106/1/2 108/1/2 109/1/2
f 109/1/2 108/1/2 110/1/2
f 106/1/2 109/1/2 111/1/2
f 111/1/2 109/1/2 112/1/2
f 113/1/2 114/1/2 115/1/2
f 115/1/2 114/1/2 116/1/2
f 115/7/2 116/7/2 117/7/2
f 117/7/2 116/7/2 118/7/2
f 119/2/2 120/2/2 122/2/2
f 121/2/2 122/2/2 124/2/2
f 123/2/2 124/2/2 126/2/2
f 124/2/2 122/2/2 127/2/2
f 125/2/2 126/2/2 127/2/2
f 126/2/2 124/2/2 127/2/2
f 122/2/2 120/2/2 128/2/2
f 127/2/2 122/2/2 128/2/2
f 125/2/2 127/2/2 129/2/2
f 129/2/2 127/2/2 130/2/2
f 133/8/3 132/8/3 131/8/3
f 134/8/3 132/8/3 133/8/3
f 137/2/3 136/2/3 135/2/3
f 138/2/3 136/2/3 137/2/3
f 139/2/3 136/2/3 138/2/3
f 140/2/3 136/2/3 139/2/3
f 141/2/3 136/2/3 140/2/3
f 142/2/3 136/2/3 141/2/3
f 143/2/3 136/2/3 142/2/3
f 144/2/3 136/2/3 143/2/3
f 148/2/3 146/2/3 145/2/3
f 150/2/3 148/2/3 147/2/3
f 152/2/3 150/2/3 149/2/3
f 153/2/3 152/2/3 151/2/3
f 154/2/3 146/2/3 148/2/3
f 154/2/3 152/2/3 153/2/3
f 154/2/3 148/2/3 150/2/3
f 154/2/3 150/2/3 152/2/3
f 162/2/3 156/2/3 155/2/3
f 163/2/3 156/2/3 162/2/3
f 165/1/3 162/1/3 161/1/3
f 165/1/3 164/1/3 163/1/3
f 165/1/3 163/1/3 162/1/3
f 166/1/3 164/1/3 165/1/3
f 167/1/3 164/1/3 166/1/3
f 169/7/3 161/7/3 160/7/3
f 169/8/3 158/8/3 157/8/3
f 169/7/3 159/7/3 158/7/3
f 169/7/3 160/7/3 159/7/3
f 170/7/3 161/7/3 169/7/3
f 171/1/3 165/1/3 161/1/3
f 171/7/3 161/7/3 170/7/3
f 172/2/3 166/2/3 165/2/3
f 172/1/3 165/1/3 171/1/3
f 173/1/3 168/1/3 167/1/3
f 173/2/3 166/2/3 172/2/3
f 173/1/3 167/1/3 166/1/3
f 174/1/3 168/1/3 173/1/3
f 175/1/3 168/1/3 174/1/3
f 177/3/3 170/3/3 169/3/3
f 178/4/3 171/4/3 170/4/3
f 178/3/3 170/3/3 177/3/3
f 179/1/3 172/1/3 171/1/3
f 179/4/3 171/4/3 178/4/3
f 179/1/3 173/1/3 172/1/3
f 180/2/3 174/2/3 173/2/3
f 180/1/3 173/1/3 179/1/3
f 181/1/3 175/1/3 174/1/3
f 181/2/3 174/2/3 180/2/3
f 182/2/3 176/2/3 175/2/3
f 182/1/3 175/1/3 181/1/3
f 183/2/3 176/2/3 182/2/3
f 185/6/3 178/6/3 177/6/3
f 185/3/3 177/3/3 169/3/3
f 185/6/3 179/6/3 178/6/3
f 186/6/3 179/6/3 185/6/3
f 187/2/3 184/2/3 183/2/3
f 187/2/3 183/2/3 182/2/3
f 187/1/3 181/1/3 180/1/3
f 187/1/3 180/1/3 179/1/3
f 187/2/3 182/2/3 181/2/3
f 188/2/3 184/2/3 187/2/3
f 189/6/3 179/6/3 186/6/3
f 189/3/3 186/3/3 185/3/3
f 190/1/3 188/1/3 187/1/3
f 190/6/3 179/6/3 189/6/3
f 190/1/3 187/1/3 179/1/3
f 191/2/3 184/2/3 188/2/3
f 192/2/3 184/2/3 191/2/3
f 193/8/3 169/8/3 157/8/3
f 193/3/3 189/3/3 185/3/3
f 193/3/3 185/3/3 169/3/3
f 194/4/3 190/4/3 189/4/3
f 194/3/3 189/3/3 193/3/3
f 195/1/3 188/1/3 190/1/3
f 195/4/3 190/4/3 194/4/3
f 196/2/3 191/2/3 188/2/3
f 196/1/3 188/1/3 195/1/3
f 197/2/3 191/2/3 196/2/3
f 198/1/3 196/1/3 195/1/3
f 199/1/3 196/1/3 198/1/3
f 200/8/3 193/8/3 157/8/3
f 201/7/3 194/7/3 193/7/3
f 201/8/3 193/8/3 200/8/3
f 201/7/3 195/7/3 194/7/3
f 202/1/3 198/1/3 195/1/3
f 202/7/3 195/7/3 201/7/3
f 203/1/3 198/1/3 202/1/3
f 204/1/3 198/1/3 203/1/3
f 205/1/3 198/1/3 204/1/3
f 206/2/3 204/2/3 203/2/3
f 207/2/3 204/2/3 206/2/3
f 210/7/3 209/7/3 208/7/3
f 211/7/3 209/7/3 210/7/3
f 215/1/3 213/1/3 212/1/3
f 216/7/3 214/7/3 213/7/3
f 216/1/3 213/1/3 215/1/3
f 217/7/3 214/7/3 216/7/3
f 220/9/3 219/9/3 218/9/3
f 221/9/3 219/9/3 220/9/3
f 224/9/3 223/9/3 222/9/3
f 225/9/3 223/9/3 224/9/3
f 228/2/3 227/2/3 226/2/3
f 229/2/3 227/2/3 228/2/3
f 232/2/3 231/2/3 230/2/3
f 233/2/3 231/2/3 232/2/3
f 236/2/3 235/2/3 234/2/3
f 237/2/3 235/2/3 236/2/3
f 240/2/3 239/2/3 238/2/3
f 241/2/3 239/2/3 240/2/3
f 242/7/4 243/7/4 244/7/4
f 244/7/4 243/7/4 245/7/4
f 246/1/4 247/1/4 249/1/4
f 247/7/4 248/7/4 250/7/4
f 249/1/4 247/1/4 250/1/4
f 250/7/4 248/7/4 251/7/4
f 252/8/4 253/8/4 256/8/4
f 256/8/4 253/8/4 257/8/4
f 254/9/4 255/9/4 258/9/4
f 258/9/4 255/9/4 259/9/4
f 260/9/4 261/9/4 262/9/4
f 262/9/4 261/9/4 263/9/4
f 264/2/4 265/2/4 266/2/4
f 266/2/4 265/2/4 267/2/4
f 268/8/4 269/8/4 272/8/4
f 269/7/4 270/7/4 273/7/4
f 272/8/4 269/8/4 273/8/4
f 270/1/4 271/1/4 274/1/4
f 273/7/4 270/7/4 274/7/4
f 274/1/4 271/1/4 275/1/4
f 276/2/4 277/2/4 278/2/4
f 278/2/4 277/2/4 279/2/4
f 284/9/5 281/9/5 280/9/5
f 285/9/5 281/9/5 284/9/5
f 286/9/5 283/9/5 282/9/5
f 287/9/5 283/9/5 286/9/5
f 290/8/5 289/8/5 288/8/5
f 291/8/5 289/8/5 290/8/5
f 292/8/5 289/8/5 291/8/5
f 293/8/5 289/8/5 292/8/5
f 295/8/5 292/8/5 291/8/5
f 296/8/5 292/8/5 295/8/5
f 298/8/5 295/8/5 294/8/5
f 298/8/5 297/8/5 296/8/5
f 298/8/5 296/8/5 295/8/5
f 299/8/5 297/8/5 298/8/5
f 302/8/5 301/8/5 300/8/5
f 303/8/5 302/8/5 300/8/5
f 304/8/5 302/8/5 303/8/5
f 307/1/5 304/1/5 303/1/5
f 308/1/5 304/1/5 307/1/5
f 309/1/5 306/1/5 305/1/5
f 310/1/5 306/1/5 309/1/5
f 311/8/5 308/8/5 307/8/5
f 312/8/5 308/8/5 311/8/5
f 317/2/5 314/2/5 313/2/5
f 317/2/5 316/2/5 315/2/5
f 317/2/5 315/2/5 314/2/5
f 318/2/5 316/2/5 317/2/5
f 323/2/5 320/2/5 319/2/5
f 324/2/5 320/2/5 323/2/5
f 325/2/5 322/2/5 321/2/5
f 326/2/5 322/2/5 325/2/5
f 331/2/5 328/2/5 327/2/5
f 332/2/5 328/2/5 331/2/5
f 333/2/5 330/2/5 329/2/5
f 334/2/5 330/2/5 333/2/5
f 339/2/5 336/2/5 335/2/5
f 340/2/5 336/2/5 339/2/5
f 341/2/5 338/2/5 337/2/5
f 342/2/5 338/2/5 341/2/5
f 347/2/5 344/2/5 343/2/5
f 348/2/5 344/2/5 347/2/5
f 349/2/5 346/2/5 345/2/5
f 350/2/5 346/2/5 349/2/5
f 355/2/5 352/2/5 351/2/5
f 356/2/5 352/2/5 355/2/5
f 357/2/5 354/2/5 353/2/5
f 358/2/5 354/2/5 357/2/5
f 363/2/5 360/2/5 359/2/5
f 364/2/5 360/2/5 363/2/5
f 365/2/5 362/2/5 361/2/5
f 366/2/5 362/2/5 365/2/5
f 367/8/6 368/8/6 369/8/6
f 367/8/6 369/8/6 370/8/6
f 370/8/6 369/8/6 371/8/6
f 372/8/6 373/8/6 374/8/6
f 374/8/6 373/8/6 375/8/6
f 376/7/6 377/7/6 380/7/6
f 380/7/6 377/7/6 381/7/6
f 378/7/6 379/7/6 382/7/6
f 382/7/6 379/7/6 383/7/6
f 384/2/6 385/2/6 386/2/6
f 386/2/6 385/2/6 387/2/6
f 388/2/6 389/2/6 392/2/6
f 390/2/6 391/2/6 393/2/6
f 388/2/6 392/2/6 394/2/6
f 392/2/6 393/2/6 394/2/6
f 393/2/6 391/2/6 395/2/6
f 394/2/6 393/2/6 395/2/6
