# MagicaVoxel @ ephtracy

# material
mtllib WeatherGirl.mtl
usemtl palette

# normals
vn -1 0 0
vn 1 0 0
vn 0 0 1
vn 0 0 -1
vn 0 -1 0
vn 0 1 0

# texcoords
vt 0.00585938 0.5
vt 0.0136719 0.5
vt 0.0214844 0.5
vt 0.0410156 0.5
vt 0.0449219 0.5
vt 0.845703 0.5
vt 0.958984 0.5
vt 0.982422 0.5
vt 0.986328 0.5

# verts
v -6 4 7
v -6 4 2
v -6 4 1
v -6 4 -0
v -6 5 7
v -6 5 2
v -6 5 1
v -6 5 -0
v -6 19 -2
v -6 19 -4
v -6 21 -2
v -6 21 -4
v -5 3 -1
v -5 3 -4
v -5 5 2
v -5 5 1
v -5 8 2
v -5 8 1
v -5 9 2
v -5 9 1
v -5 10 2
v -5 10 1
v -5 10 -0
v -5 11 2
v -5 11 1
v -5 11 -0
v -5 12 2
v -5 12 1
v -5 12 -0
v -5 13 3
v -5 13 1
v -5 13 -0
v -5 13 -1
v -5 14 4
v -5 14 3
v -5 16 -1
v -5 16 -4
v -5 17 4
v -5 17 -1
v -4 0 1
v -4 0 -0
v -4 1 4
v -4 1 1
v -4 1 -0
v -4 1 -3
v -4 2 4
v -4 2 -3
v -4 3 -1
v -4 3 -3
v -4 4 2
v -4 4 1
v -4 8 2
v -4 8 1
v -4 9 4
v -4 9 2
v -4 9 1
v -4 9 -1
v -4 10 2
v -4 10 1
v -4 10 -0
v -4 11 2
v -4 11 1
v -4 11 -0
v -4 12 2
v -4 12 1
v -4 12 -0
v -4 13 3
v -4 13 1
v -4 13 -0
v -4 13 -1
v -4 14 5
v -4 14 4
v -4 14 3
v -4 16 5
v -4 16 4
v -4 19 -1
v -4 19 -2
v -4 21 -2
v -4 21 -4
v -4 22 -1
v -4 22 -4
v -2 20 3
v -2 20 -0
v -2 23 3
v -2 23 -0
v 3 0 1
v 3 0 -0
v 3 1 1
v 3 1 -0
v -5 4 7
v -5 4 2
v -5 4 1
v -5 4 -0
v -5 5 7
v -5 5 2
v -5 5 1
v -5 5 -0
v -3 0 1
v -3 0 -0
v -3 1 1
v -3 1 -0
v -1 19 -1
v -1 19 -4
v -1 22 -1
v -1 22 -4
v 2 20 3
v 2 20 2
v 2 22 2
v 2 22 -0
v 2 23 3
v 2 23 -0
v 4 0 1
v 4 0 -0
v 4 1 4
v 4 1 1
v 4 1 -0
v 4 1 -3
v 4 2 4
v 4 2 -3
v 4 3 -1
v 4 3 -3
v 4 4 2
v 4 4 1
v 4 8 2
v 4 8 1
v 4 9 4
v 4 9 2
v 4 9 1
v 4 9 -1
v 4 10 2
v 4 10 1
v 4 10 -0
v 4 11 2
v 4 11 1
v 4 11 -0
v 4 12 2
v 4 12 1
v 4 12 -0
v 4 13 3
v 4 13 1
v 4 13 -0
v 4 13 -1
v 4 14 5
v 4 14 4
v 4 14 3
v 4 16 5
v 4 16 4
v 4 20 2
v 4 20 -0
v 4 22 2
v 4 22 -0
v 5 3 -1
v 5 3 -4
v 5 5 2
v 5 5 1
v 5 8 2
v 5 8 1
v 5 9 2
v 5 9 1
v 5 10 2
v 5 10 1
v 5 10 -0
v 5 11 2
v 5 11 1
v 5 11 -0
v 5 12 2
v 5 12 1
v 5 12 -0
v 5 13 3
v 5 13 1
v 5 13 -0
v 5 13 -1
v 5 14 4
v 5 14 3
v 5 16 -1
v 5 16 -4
v 5 17 4
v 5 17 -1
v 6 4 2
v 6 4 1
v 6 5 2
v 6 5 1
v -6 4 7
v -6 5 7
v -5 4 7
v -5 5 7
v -4 14 5
v -4 16 5
v 4 14 5
v 4 16 5
v -5 14 4
v -5 17 4
v -4 1 4
v -4 2 4
v -4 9 4
v -4 14 4
v -4 16 4
v -2 8 4
v -2 9 4
v -1 7 4
v -1 8 4
v 1 7 4
v 1 8 4
v 2 8 4
v 2 9 4
v 4 1 4
v 4 2 4
v 4 9 4
v 4 14 4
v 4 16 4
v 5 14 4
v 5 17 4
v -5 13 3
v -5 14 3
v -4 13 3
v -4 14 3
v -2 20 3
v -2 23 3
v 2 20 3
v 2 23 3
v 4 13 3
v 4 14 3
v 5 13 3
v 5 14 3
v -5 4 2
v -5 5 2
v -5 8 2
v -5 9 2
v -5 10 2
v -5 11 2
v -5 12 2
v -4 4 2
v -4 8 2
v -4 9 2
v -4 10 2
v -4 11 2
v -4 12 2
v 2 20 2
v 2 22 2
v 4 4 2
v 4 8 2
v 4 9 2
v 4 10 2
v 4 11 2
v 4 12 2
v 4 20 2
v 4 22 2
v 5 4 2
v 5 5 2
v 5 8 2
v 5 9 2
v 5 10 2
v 5 11 2
v 5 12 2
v 6 4 2
v 6 5 2
v -5 10 1
v -5 11 1
v -5 12 1
v -5 13 1
v -4 0 1
v -4 1 1
v -4 10 1
v -4 11 1
v -4 12 1
v -4 13 1
v -3 0 1
v -3 1 1
v 3 0 1
v 3 1 1
v 4 0 1
v 4 1 1
v 4 10 1
v 4 11 1
v 4 12 1
v 4 13 1
v 5 10 1
v 5 11 1
v 5 12 1
v 5 13 1
v -5 3 -1
v -5 13 -1
v -4 3 -1
v -4 9 -1
v -4 13 -1
v -4 19 -1
v -4 22 -1
v -1 19 -1
v -1 22 -1
v 4 3 -1
v 4 9 -1
v 4 13 -1
v 5 3 -1
v 5 13 -1
v -6 19 -2
v -6 21 -2
v -4 19 -2
v -4 21 -2
v -5 4 1
v -5 5 1
v -5 8 1
v -5 9 1
v -5 10 1
v -5 11 1
v -5 12 1
v -4 4 1
v -4 8 1
v -4 9 1
v -4 10 1
v -4 11 1
v -4 12 1
v 4 4 1
v 4 8 1
v 4 9 1
v 4 10 1
v 4 11 1
v 4 12 1
v 5 4 1
v 5 5 1
v 5 8 1
v 5 9 1
v 5 10 1
v 5 11 1
v 5 12 1
v 6 4 1
v 6 5 1
v -6 4 -0
v -6 5 -0
v -5 4 -0
v -5 5 -0
v -5 10 -0
v -5 11 -0
v -5 12 -0
v -5 13 -0
v -4 0 -0
v -4 1 -0
v -4 10 -0
v -4 11 -0
v -4 12 -0
v -4 13 -0
v -3 0 -0
v -3 1 -0
v -2 20 -0
v -2 23 -0
v 2 22 -0
v 2 23 -0
v 3 0 -0
v 3 1 -0
v 4 0 -0
v 4 1 -0
v 4 10 -0
v 4 11 -0
v 4 12 -0
v 4 13 -0
v 4 20 -0
v 4 22 -0
v 5 10 -0
v 5 11 -0
v 5 12 -0
v 5 13 -0
v -5 16 -1
v -5 17 -1
v 5 16 -1
v 5 17 -1
v -4 1 -3
v -4 2 -3
v -4 3 -3
v 4 1 -3
v 4 2 -3
v 4 3 -3
v -6 19 -4
v -6 21 -4
v -5 3 -4
v -5 16 -4
v -4 21 -4
v -4 22 -4
v -1 19 -4
v -1 22 -4
v 5 3 -4
v 5 16 -4
v -4 0 1
v -3 0 1
v 3 0 1
v 4 0 1
v -4 0 -0
v -3 0 -0
v 3 0 -0
v 4 0 -0
v -4 1 4
v 4 1 4
v -4 1 1
v -3 1 1
v 3 1 1
v 4 1 1
v -4 1 -0
v -3 1 -0
v 3 1 -0
v 4 1 -0
v -4 1 -3
v 4 1 -3
v -5 3 -1
v -4 3 -1
v 4 3 -1
v 5 3 -1
v -4 3 -3
v 4 3 -3
v -5 3 -4
v 5 3 -4
v -6 4 7
v -5 4 7
v -6 4 2
v -5 4 2
v -4 4 2
v 4 4 2
v 5 4 2
v 6 4 2
v -6 4 1
v -5 4 1
v -4 4 1
v 4 4 1
v 5 4 1
v 6 4 1
v -6 4 -0
v -5 4 -0
v -5 9 2
v -4 9 2
v 4 9 2
v 5 9 2
v -5 9 1
v -4 9 1
v 4 9 1
v 5 9 1
v -5 10 1
v -4 10 1
v 4 10 1
v 5 10 1
v -5 10 -0
v -4 10 -0
v 4 10 -0
v 5 10 -0
v -5 11 2
v -4 11 2
v 4 11 2
v 5 11 2
v -5 11 1
v -4 11 1
v 4 11 1
v 5 11 1
v -5 12 1
v -4 12 1
v 4 12 1
v 5 12 1
v -5 12 -0
v -4 12 -0
v 4 12 -0
v 5 12 -0
v -5 13 3
v -4 13 3
v 4 13 3
v 5 13 3
v -5 13 1
v -4 13 1
v 4 13 1
v 5 13 1
v -5 13 -0
v -4 13 -0
v 4 13 -0
v 5 13 -0
v -5 13 -1
v -4 13 -1
v 4 13 -1
v 5 13 -1
v -4 14 5
v 4 14 5
v -5 14 4
v -4 14 4
v 4 14 4
v 5 14 4
v -5 14 3
v -4 14 3
v 4 14 3
v 5 14 3
v -4 19 -1
v -1 19 -1
v -6 19 -2
v -4 19 -2
v -6 19 -4
v -1 19 -4
v -2 20 3
v 2 20 3
v 2 20 2
v 4 20 2
v -2 20 -0
v 4 20 -0
v -6 5 7
v -5 5 7
v -6 5 2
v -5 5 2
v 5 5 2
v 6 5 2
v -6 5 1
v -5 5 1
v 5 5 1
v 6 5 1
v -6 5 -0
v -5 5 -0
v -5 8 2
v -4 8 2
v 4 8 2
v 5 8 2
v -5 8 1
v -4 8 1
v 4 8 1
v 5 8 1
v -5 10 2
v -4 10 2
v 4 10 2
v 5 10 2
v -5 10 1
v -4 10 1
v 4 10 1
v 5 10 1
v -5 11 1
v -4 11 1
v 4 11 1
v 5 11 1
v -5 11 -0
v -4 11 -0
v 4 11 -0
v 5 11 -0
v -5 12 2
v -4 12 2
v 4 12 2
v 5 12 2
v -5 12 1
v -4 12 1
v 4 12 1
v 5 12 1
v -4 16 5
v 4 16 5
v -4 16 4
v 4 16 4
v -5 16 -1
v 5 16 -1
v -5 16 -4
v 5 16 -4
v -5 17 4
v 5 17 4
v -5 17 -1
v 5 17 -1
v -6 21 -2
v -4 21 -2
v -6 21 -4
v -4 21 -4
v 2 22 2
v 4 22 2
v 2 22 -0
v 4 22 -0
v -4 22 -1
v -1 22 -1
v -4 22 -4
v -1 22 -4
v -2 23 3
v 2 23 3
v -2 23 -0
v 2 23 -0

# faces
f 5/8/1 2/8/1 1/8/1
f 6/1/1 3/1/1 2/1/1
f 6/8/1 2/8/1 5/8/1
f 7/8/1 4/8/1 3/8/1
f 7/1/1 3/1/1 6/1/1
f 8/8/1 4/8/1 7/8/1
f 11/7/1 10/7/1 9/7/1
f 12/7/1 10/7/1 11/7/1
f 17/2/1 16/2/1 15/2/1
f 18/2/1 16/2/1 17/2/1
f 21/3/1 20/3/1 19/3/1
f 22/3/1 20/3/1 21/3/1
f 25/3/1 23/3/1 22/3/1
f 26/3/1 23/3/1 25/3/1
f 27/3/1 25/3/1 24/3/1
f 28/3/1 25/3/1 27/3/1
f 31/3/1 29/3/1 28/3/1
f 32/3/1 29/3/1 31/3/1
f 33/7/1 14/7/1 13/7/1
f 35/7/1 32/7/1 31/7/1
f 35/7/1 33/7/1 32/7/1
f 35/7/1 31/7/1 30/7/1
f 36/7/1 14/7/1 33/7/1
f 36/7/1 35/7/1 34/7/1
f 36/7/1 33/7/1 35/7/1
f 37/7/1 14/7/1 36/7/1
f 38/7/1 36/7/1 34/7/1
f 39/7/1 36/7/1 38/7/1
f 43/9/1 41/9/1 40/9/1
f 44/9/1 41/9/1 43/9/1
f 46/8/1 43/8/1 42/8/1
f 46/8/1 45/8/1 44/8/1
f 46/8/1 44/8/1 43/8/1
f 47/8/1 45/8/1 46/8/1
f 48/2/1 47/2/1 46/2/1
f 49/2/1 47/2/1 48/2/1
f 50/2/1 48/2/1 46/2/1
f 51/2/1 48/2/1 50/2/1
f 52/2/1 50/2/1 46/2/1
f 53/2/1 48/2/1 51/2/1
f 54/2/1 52/2/1 46/2/1
f 54/2/1 53/2/1 52/2/1
f 55/2/1 53/2/1 54/2/1
f 56/2/1 48/2/1 53/2/1
f 56/2/1 53/2/1 55/2/1
f 57/2/1 48/2/1 56/2/1
f 58/1/1 55/1/1 54/1/1
f 59/1/1 57/1/1 56/1/1
f 60/1/1 57/1/1 59/1/1
f 61/1/1 58/1/1 54/1/1
f 61/1/1 59/1/1 58/1/1
f 62/1/1 59/1/1 61/1/1
f 63/1/1 57/1/1 60/1/1
f 64/1/1 61/1/1 54/1/1
f 65/1/1 63/1/1 62/1/1
f 66/1/1 57/1/1 63/1/1
f 66/1/1 63/1/1 65/1/1
f 67/1/1 64/1/1 54/1/1
f 67/1/1 65/1/1 64/1/1
f 68/1/1 65/1/1 67/1/1
f 69/1/1 57/1/1 66/1/1
f 70/1/1 57/1/1 69/1/1
f 72/1/1 67/1/1 54/1/1
f 73/1/1 67/1/1 72/1/1
f 74/7/1 72/7/1 71/7/1
f 75/7/1 72/7/1 74/7/1
f 78/7/1 77/7/1 76/7/1
f 80/7/1 78/7/1 76/7/1
f 80/7/1 79/7/1 78/7/1
f 81/7/1 79/7/1 80/7/1
f 84/7/1 83/7/1 82/7/1
f 85/7/1 83/7/1 84/7/1
f 88/9/1 87/9/1 86/9/1
f 89/9/1 87/9/1 88/9/1
f 90/8/2 91/8/2 94/8/2
f 94/8/2 91/8/2 95/8/2
f 92/8/2 93/8/2 96/8/2
f 96/8/2 93/8/2 97/8/2
f 98/9/2 99/9/2 100/9/2
f 100/9/2 99/9/2 101/9/2
f 102/7/2 103/7/2 104/7/2
f 104/7/2 103/7/2 105/7/2
f 106/7/2 107/7/2 108/7/2
f 106/7/2 108/7/2 110/7/2
f 108/7/2 109/7/2 110/7/2
f 110/7/2 109/7/2 111/7/2
f 112/9/2 113/9/2 115/9/2
f 115/9/2 113/9/2 116/9/2
f 114/8/2 115/8/2 118/8/2
f 116/8/2 117/8/2 118/8/2
f 115/8/2 116/8/2 118/8/2
f 118/8/2 117/8/2 119/8/2
f 118/2/2 119/2/2 120/2/2
f 120/2/2 119/2/2 121/2/2
f 118/2/2 120/2/2 122/2/2
f 122/2/2 120/2/2 123/2/2
f 118/2/2 122/2/2 124/2/2
f 123/2/2 120/2/2 125/2/2
f 118/2/2 124/2/2 126/2/2
f 124/2/2 125/2/2 126/2/2
f 126/2/2 125/2/2 127/2/2
f 125/2/2 120/2/2 128/2/2
f 127/2/2 125/2/2 128/2/2
f 128/2/2 120/2/2 129/2/2
f 126/1/2 127/1/2 130/1/2
f 128/1/2 129/1/2 131/1/2
f 131/1/2 129/1/2 132/1/2
f 126/1/2 130/1/2 133/1/2
f 130/1/2 131/1/2 133/1/2
f 133/1/2 131/1/2 134/1/2
f 132/1/2 129/1/2 135/1/2
f 126/1/2 133/1/2 136/1/2
f 134/1/2 135/1/2 137/1/2
f 135/1/2 129/1/2 138/1/2
f 137/1/2 135/1/2 138/1/2
f 126/1/2 136/1/2 139/1/2
f 136/1/2 137/1/2 139/1/2
f 139/1/2 137/1/2 140/1/2
f 138/1/2 129/1/2 141/1/2
f 141/1/2 129/1/2 142/1/2
f 126/1/2 139/1/2 144/1/2
f 144/1/2 139/1/2 145/1/2
f 143/7/2 144/7/2 146/7/2
f 146/7/2 144/7/2 147/7/2
f 148/7/2 149/7/2 150/7/2
f 150/7/2 149/7/2 151/7/2
f 154/2/2 155/2/2 156/2/2
f 156/2/2 155/2/2 157/2/2
f 158/3/2 159/3/2 160/3/2
f 160/3/2 159/3/2 161/3/2
f 161/3/2 162/3/2 164/3/2
f 164/3/2 162/3/2 165/3/2
f 163/3/2 164/3/2 166/3/2
f 166/3/2 164/3/2 167/3/2
f 167/3/2 168/3/2 170/3/2
f 170/3/2 168/3/2 171/3/2
f 152/7/2 153/7/2 172/7/2
f 170/7/2 171/7/2 174/7/2
f 171/7/2 172/7/2 174/7/2
f 169/7/2 170/7/2 174/7/2
f 172/7/2 153/7/2 175/7/2
f 173/7/2 174/7/2 175/7/2
f 174/7/2 172/7/2 175/7/2
f 175/7/2 153/7/2 176/7/2
f 173/7/2 175/7/2 177/7/2
f 177/7/2 175/7/2 178/7/2
f 179/1/2 180/1/2 181/1/2
f 181/1/2 180/1/2 182/1/2
f 185/8/3 184/8/3 183/8/3
f 186/8/3 184/8/3 185/8/3
f 189/7/3 188/7/3 187/7/3
f 190/7/3 188/7/3 189/7/3
f 196/7/3 192/7/3 191/7/3
f 197/7/3 192/7/3 196/7/3
f 198/2/3 195/2/3 194/2/3
f 199/1/3 196/1/3 195/1/3
f 199/2/3 195/2/3 198/2/3
f 200/2/3 198/2/3 194/2/3
f 201/1/3 199/1/3 198/1/3
f 201/2/3 198/2/3 200/2/3
f 202/2/3 200/2/3 194/2/3
f 202/1/3 201/1/3 200/1/3
f 203/1/3 199/1/3 201/1/3
f 203/1/3 201/1/3 202/1/3
f 204/2/3 203/2/3 202/2/3
f 204/1/3 199/1/3 203/1/3
f 205/1/3 196/1/3 199/1/3
f 205/1/3 199/1/3 204/1/3
f 206/8/3 194/8/3 193/8/3
f 207/2/3 204/2/3 202/2/3
f 207/8/3 194/8/3 206/8/3
f 207/2/3 202/2/3 194/2/3
f 207/2/3 205/2/3 204/2/3
f 208/1/3 196/1/3 205/1/3
f 208/2/3 205/2/3 207/2/3
f 209/1/3 196/1/3 208/1/3
f 210/7/3 192/7/3 197/7/3
f 211/7/3 210/7/3 209/7/3
f 212/7/3 192/7/3 210/7/3
f 212/7/3 210/7/3 211/7/3
f 215/7/3 214/7/3 213/7/3
f 216/7/3 214/7/3 215/7/3
f 219/7/3 218/7/3 217/7/3
f 220/7/3 218/7/3 219/7/3
f 223/7/3 222/7/3 221/7/3
f 224/7/3 222/7/3 223/7/3
f 232/2/3 226/2/3 225/2/3
f 232/2/3 227/2/3 226/2/3
f 233/2/3 227/2/3 232/2/3
f 234/3/3 229/3/3 228/3/3
f 235/3/3 229/3/3 234/3/3
f 236/3/3 231/3/3 230/3/3
f 237/3/3 231/3/3 236/3/3
f 246/7/3 239/7/3 238/7/3
f 247/7/3 239/7/3 246/7/3
f 248/2/3 241/2/3 240/2/3
f 249/2/3 241/2/3 248/2/3
f 250/2/3 241/2/3 249/2/3
f 251/3/3 243/3/3 242/3/3
f 252/3/3 243/3/3 251/3/3
f 253/3/3 245/3/3 244/3/3
f 254/3/3 245/3/3 253/3/3
f 255/1/3 249/1/3 248/1/3
f 256/1/3 249/1/3 255/1/3
f 263/3/3 258/3/3 257/3/3
f 264/3/3 258/3/3 263/3/3
f 265/3/3 260/3/3 259/3/3
f 266/3/3 260/3/3 265/3/3
f 267/9/3 262/9/3 261/9/3
f 268/9/3 262/9/3 267/9/3
f 271/9/3 270/9/3 269/9/3
f 272/9/3 270/9/3 271/9/3
f 277/3/3 274/3/3 273/3/3
f 278/3/3 274/3/3 277/3/3
f 279/3/3 276/3/3 275/3/3
f 280/3/3 276/3/3 279/3/3
f 283/7/3 282/7/3 281/7/3
f 284/7/3 282/7/3 283/7/3
f 285/7/3 282/7/3 284/7/3
f 288/7/3 287/7/3 286/7/3
f 289/7/3 287/7/3 288/7/3
f 293/7/3 291/7/3 290/7/3
f 293/7/3 292/7/3 291/7/3
f 294/7/3 292/7/3 293/7/3
f 297/7/3 296/7/3 295/7/3
f 298/7/3 296/7/3 297/7/3
f 299/2/4 300/2/4 306/2/4
f 300/2/4 301/2/4 306/2/4
f 306/2/4 301/2/4 307/2/4
f 302/3/4 303/3/4 308/3/4
f 308/3/4 303/3/4 309/3/4
f 304/3/4 305/3/4 310/3/4
f 310/3/4 305/3/4 311/3/4
f 312/2/4 313/2/4 318/2/4
f 318/2/4 313/2/4 319/2/4
f 319/2/4 313/2/4 320/2/4
f 314/3/4 315/3/4 321/3/4
f 321/3/4 315/3/4 322/3/4
f 316/3/4 317/3/4 323/3/4
f 323/3/4 317/3/4 324/3/4
f 318/1/4 319/1/4 325/1/4
f 325/1/4 319/1/4 326/1/4
f 327/8/4 328/8/4 329/8/4
f 329/8/4 328/8/4 330/8/4
f 331/3/4 332/3/4 337/3/4
f 337/3/4 332/3/4 338/3/4
f 333/3/4 334/3/4 339/3/4
f 339/3/4 334/3/4 340/3/4
f 335/9/4 336/9/4 341/9/4
f 341/9/4 336/9/4 342/9/4
f 343/7/4 344/7/4 345/7/4
f 345/7/4 344/7/4 346/7/4
f 347/9/4 348/9/4 349/9/4
f 349/9/4 348/9/4 350/9/4
f 343/7/4 345/7/4 355/7/4
f 355/7/4 345/7/4 356/7/4
f 351/3/4 352/3/4 357/3/4
f 357/3/4 352/3/4 358/3/4
f 353/3/4 354/3/4 359/3/4
f 359/3/4 354/3/4 360/3/4
f 361/7/4 362/7/4 363/7/4
f 363/7/4 362/7/4 364/7/4
f 365/8/4 366/8/4 368/8/4
f 366/2/4 367/2/4 369/2/4
f 368/8/4 366/8/4 369/8/4
f 369/2/4 367/2/4 370/2/4
f 371/7/4 372/7/4 375/7/4
f 371/7/4 375/7/4 377/7/4
f 375/7/4 376/7/4 377/7/4
f 377/7/4 376/7/4 378/7/4
f 373/7/4 374/7/4 379/7/4
f 379/7/4 374/7/4 380/7/4
f 385/9/5 382/9/5 381/9/5
f 386/9/5 382/9/5 385/9/5
f 387/9/5 384/9/5 383/9/5
f 388/9/5 384/9/5 387/9/5
f 391/8/5 390/8/5 389/8/5
f 392/8/5 390/8/5 391/8/5
f 393/8/5 390/8/5 392/8/5
f 394/8/5 390/8/5 393/8/5
f 396/8/5 393/8/5 392/8/5
f 397/8/5 393/8/5 396/8/5
f 399/8/5 396/8/5 395/8/5
f 399/8/5 398/8/5 397/8/5
f 399/8/5 397/8/5 396/8/5
f 400/8/5 398/8/5 399/8/5
f 405/7/5 402/7/5 401/7/5
f 406/7/5 404/7/5 403/7/5
f 407/7/5 405/7/5 401/7/5
f 407/7/5 406/7/5 405/7/5
f 408/7/5 404/7/5 406/7/5
f 408/7/5 406/7/5 407/7/5
f 411/8/5 410/8/5 409/8/5
f 412/8/5 410/8/5 411/8/5
f 417/1/5 412/1/5 411/1/5
f 418/2/5 413/2/5 412/2/5
f 418/1/5 412/1/5 417/1/5
f 419/2/5 413/2/5 418/2/5
f 420/2/5 415/2/5 414/2/5
f 421/1/5 416/1/5 415/1/5
f 421/2/5 415/2/5 420/2/5
f 422/1/5 416/1/5 421/1/5
f 423/8/5 418/8/5 417/8/5
f 424/8/5 418/8/5 423/8/5
f 429/3/5 426/3/5 425/3/5
f 430/3/5 426/3/5 429/3/5
f 431/3/5 428/3/5 427/3/5
f 432/3/5 428/3/5 431/3/5
f 437/3/5 434/3/5 433/3/5
f 438/3/5 434/3/5 437/3/5
f 439/3/5 436/3/5 435/3/5
f 440/3/5 436/3/5 439/3/5
f 445/3/5 442/3/5 441/3/5
f 446/3/5 442/3/5 445/3/5
f 447/3/5 444/3/5 443/3/5
f 448/3/5 444/3/5 447/3/5
f 453/3/5 450/3/5 449/3/5
f 454/3/5 450/3/5 453/3/5
f 455/3/5 452/3/5 451/3/5
f 456/3/5 452/3/5 455/3/5
f 461/7/5 458/7/5 457/7/5
f 462/7/5 458/7/5 461/7/5
f 463/7/5 460/7/5 459/7/5
f 464/7/5 460/7/5 463/7/5
f 469/7/5 466/7/5 465/7/5
f 470/7/5 466/7/5 469/7/5
f 471/7/5 468/7/5 467/7/5
f 472/7/5 468/7/5 471/7/5
f 476/7/5 474/7/5 473/7/5
f 477/7/5 474/7/5 476/7/5
f 479/7/5 476/7/5 475/7/5
f 480/7/5 476/7/5 479/7/5
f 481/7/5 478/7/5 477/7/5
f 482/7/5 478/7/5 481/7/5
f 486/7/5 484/7/5 483/7/5
f 487/7/5 486/7/5 485/7/5
f 488/7/5 484/7/5 486/7/5
f 488/7/5 486/7/5 487/7/5
f 491/7/5 490/7/5 489/7/5
f 493/7/5 491/7/5 489/7/5
f 493/7/5 492/7/5 491/7/5
f 494/7/5 492/7/5 493/7/5
f 495/8/6 496/8/6 497/8/6
f 497/8/6 496/8/6 498/8/6
f 497/1/6 498/1/6 501/1/6
f 501/1/6 498/1/6 502/1/6
f 499/1/6 500/1/6 503/1/6
f 503/1/6 500/1/6 504/1/6
f 501/8/6 502/8/6 505/8/6
f 505/8/6 502/8/6 506/8/6
f 507/2/6 508/2/6 511/2/6
f 511/2/6 508/2/6 512/2/6
f 509/2/6 510/2/6 513/2/6
f 513/2/6 510/2/6 514/2/6
f 515/3/6 516/3/6 519/3/6
f 519/3/6 516/3/6 520/3/6
f 517/3/6 518/3/6 521/3/6
f 521/3/6 518/3/6 522/3/6
f 523/3/6 524/3/6 527/3/6
f 527/3/6 524/3/6 528/3/6
f 525/3/6 526/3/6 529/3/6
f 529/3/6 526/3/6 530/3/6
f 531/3/6 532/3/6 535/3/6
f 535/3/6 532/3/6 536/3/6
f 533/3/6 534/3/6 537/3/6
f 537/3/6 534/3/6 538/3/6
f 539/7/6 540/7/6 541/7/6
f 541/7/6 540/7/6 542/7/6
f 543/7/6 544/7/6 545/7/6
f 545/7/6 544/7/6 546/7/6
f 547/7/6 548/7/6 549/7/6
f 549/7/6 548/7/6 550/7/6
f 551/7/6 552/7/6 553/7/6
f 553/7/6 552/7/6 554/7/6
f 555/7/6 556/7/6 557/7/6
f 557/7/6 556/7/6 558/7/6
f 559/7/6 560/7/6 561/7/6
f 561/7/6 560/7/6 562/7/6
f 563/7/6 564/7/6 565/7/6
f 565/7/6 564/7/6 566/7/6
