# MagicaVoxel @ ephtracy

# material
mtllib HandsomeKeleton.mtl
usemtl palette

# normals
vn -1 0 0
vn 1 0 0
vn 0 0 1
vn 0 0 -1
vn 0 -1 0
vn 0 1 0

# texcoords
vt 0.0878906 0.5
vt 0.138672 0.5
vt 0.783203 0.5
vt 0.845703 0.5
vt 0.958984 0.5
vt 0.990234 0.5

# verts
v -7 0 4
v -7 0 -7
v -7 1 4
v -7 1 -7
v -7 12 -0
v -7 12 -1
v -7 13 -0
v -7 13 -1
v -6 1 4
v -6 1 -5
v -6 2 4
v -6 2 -5
v -6 8 2
v -6 8 -5
v -6 9 2
v -6 9 -3
v -6 10 -3
v -6 10 -4
v -6 11 -0
v -6 11 -1
v -6 11 -4
v -6 11 -5
v -6 12 -0
v -6 12 -1
v -5 2 4
v -5 2 -5
v -5 3 4
v -5 3 -5
v -5 10 -0
v -5 10 -1
v -5 11 1
v -5 11 -0
v -5 11 -1
v -5 11 -2
v -5 12 2
v -5 12 1
v -5 12 -2
v -5 12 -3
v -5 13 3
v -5 13 2
v -5 13 -0
v -5 13 -1
v -5 13 -3
v -5 13 -4
v -5 14 4
v -5 14 3
v -5 14 -4
v -5 14 -5
v -5 15 -4
v -5 15 -5
v -5 16 4
v -5 16 -4
v -4 3 4
v -4 3 -4
v -4 8 2
v -4 8 -4
v -4 9 4
v -4 9 2
v -4 10 3
v -4 10 -0
v -4 10 -1
v -4 10 -4
v -4 11 4
v -4 11 3
v -4 11 1
v -4 11 -0
v -4 11 -1
v -4 11 -2
v -4 11 -4
v -4 12 2
v -4 12 1
v -4 12 -2
v -4 12 -3
v -4 13 3
v -4 13 2
v -4 13 -3
v -4 13 -4
v -4 13 -5
v -4 14 4
v -4 14 3
v -4 14 -4
v -4 14 -5
v -4 15 5
v -4 15 4
v -4 16 4
v -4 16 3
v -4 16 1
v -4 16 -0
v -4 17 5
v -4 17 3
v -4 19 1
v -4 19 -0
v -3 9 3
v -3 9 -4
v -3 10 4
v -3 10 3
v -3 10 -4
v -3 11 4
v -3 11 3
v -3 17 5
v -3 17 4
v -3 18 5
v -3 18 4
v -2 9 4
v -2 9 3
v -2 10 4
v -2 10 3
v -1 12 4
v -1 12 2
v -1 13 2
v -1 14 4
v -1 14 2
v 1 4 4
v 1 4 3
v 1 7 4
v 1 7 3
v 1 9 4
v 1 9 3
v 1 10 4
v 1 10 3
v 2 2 4
v 2 2 3
v 2 4 4
v 2 4 3
v 2 16 1
v 2 16 -0
v 2 17 1
v 2 17 -0
v 3 0 4
v 3 0 3
v 3 2 4
v 3 2 3
v 3 12 4
v 3 12 3
v 3 14 4
v 3 14 3
v 3 17 1
v 3 17 -0
v 3 19 1
v 3 19 -0
v 5 9 -3
v 5 9 -4
v 5 10 -3
v 5 10 -4
v -5 9 -3
v -5 9 -4
v -5 10 -3
v -5 10 -4
v -3 0 4
v -3 0 3
v -3 2 4
v -3 2 3
v -3 12 4
v -3 12 2
v -3 14 4
v -3 14 2
v -3 17 1
v -3 17 -0
v -3 19 1
v -3 19 -0
v -2 2 4
v -2 2 3
v -2 4 4
v -2 4 3
v -2 16 1
v -2 16 -0
v -2 17 1
v -2 17 -0
v -1 4 4
v -1 4 3
v -1 7 4
v -1 7 3
v -1 9 4
v -1 9 3
v -1 10 4
v -1 10 3
v 1 12 4
v 1 12 3
v 1 13 3
v 1 14 4
v 1 14 3
v 2 9 4
v 2 9 3
v 2 10 4
v 2 10 3
v 3 9 3
v 3 9 -4
v 3 10 4
v 3 10 3
v 3 10 -4
v 3 11 4
v 3 11 3
v 3 17 5
v 3 17 4
v 3 18 5
v 3 18 4
v 4 3 4
v 4 3 -4
v 4 8 2
v 4 8 -4
v 4 9 4
v 4 9 2
v 4 10 3
v 4 10 -0
v 4 10 -1
v 4 10 -4
v 4 11 4
v 4 11 3
v 4 11 1
v 4 11 -0
v 4 11 -1
v 4 11 -2
v 4 11 -4
v 4 12 2
v 4 12 1
v 4 12 -2
v 4 12 -3
v 4 13 3
v 4 13 2
v 4 13 -3
v 4 13 -4
v 4 13 -5
v 4 14 4
v 4 14 3
v 4 14 -4
v 4 14 -5
v 4 15 5
v 4 15 4
v 4 16 4
v 4 16 3
v 4 16 1
v 4 16 -0
v 4 17 5
v 4 17 3
v 4 19 1
v 4 19 -0
v 5 2 4
v 5 2 -5
v 5 3 4
v 5 3 -5
v 5 10 -0
v 5 10 -1
v 5 11 1
v 5 11 -0
v 5 11 -1
v 5 11 -2
v 5 12 2
v 5 12 1
v 5 12 -2
v 5 12 -3
v 5 13 3
v 5 13 2
v 5 13 -0
v 5 13 -1
v 5 13 -3
v 5 13 -4
v 5 14 4
v 5 14 3
v 5 14 -4
v 5 14 -5
v 5 15 -4
v 5 15 -5
v 5 16 4
v 5 16 -4
v 6 1 4
v 6 1 -5
v 6 2 4
v 6 2 -5
v 6 8 2
v 6 8 -5
v 6 9 2
v 6 9 -3
v 6 10 -3
v 6 10 -4
v 6 11 -0
v 6 11 -1
v 6 11 -4
v 6 11 -5
v 6 12 -0
v 6 12 -1
v 7 0 4
v 7 0 -7
v 7 1 4
v 7 1 -7
v 7 12 -0
v 7 12 -1
v 7 13 -0
v 7 13 -1
v -4 15 5
v -4 17 5
v -3 17 5
v -3 18 5
v 3 17 5
v 3 18 5
v 4 15 5
v 4 17 5
v -7 0 4
v -7 1 4
v -6 1 4
v -6 2 4
v -5 2 4
v -5 3 4
v -5 14 4
v -5 16 4
v -4 3 4
v -4 9 4
v -4 11 4
v -4 14 4
v -4 15 4
v -4 16 4
v -3 0 4
v -3 2 4
v -3 10 4
v -3 11 4
v -3 12 4
v -3 14 4
v -2 2 4
v -2 4 4
v -2 9 4
v -2 10 4
v -1 4 4
v -1 7 4
v -1 8 4
v -1 9 4
v -1 10 4
v -1 12 4
v -1 14 4
v 1 4 4
v 1 7 4
v 1 8 4
v 1 9 4
v 1 10 4
v 1 12 4
v 1 14 4
v 2 2 4
v 2 4 4
v 2 9 4
v 2 10 4
v 3 0 4
v 3 2 4
v 3 10 4
v 3 11 4
v 3 12 4
v 3 14 4
v 4 3 4
v 4 9 4
v 4 11 4
v 4 14 4
v 4 15 4
v 4 16 4
v 5 2 4
v 5 3 4
v 5 14 4
v 5 16 4
v 6 1 4
v 6 2 4
v 7 0 4
v 7 1 4
v -5 13 3
v -5 14 3
v -4 10 3
v -4 11 3
v -4 13 3
v -4 14 3
v -3 0 3
v -3 2 3
v -3 9 3
v -3 10 3
v -3 11 3
v -2 2 3
v -2 4 3
v -2 9 3
v -2 10 3
v -1 4 3
v -1 7 3
v -1 9 3
v -1 10 3
v 1 4 3
v 1 7 3
v 1 9 3
v 1 10 3
v 1 12 3
v 1 13 3
v 1 14 3
v 2 2 3
v 2 4 3
v 2 9 3
v 2 10 3
v 2 12 3
v 2 13 3
v 3 0 3
v 3 2 3
v 3 9 3
v 3 10 3
v 3 11 3
v 3 12 3
v 3 14 3
v 4 10 3
v 4 11 3
v 4 13 3
v 4 14 3
v 5 13 3
v 5 14 3
v -6 8 2
v -6 9 2
v -5 12 2
v -5 13 2
v -4 8 2
v -4 9 2
v -4 12 2
v -4 13 2
v -3 12 2
v -3 14 2
v -2 12 2
v -2 13 2
v -1 12 2
v -1 13 2
v -1 14 2
v 4 8 2
v 4 9 2
v 4 12 2
v 4 13 2
v 5 12 2
v 5 13 2
v 6 8 2
v 6 9 2
v -5 11 1
v -5 12 1
v -4 11 1
v -4 12 1
v -4 16 1
v -4 19 1
v -3 17 1
v -3 19 1
v -2 16 1
v -2 17 1
v 2 16 1
v 2 17 1
v 3 17 1
v 3 19 1
v 4 11 1
v 4 12 1
v 4 16 1
v 4 19 1
v 5 11 1
v 5 12 1
v -7 12 -0
v -7 13 -0
v -6 11 -0
v -6 12 -0
v -5 10 -0
v -5 11 -0
v -5 13 -0
v -4 10 -0
v -4 11 -0
v 4 10 -0
v 4 11 -0
v 5 10 -0
v 5 11 -0
v 5 13 -0
v 6 11 -0
v 6 12 -0
v 7 12 -0
v 7 13 -0
v -6 9 -3
v -6 10 -3
v -5 9 -3
v -5 10 -3
v 5 9 -3
v 5 10 -3
v 6 9 -3
v 6 10 -3
v -6 10 -4
v -6 11 -4
v -5 9 -4
v -5 10 -4
v -4 10 -4
v -4 11 -4
v -3 9 -4
v -3 10 -4
v 3 9 -4
v 3 10 -4
v 4 10 -4
v 4 11 -4
v 5 9 -4
v 5 10 -4
v 6 10 -4
v 6 11 -4
v -3 17 4
v -3 18 4
v 3 17 4
v 3 18 4
v -4 16 3
v -4 17 3
v 4 16 3
v 4 17 3
v -4 16 -0
v -4 19 -0
v -3 17 -0
v -3 19 -0
v -2 16 -0
v -2 17 -0
v 2 16 -0
v 2 17 -0
v 3 17 -0
v 3 19 -0
v 4 16 -0
v 4 19 -0
v -7 12 -1
v -7 13 -1
v -6 11 -1
v -6 12 -1
v -5 10 -1
v -5 11 -1
v -5 13 -1
v -4 10 -1
v -4 11 -1
v 4 10 -1
v 4 11 -1
v 5 10 -1
v 5 11 -1
v 5 13 -1
v 6 11 -1
v 6 12 -1
v 7 12 -1
v 7 13 -1
v -5 11 -2
v -5 12 -2
v -4 11 -2
v -4 12 -2
v 4 11 -2
v 4 12 -2
v 5 11 -2
v 5 12 -2
v -5 12 -3
v -5 13 -3
v -4 12 -3
v -4 13 -3
v 4 12 -3
v 4 13 -3
v 5 12 -3
v 5 13 -3
v -5 13 -4
v -5 14 -4
v -5 15 -4
v -5 16 -4
v -4 3 -4
v -4 8 -4
v -4 11 -4
v -4 13 -4
v -4 14 -4
v 4 3 -4
v 4 8 -4
v 4 11 -4
v 4 13 -4
v 4 14 -4
v 5 13 -4
v 5 14 -4
v 5 15 -4
v 5 16 -4
v -6 1 -5
v -6 2 -5
v -6 8 -5
v -6 11 -5
v -5 2 -5
v -5 3 -5
v -5 14 -5
v -5 15 -5
v -4 13 -5
v -4 14 -5
v 4 13 -5
v 4 14 -5
v 5 2 -5
v 5 3 -5
v 5 14 -5
v 5 15 -5
v 6 1 -5
v 6 2 -5
v 6 8 -5
v 6 11 -5
v -7 0 -7
v -7 1 -7
v 7 0 -7
v 7 1 -7
v -7 0 4
v -3 0 4
v 3 0 4
v 7 0 4
v -3 0 3
v 3 0 3
v -3 0 -3
v 3 0 -3
v -7 0 -7
v 7 0 -7
v -3 2 4
v -2 2 4
v 2 2 4
v 3 2 4
v -3 2 3
v -2 2 3
v 2 2 3
v 3 2 3
v -2 4 4
v -1 4 4
v 1 4 4
v 2 4 4
v -2 4 3
v -1 4 3
v 1 4 3
v 2 4 3
v -1 7 4
v 1 7 4
v -1 7 3
v 1 7 3
v -6 8 2
v -4 8 2
v 4 8 2
v 6 8 2
v -4 8 -4
v 4 8 -4
v -6 8 -5
v 6 8 -5
v -3 10 4
v -2 10 4
v -1 10 4
v 1 10 4
v 2 10 4
v 3 10 4
v -4 10 3
v -3 10 3
v -2 10 3
v -1 10 3
v 1 10 3
v 2 10 3
v 3 10 3
v 4 10 3
v -5 10 -0
v -4 10 -0
v 4 10 -0
v 5 10 -0
v -5 10 -1
v -4 10 -1
v 4 10 -1
v 5 10 -1
v -4 10 -4
v -3 10 -4
v 3 10 -4
v 4 10 -4
v -4 11 4
v -3 11 4
v 3 11 4
v 4 11 4
v -4 11 3
v -3 11 3
v 3 11 3
v 4 11 3
v -5 11 1
v -4 11 1
v 4 11 1
v 5 11 1
v -6 11 -0
v -5 11 -0
v -4 11 -0
v 4 11 -0
v 5 11 -0
v 6 11 -0
v -6 11 -1
v -5 11 -1
v -4 11 -1
v 4 11 -1
v 5 11 -1
v 6 11 -1
v -5 11 -2
v -4 11 -2
v 4 11 -2
v 5 11 -2
v -5 12 2
v -4 12 2
v 4 12 2
v 5 12 2
v -5 12 1
v -4 12 1
v 4 12 1
v 5 12 1
v -7 12 -0
v -6 12 -0
v 6 12 -0
v 7 12 -0
v -7 12 -1
v -6 12 -1
v 6 12 -1
v 7 12 -1
v -5 12 -2
v -4 12 -2
v 4 12 -2
v 5 12 -2
v -5 12 -3
v -4 12 -3
v 4 12 -3
v 5 12 -3
v -5 13 3
v -4 13 3
v 4 13 3
v 5 13 3
v -5 13 2
v -4 13 2
v 4 13 2
v 5 13 2
v -5 13 -3
v -4 13 -3
v 4 13 -3
v 5 13 -3
v -5 13 -4
v -4 13 -4
v 4 13 -4
v 5 13 -4
v -4 13 -5
v 4 13 -5
v -5 14 4
v -4 14 4
v -3 14 4
v -1 14 4
v 1 14 4
v 3 14 4
v 4 14 4
v 5 14 4
v -5 14 3
v -4 14 3
v 1 14 3
v 3 14 3
v 4 14 3
v 5 14 3
v -3 14 2
v -1 14 2
v -5 14 -4
v -4 14 -4
v 4 14 -4
v 5 14 -4
v -5 14 -5
v -4 14 -5
v 4 14 -5
v 5 14 -5
v -4 15 5
v 4 15 5
v -4 15 4
v 4 15 4
v -7 1 4
v -6 1 4
v 6 1 4
v 7 1 4
v -6 1 -5
v 6 1 -5
v -7 1 -7
v 7 1 -7
v -6 2 4
v -5 2 4
v 5 2 4
v 6 2 4
v -6 2 -5
v -5 2 -5
v 5 2 -5
v 6 2 -5
v -5 3 4
v -4 3 4
v 4 3 4
v 5 3 4
v -4 3 -4
v 4 3 -4
v -5 3 -5
v 5 3 -5
v -4 9 4
v -2 9 4
v -1 9 4
v 1 9 4
v 2 9 4
v 4 9 4
v -3 9 3
v -2 9 3
v -1 9 3
v 1 9 3
v 2 9 3
v 3 9 3
v -6 9 2
v -4 9 2
v 4 9 2
v 6 9 2
v -6 9 -3
v -5 9 -3
v 5 9 -3
v 6 9 -3
v -5 9 -4
v -3 9 -4
v 3 9 -4
v 5 9 -4
v -6 10 -3
v -5 10 -3
v 5 10 -3
v 6 10 -3
v -6 10 -4
v -5 10 -4
v 5 10 -4
v 6 10 -4
v -6 11 -4
v -4 11 -4
v 4 11 -4
v 6 11 -4
v -6 11 -5
v 6 11 -5
v -3 12 4
v -1 12 4
v 1 12 4
v 3 12 4
v 1 12 3
v 2 12 3
v 3 12 3
v -3 12 2
v -2 12 2
v -1 12 2
v -7 13 -0
v -5 13 -0
v 5 13 -0
v 7 13 -0
v -7 13 -1
v -5 13 -1
v 5 13 -1
v 7 13 -1
v -5 15 -4
v 5 15 -4
v -5 15 -5
v 5 15 -5
v -5 16 4
v -4 16 4
v 4 16 4
v 5 16 4
v -4 16 3
v 4 16 3
v -4 16 1
v -2 16 1
v 2 16 1
v 4 16 1
v -4 16 -0
v -2 16 -0
v 2 16 -0
v 4 16 -0
v -5 16 -4
v 5 16 -4
v -4 17 5
v -3 17 5
v 3 17 5
v 4 17 5
v -3 17 4
v 3 17 4
v -4 17 3
v 4 17 3
v -3 17 1
v -2 17 1
v 2 17 1
v 3 17 1
v -3 17 -0
v -2 17 -0
v 2 17 -0
v 3 17 -0
v -3 18 5
v 3 18 5
v -3 18 4
v 3 18 4
v -4 19 1
v -3 19 1
v 3 19 1
v 4 19 1
v -4 19 -0
v -3 19 -0
v 3 19 -0
v 4 19 -0

# faces
f 3/6/1 2/6/1 1/6/1
f 4/6/1 2/6/1 3/6/1
f 7/5/1 6/5/1 5/5/1
f 8/5/1 6/5/1 7/5/1
f 11/6/1 10/6/1 9/6/1
f 12/6/1 10/6/1 11/6/1
f 15/6/1 14/6/1 13/6/1
f 16/6/1 14/6/1 15/6/1
f 17/6/1 14/6/1 16/6/1
f 18/6/1 14/6/1 17/6/1
f 21/6/1 14/6/1 18/6/1
f 22/6/1 14/6/1 21/6/1
f 23/5/1 20/5/1 19/5/1
f 24/5/1 20/5/1 23/5/1
f 27/6/1 26/6/1 25/6/1
f 28/6/1 26/6/1 27/6/1
f 32/5/1 30/5/1 29/5/1
f 33/5/1 30/5/1 32/5/1
f 36/6/1 32/6/1 31/6/1
f 37/6/1 34/6/1 33/6/1
f 40/6/1 36/6/1 35/6/1
f 41/6/1 32/6/1 36/6/1
f 41/6/1 36/6/1 40/6/1
f 42/6/1 38/6/1 37/6/1
f 42/6/1 37/6/1 33/6/1
f 43/6/1 38/6/1 42/6/1
f 46/6/1 41/6/1 40/6/1
f 46/6/1 44/6/1 43/6/1
f 46/6/1 43/6/1 42/6/1
f 46/6/1 42/6/1 41/6/1
f 46/6/1 40/6/1 39/6/1
f 47/6/1 44/6/1 46/6/1
f 49/6/1 46/6/1 45/6/1
f 49/6/1 48/6/1 47/6/1
f 49/6/1 47/6/1 46/6/1
f 50/6/1 48/6/1 49/6/1
f 51/6/1 49/6/1 45/6/1
f 52/6/1 49/6/1 51/6/1
f 55/6/1 54/6/1 53/6/1
f 56/6/1 54/6/1 55/6/1
f 57/6/1 55/6/1 53/6/1
f 58/6/1 55/6/1 57/6/1
f 64/5/1 60/5/1 59/5/1
f 65/5/1 60/5/1 64/5/1
f 66/5/1 60/5/1 65/5/1
f 67/5/1 62/5/1 61/5/1
f 68/5/1 62/5/1 67/5/1
f 69/5/1 62/5/1 68/5/1
f 70/5/1 64/5/1 63/5/1
f 70/5/1 65/5/1 64/5/1
f 71/5/1 65/5/1 70/5/1
f 72/5/1 69/5/1 68/5/1
f 73/5/1 69/5/1 72/5/1
f 74/5/1 70/5/1 63/5/1
f 75/5/1 70/5/1 74/5/1
f 76/5/1 69/5/1 73/5/1
f 77/5/1 69/5/1 76/5/1
f 79/5/1 74/5/1 63/5/1
f 80/5/1 74/5/1 79/5/1
f 81/6/1 78/6/1 77/6/1
f 82/6/1 78/6/1 81/6/1
f 85/6/1 84/6/1 83/6/1
f 89/6/1 85/6/1 83/6/1
f 89/6/1 86/6/1 85/6/1
f 90/6/1 86/6/1 89/6/1
f 91/5/1 88/5/1 87/5/1
f 92/5/1 88/5/1 91/5/1
f 96/5/1 94/5/1 93/5/1
f 97/5/1 94/5/1 96/5/1
f 98/5/1 96/5/1 95/5/1
f 99/5/1 96/5/1 98/5/1
f 102/6/1 101/6/1 100/6/1
f 103/6/1 101/6/1 102/6/1
f 106/5/1 105/5/1 104/5/1
f 107/5/1 105/5/1 106/5/1
f 110/5/1 109/5/1 108/5/1
f 111/5/1 110/5/1 108/5/1
f 112/5/1 110/5/1 111/5/1
f 115/6/1 114/6/1 113/6/1
f 116/6/1 114/6/1 115/6/1
f 119/5/1 118/5/1 117/5/1
f 120/5/1 118/5/1 119/5/1
f 123/6/1 122/6/1 121/6/1
f 124/6/1 122/6/1 123/6/1
f 127/5/1 126/5/1 125/5/1
f 128/5/1 126/5/1 127/5/1
f 131/6/1 130/6/1 129/6/1
f 132/6/1 130/6/1 131/6/1
f 135/5/1 134/5/1 133/5/1
f 136/5/1 134/5/1 135/5/1
f 139/5/1 138/5/1 137/5/1
f 140/5/1 138/5/1 139/5/1
f 143/6/1 142/6/1 141/6/1
f 144/6/1 142/6/1 143/6/1
f 145/6/2 146/6/2 147/6/2
f 147/6/2 146/6/2 148/6/2
f 149/6/2 150/6/2 151/6/2
f 151/6/2 150/6/2 152/6/2
f 153/5/2 154/5/2 155/5/2
f 155/5/2 154/5/2 156/5/2
f 157/5/2 158/5/2 159/5/2
f 159/5/2 158/5/2 160/5/2
f 161/6/2 162/6/2 163/6/2
f 163/6/2 162/6/2 164/6/2
f 165/5/2 166/5/2 167/5/2
f 167/5/2 166/5/2 168/5/2
f 169/6/2 170/6/2 171/6/2
f 171/6/2 170/6/2 172/6/2
f 173/5/2 174/5/2 175/5/2
f 175/5/2 174/5/2 176/5/2
f 177/5/2 178/5/2 179/5/2
f 177/5/2 179/5/2 180/5/2
f 180/5/2 179/5/2 181/5/2
f 182/5/2 183/5/2 184/5/2
f 184/5/2 183/5/2 185/5/2
f 186/5/2 187/5/2 189/5/2
f 189/5/2 187/5/2 190/5/2
f 188/5/2 189/5/2 191/5/2
f 191/5/2 189/5/2 192/5/2
f 193/6/2 194/6/2 195/6/2
f 195/6/2 194/6/2 196/6/2
f 197/6/2 198/6/2 199/6/2
f 199/6/2 198/6/2 200/6/2
f 197/6/2 199/6/2 201/6/2
f 201/6/2 199/6/2 202/6/2
f 203/5/2 204/5/2 208/5/2
f 208/5/2 204/5/2 209/5/2
f 209/5/2 204/5/2 210/5/2
f 205/5/2 206/5/2 211/5/2
f 211/5/2 206/5/2 212/5/2
f 212/5/2 206/5/2 213/5/2
f 207/5/2 208/5/2 214/5/2
f 208/5/2 209/5/2 214/5/2
f 214/5/2 209/5/2 215/5/2
f 212/5/2 213/5/2 216/5/2
f 216/5/2 213/5/2 217/5/2
f 207/5/2 214/5/2 218/5/2
f 218/5/2 214/5/2 219/5/2
f 217/5/2 213/5/2 220/5/2
f 220/5/2 213/5/2 221/5/2
f 207/5/2 218/5/2 223/5/2
f 223/5/2 218/5/2 224/5/2
f 221/6/2 222/6/2 225/6/2
f 225/6/2 222/6/2 226/6/2
f 227/6/2 228/6/2 229/6/2
f 227/6/2 229/6/2 233/6/2
f 229/6/2 230/6/2 233/6/2
f 233/6/2 230/6/2 234/6/2
f 231/5/2 232/5/2 235/5/2
f 235/5/2 232/5/2 236/5/2
f 237/6/2 238/6/2 239/6/2
f 239/6/2 238/6/2 240/6/2
f 241/5/2 242/5/2 244/5/2
f 244/5/2 242/5/2 245/5/2
f 243/6/2 244/6/2 248/6/2
f 245/6/2 246/6/2 249/6/2
f 247/6/2 248/6/2 252/6/2
f 248/6/2 244/6/2 253/6/2
f 252/6/2 248/6/2 253/6/2
f 249/6/2 250/6/2 254/6/2
f 245/6/2 249/6/2 254/6/2
f 254/6/2 250/6/2 255/6/2
f 252/6/2 253/6/2 258/6/2
f 255/6/2 256/6/2 258/6/2
f 254/6/2 255/6/2 258/6/2
f 253/6/2 254/6/2 258/6/2
f 251/6/2 252/6/2 258/6/2
f 258/6/2 256/6/2 259/6/2
f 257/6/2 258/6/2 261/6/2
f 259/6/2 260/6/2 261/6/2
f 258/6/2 259/6/2 261/6/2
f 261/6/2 260/6/2 262/6/2
f 257/6/2 261/6/2 263/6/2
f 263/6/2 261/6/2 264/6/2
f 265/6/2 266/6/2 267/6/2
f 267/6/2 266/6/2 268/6/2
f 269/6/2 270/6/2 271/6/2
f 271/6/2 270/6/2 272/6/2
f 272/6/2 270/6/2 273/6/2
f 273/6/2 270/6/2 274/6/2
f 274/6/2 270/6/2 277/6/2
f 277/6/2 270/6/2 278/6/2
f 275/5/2 276/5/2 279/5/2
f 279/5/2 276/5/2 280/5/2
f 281/6/2 282/6/2 283/6/2
f 283/6/2 282/6/2 284/6/2
f 285/5/2 286/5/2 287/5/2
f 287/5/2 286/5/2 288/5/2
f 291/6/3 290/6/3 289/6/3
f 293/6/3 291/6/3 289/6/3
f 293/6/3 292/6/3 291/6/3
f 294/6/3 292/6/3 293/6/3
f 295/6/3 293/6/3 289/6/3
f 296/6/3 293/6/3 295/6/3
f 299/6/3 298/6/3 297/6/3
f 301/6/3 300/6/3 299/6/3
f 305/6/3 302/6/3 301/6/3
f 308/6/3 304/6/3 303/6/3
f 309/6/3 304/6/3 308/6/3
f 310/6/3 304/6/3 309/6/3
f 311/6/3 299/6/3 297/6/3
f 311/6/3 301/6/3 299/6/3
f 311/6/3 306/6/3 305/6/3
f 311/6/3 305/6/3 301/6/3
f 312/6/3 306/6/3 311/6/3
f 314/5/3 309/5/3 308/5/3
f 314/5/3 308/5/3 307/5/3
f 315/5/3 309/5/3 314/5/3
f 316/5/3 309/5/3 315/5/3
f 317/6/3 306/6/3 312/6/3
f 318/6/3 306/6/3 317/6/3
f 319/6/3 306/6/3 318/6/3
f 320/5/3 315/5/3 314/5/3
f 320/5/3 314/5/3 313/5/3
f 321/6/3 319/6/3 318/6/3
f 322/6/3 319/6/3 321/6/3
f 323/6/3 319/6/3 322/6/3
f 324/5/3 320/5/3 319/5/3
f 324/6/3 319/6/3 323/6/3
f 325/5/3 315/5/3 320/5/3
f 325/5/3 320/5/3 324/5/3
f 326/5/3 315/5/3 325/5/3
f 327/5/3 309/5/3 316/5/3
f 329/3/3 323/3/3 322/3/3
f 330/6/3 324/6/3 323/6/3
f 330/3/3 323/3/3 329/3/3
f 331/6/3 324/6/3 330/6/3
f 332/5/3 326/5/3 325/5/3
f 332/5/3 327/5/3 326/5/3
f 333/5/3 327/5/3 332/5/3
f 334/5/3 309/5/3 327/5/3
f 334/5/3 327/5/3 333/5/3
f 336/6/3 331/6/3 330/6/3
f 336/6/3 329/6/3 328/6/3
f 336/6/3 330/6/3 329/6/3
f 337/5/3 332/5/3 331/5/3
f 337/5/3 333/5/3 332/5/3
f 337/6/3 331/6/3 336/6/3
f 338/5/3 333/5/3 337/5/3
f 340/6/3 336/6/3 335/6/3
f 340/6/3 337/6/3 336/6/3
f 341/5/3 333/5/3 338/5/3
f 342/5/3 333/5/3 341/5/3
f 343/5/3 333/5/3 342/5/3
f 344/5/3 309/5/3 334/5/3
f 345/6/3 340/6/3 339/6/3
f 345/6/3 337/6/3 340/6/3
f 346/6/3 337/6/3 345/6/3
f 347/5/3 343/5/3 342/5/3
f 347/5/3 344/5/3 343/5/3
f 348/5/3 309/5/3 344/5/3
f 348/5/3 344/5/3 347/5/3
f 349/5/3 309/5/3 348/5/3
f 351/6/3 345/6/3 339/6/3
f 352/6/3 345/6/3 351/6/3
f 353/6/3 350/6/3 349/6/3
f 353/6/3 349/6/3 348/6/3
f 354/6/3 350/6/3 353/6/3
f 355/6/3 351/6/3 339/6/3
f 356/6/3 351/6/3 355/6/3
f 357/6/3 355/6/3 339/6/3
f 358/6/3 355/6/3 357/6/3
f 363/6/3 360/6/3 359/6/3
f 364/6/3 360/6/3 363/6/3
f 368/5/3 362/5/3 361/5/3
f 369/5/3 362/5/3 368/5/3
f 370/4/3 366/4/3 365/4/3
f 372/5/3 368/5/3 367/5/3
f 373/5/3 368/5/3 372/5/3
f 374/4/3 371/4/3 370/4/3
f 378/4/3 374/4/3 370/4/3
f 378/4/3 375/4/3 374/4/3
f 379/4/3 375/4/3 378/4/3
f 380/5/3 377/5/3 376/5/3
f 381/5/3 377/5/3 380/5/3
f 385/4/3 370/4/3 365/4/3
f 385/4/3 378/4/3 370/4/3
f 386/4/3 378/4/3 385/4/3
f 389/1/3 383/1/3 382/1/3
f 390/2/3 384/2/3 383/2/3
f 390/1/3 383/1/3 389/1/3
f 391/4/3 385/4/3 365/4/3
f 392/4/3 385/4/3 391/4/3
f 393/5/3 388/5/3 387/5/3
f 394/5/3 388/5/3 393/5/3
f 396/2/3 390/2/3 389/2/3
f 397/2/3 384/2/3 390/2/3
f 397/2/3 390/2/3 396/2/3
f 398/5/3 395/5/3 394/5/3
f 399/5/3 395/5/3 398/5/3
f 402/6/3 401/6/3 400/6/3
f 403/6/3 401/6/3 402/6/3
f 408/6/3 405/6/3 404/6/3
f 409/6/3 405/6/3 408/6/3
f 410/6/3 407/6/3 406/6/3
f 411/6/3 407/6/3 410/6/3
f 414/2/3 413/2/3 412/2/3
f 415/2/3 413/2/3 414/2/3
f 416/1/3 415/1/3 414/1/3
f 417/2/3 413/2/3 415/2/3
f 417/1/3 415/1/3 416/1/3
f 418/2/3 413/2/3 417/2/3
f 423/6/3 422/6/3 421/6/3
f 424/6/3 422/6/3 423/6/3
f 425/6/3 420/6/3 419/6/3
f 426/6/3 420/6/3 425/6/3
f 429/6/3 428/6/3 427/6/3
f 430/6/3 428/6/3 429/6/3
f 433/5/3 432/5/3 431/5/3
f 434/5/3 432/5/3 433/5/3
f 435/5/3 433/5/3 431/5/3
f 436/5/3 433/5/3 435/5/3
f 439/5/3 438/5/3 437/5/3
f 443/5/3 439/5/3 437/5/3
f 443/5/3 440/5/3 439/5/3
f 444/5/3 440/5/3 443/5/3
f 445/6/3 442/6/3 441/6/3
f 446/6/3 442/6/3 445/6/3
f 450/5/3 448/5/3 447/5/3
f 452/5/3 450/5/3 449/5/3
f 453/5/3 448/5/3 450/5/3
f 453/5/3 450/5/3 452/5/3
f 454/5/3 452/5/3 451/5/3
f 455/5/3 452/5/3 454/5/3
f 458/5/3 457/5/3 456/5/3
f 459/5/3 457/5/3 458/5/3
f 461/5/3 460/5/3 459/5/3
f 462/5/3 460/5/3 461/5/3
f 463/5/3 460/5/3 462/5/3
f 464/5/3 460/5/3 463/5/3
f 467/6/3 466/6/3 465/6/3
f 468/6/3 466/6/3 467/6/3
f 471/6/3 470/6/3 469/6/3
f 472/6/3 470/6/3 471/6/3
f 476/6/3 474/6/3 473/6/3
f 477/6/3 474/6/3 476/6/3
f 477/6/3 476/6/3 475/6/3
f 478/6/3 474/6/3 477/6/3
f 479/6/3 477/6/3 475/6/3
f 480/6/3 477/6/3 479/6/3
f 483/6/3 482/6/3 481/6/3
f 485/6/3 483/6/3 481/6/3
f 485/6/3 484/6/3 483/6/3
f 486/6/3 484/6/3 485/6/3
f 487/6/3 484/6/3 486/6/3
f 488/6/3 484/6/3 487/6/3
f 489/6/4 490/6/4 491/6/4
f 491/6/4 490/6/4 492/6/4
f 493/6/4 494/6/4 495/6/4
f 495/6/4 494/6/4 496/6/4
f 497/5/4 498/5/4 499/5/4
f 499/5/4 498/5/4 500/5/4
f 497/5/4 499/5/4 501/5/4
f 501/5/4 499/5/4 502/5/4
f 503/5/4 504/5/4 505/5/4
f 503/5/4 505/5/4 507/5/4
f 505/5/4 506/5/4 507/5/4
f 507/5/4 506/5/4 508/5/4
f 509/5/4 510/5/4 512/5/4
f 511/5/4 512/5/4 514/5/4
f 512/5/4 510/5/4 515/5/4
f 514/5/4 512/5/4 515/5/4
f 513/5/4 514/5/4 516/5/4
f 516/5/4 514/5/4 517/5/4
f 518/5/4 519/5/4 520/5/4
f 520/5/4 519/5/4 521/5/4
f 521/5/4 522/5/4 523/5/4
f 523/5/4 522/5/4 524/5/4
f 524/5/4 522/5/4 525/5/4
f 525/5/4 522/5/4 526/5/4
f 527/6/4 528/6/4 529/6/4
f 529/6/4 528/6/4 530/6/4
f 531/6/4 532/6/4 533/6/4
f 533/6/4 532/6/4 534/6/4
f 535/6/4 536/6/4 537/6/4
f 537/6/4 536/6/4 538/6/4
f 539/6/4 540/6/4 541/6/4
f 541/6/4 540/6/4 542/6/4
f 543/6/4 544/6/4 550/6/4
f 550/6/4 544/6/4 551/6/4
f 547/6/4 548/6/4 552/6/4
f 552/6/4 548/6/4 553/6/4
f 549/5/4 550/5/4 554/5/4
f 554/5/4 550/5/4 555/5/4
f 555/6/4 556/6/4 557/6/4
f 557/6/4 556/6/4 558/6/4
f 545/6/4 546/6/4 559/6/4
f 559/6/4 546/6/4 560/6/4
f 561/6/4 562/6/4 565/6/4
f 567/6/4 568/6/4 570/6/4
f 569/6/4 570/6/4 571/6/4
f 570/6/4 568/6/4 572/6/4
f 571/6/4 570/6/4 572/6/4
f 561/6/4 565/6/4 573/6/4
f 565/6/4 566/6/4 573/6/4
f 573/6/4 566/6/4 574/6/4
f 572/6/4 568/6/4 575/6/4
f 575/6/4 568/6/4 576/6/4
f 561/6/4 573/6/4 577/6/4
f 577/6/4 573/6/4 578/6/4
f 563/6/4 564/6/4 579/6/4
f 579/6/4 564/6/4 580/6/4
f 581/6/4 582/6/4 583/6/4
f 583/6/4 582/6/4 584/6/4
f 589/6/5 586/6/5 585/6/5
f 590/6/5 588/6/5 587/6/5
f 591/6/5 589/6/5 585/6/5
f 591/4/5 590/4/5 589/4/5
f 592/6/5 588/6/5 590/6/5
f 592/4/5 590/4/5 591/4/5
f 593/6/5 591/6/5 585/6/5
f 593/6/5 592/6/5 591/6/5
f 594/6/5 588/6/5 592/6/5
f 594/6/5 592/6/5 593/6/5
f 599/6/5 596/6/5 595/6/5
f 600/6/5 596/6/5 599/6/5
f 601/6/5 598/6/5 597/6/5
f 602/6/5 598/6/5 601/6/5
f 607/6/5 604/6/5 603/6/5
f 608/6/5 604/6/5 607/6/5
f 609/6/5 606/6/5 605/6/5
f 610/6/5 606/6/5 609/6/5
f 613/3/5 612/3/5 611/3/5
f 614/3/5 612/3/5 613/3/5
f 619/6/5 616/6/5 615/6/5
f 620/6/5 618/6/5 617/6/5
f 621/6/5 619/6/5 615/6/5
f 621/6/5 620/6/5 619/6/5
f 622/6/5 618/6/5 620/6/5
f 622/6/5 620/6/5 621/6/5
f 630/5/5 624/5/5 623/5/5
f 631/5/5 624/5/5 630/5/5
f 632/5/5 626/5/5 625/5/5
f 633/5/5 626/5/5 632/5/5
f 634/5/5 628/5/5 627/5/5
f 635/5/5 628/5/5 634/5/5
f 638/5/5 630/5/5 629/5/5
f 639/5/5 636/5/5 635/5/5
f 641/5/5 638/5/5 637/5/5
f 642/5/5 630/5/5 638/5/5
f 642/5/5 638/5/5 641/5/5
f 643/5/5 640/5/5 639/5/5
f 643/5/5 639/5/5 635/5/5
f 644/5/5 640/5/5 643/5/5
f 645/5/5 630/5/5 642/5/5
f 646/5/5 630/5/5 645/5/5
f 647/5/5 643/5/5 635/5/5
f 648/5/5 643/5/5 647/5/5
f 653/5/5 650/5/5 649/5/5
f 654/5/5 650/5/5 653/5/5
f 655/5/5 652/5/5 651/5/5
f 656/5/5 652/5/5 655/5/5
f 662/6/5 658/6/5 657/6/5
f 663/6/5 658/6/5 662/6/5
f 664/6/5 660/6/5 659/6/5
f 665/6/5 660/6/5 664/6/5
f 667/5/5 662/5/5 661/5/5
f 668/5/5 662/5/5 667/5/5
f 671/5/5 666/5/5 665/5/5
f 672/5/5 666/5/5 671/5/5
f 673/6/5 669/6/5 668/6/5
f 674/6/5 669/6/5 673/6/5
f 675/6/5 671/6/5 670/6/5
f 676/6/5 671/6/5 675/6/5
f 681/6/5 678/6/5 677/6/5
f 682/6/5 678/6/5 681/6/5
f 683/6/5 680/6/5 679/6/5
f 684/6/5 680/6/5 683/6/5
f 689/5/5 686/5/5 685/5/5
f 690/5/5 686/5/5 689/5/5
f 691/5/5 688/5/5 687/5/5
f 692/5/5 688/5/5 691/5/5
f 697/6/5 694/6/5 693/6/5
f 698/6/5 694/6/5 697/6/5
f 699/6/5 696/6/5 695/6/5
f 700/6/5 696/6/5 699/6/5
f 705/6/5 702/6/5 701/6/5
f 706/6/5 702/6/5 705/6/5
f 707/6/5 704/6/5 703/6/5
f 708/6/5 704/6/5 707/6/5
f 713/6/5 710/6/5 709/6/5
f 714/6/5 710/6/5 713/6/5
f 715/6/5 712/6/5 711/6/5
f 716/6/5 712/6/5 715/6/5
f 717/6/5 715/6/5 714/6/5
f 718/6/5 715/6/5 717/6/5
f 727/6/5 720/6/5 719/6/5
f 728/6/5 720/6/5 727/6/5
f 729/5/5 724/5/5 723/5/5
f 730/5/5 724/5/5 729/5/5
f 731/6/5 726/6/5 725/6/5
f 732/6/5 726/6/5 731/6/5
f 733/5/5 722/5/5 721/5/5
f 734/5/5 722/5/5 733/5/5
f 739/6/5 736/6/5 735/6/5
f 740/6/5 736/6/5 739/6/5
f 741/6/5 738/6/5 737/6/5
f 742/6/5 738/6/5 741/6/5
f 745/6/5 744/6/5 743/6/5
f 746/6/5 744/6/5 745/6/5
f 747/6/6 748/6/6 751/6/6
f 749/6/6 750/6/6 752/6/6
f 747/6/6 751/6/6 753/6/6
f 751/6/6 752/6/6 753/6/6
f 752/6/6 750/6/6 754/6/6
f 753/6/6 752/6/6 754/6/6
f 755/6/6 756/6/6 759/6/6
f 759/6/6 756/6/6 760/6/6
f 757/6/6 758/6/6 761/6/6
f 761/6/6 758/6/6 762/6/6
f 763/6/6 764/6/6 767/6/6
f 765/6/6 766/6/6 768/6/6
f 763/6/6 767/6/6 769/6/6
f 767/6/6 768/6/6 769/6/6
f 768/6/6 766/6/6 770/6/6
f 769/6/6 768/6/6 770/6/6
f 771/6/6 772/6/6 777/6/6
f 777/6/6 772/6/6 778/6/6
f 773/6/6 774/6/6 779/6/6
f 779/6/6 774/6/6 780/6/6
f 775/6/6 776/6/6 781/6/6
f 781/6/6 776/6/6 782/6/6
f 771/6/6 777/6/6 784/6/6
f 782/6/6 776/6/6 785/6/6
f 783/6/6 784/6/6 787/6/6
f 787/6/6 784/6/6 788/6/6
f 785/6/6 786/6/6 789/6/6
f 789/6/6 786/6/6 790/6/6
f 788/6/6 784/6/6 791/6/6
f 784/6/6 777/6/6 792/6/6
f 791/6/6 784/6/6 792/6/6
f 782/6/6 785/6/6 793/6/6
f 785/6/6 789/6/6 793/6/6
f 793/6/6 789/6/6 794/6/6
f 795/6/6 796/6/6 799/6/6
f 799/6/6 796/6/6 800/6/6
f 797/6/6 798/6/6 801/6/6
f 801/6/6 798/6/6 802/6/6
f 803/6/6 804/6/6 807/6/6
f 805/6/6 806/6/6 807/6/6
f 804/6/6 805/6/6 807/6/6
f 807/6/6 806/6/6 808/6/6
f 811/5/6 812/5/6 813/5/6
f 813/5/6 812/5/6 814/5/6
f 814/5/6 812/5/6 815/5/6
f 809/5/6 810/5/6 816/5/6
f 816/5/6 810/5/6 817/5/6
f 817/5/6 810/5/6 818/5/6
f 819/5/6 820/5/6 823/5/6
f 823/5/6 820/5/6 824/5/6
f 821/5/6 822/5/6 825/5/6
f 825/5/6 822/5/6 826/5/6
f 827/6/6 828/6/6 829/6/6
f 829/6/6 828/6/6 830/6/6
f 831/6/6 832/6/6 835/6/6
f 833/6/6 834/6/6 836/6/6
f 831/6/6 835/6/6 837/6/6
f 835/6/6 836/6/6 837/6/6
f 837/6/6 836/6/6 838/6/6
f 838/6/6 836/6/6 839/6/6
f 836/6/6 834/6/6 840/6/6
f 839/6/6 836/6/6 840/6/6
f 831/6/6 837/6/6 841/6/6
f 838/6/6 839/6/6 842/6/6
f 842/6/6 839/6/6 843/6/6
f 840/6/6 834/6/6 844/6/6
f 831/6/6 841/6/6 845/6/6
f 843/6/6 844/6/6 845/6/6
f 842/6/6 843/6/6 845/6/6
f 841/6/6 842/6/6 845/6/6
f 844/6/6 834/6/6 846/6/6
f 845/6/6 844/6/6 846/6/6
f 847/6/6 848/6/6 851/6/6
f 849/6/6 850/6/6 852/6/6
f 847/6/6 851/6/6 853/6/6
f 851/6/6 852/6/6 853/6/6
f 852/6/6 850/6/6 854/6/6
f 853/6/6 852/6/6 854/6/6
f 855/5/6 856/5/6 859/5/6
f 859/5/6 856/5/6 860/5/6
f 857/5/6 858/5/6 861/5/6
f 861/5/6 858/5/6 862/5/6
f 863/6/6 864/6/6 865/6/6
f 865/6/6 864/6/6 866/6/6
f 867/5/6 868/5/6 871/5/6
f 871/5/6 868/5/6 872/5/6
f 869/5/6 870/5/6 873/5/6
f 873/5/6 870/5/6 874/5/6
