# MagicaVoxel @ ephtracy

# material
mtllib FireWizard.mtl
usemtl palette

# normals
vn -1 0 0
vn 1 0 0
vn 0 0 1
vn 0 0 -1
vn 0 -1 0
vn 0 1 0

# texcoords
vt 0.0214844 0.5
vt 0.0292969 0.5
vt 0.373047 0.5
vt 0.841797 0.5
vt 0.845703 0.5
vt 0.958984 0.5
vt 0.962891 0.5
vt 0.982422 0.5
vt 0.994141 0.5

# verts
v -7.5 15 6
v -7.5 15 -10
v -7.5 16 6
v -7.5 16 -10
v -6.5 3 1
v -6.5 3 -3
v -6.5 3 -5
v -6.5 4 -3
v -6.5 4 -5
v -6.5 6 1
v -6.5 6 -3
v -6.5 7 -3
v -6.5 7 -5
v -5.5 9 2
v -5.5 9 -7
v -5.5 14 2
v -5.5 14 -7
v -5.5 16 4
v -5.5 16 -9
v -5.5 18 4
v -5.5 18 -9
v -4.5 0 1
v -4.5 0 -8
v -4.5 1 2
v -4.5 1 1
v -4.5 1 -7
v -4.5 1 -8
v -4.5 2 -6
v -4.5 2 -7
v -4.5 3 1
v -4.5 3 -0
v -4.5 3 -3
v -4.5 3 -5
v -4.5 4 -5
v -4.5 5 2
v -4.5 5 1
v -4.5 5 -5
v -4.5 5 -6
v -4.5 6 2
v -4.5 6 1
v -4.5 6 -3
v -4.5 6 -5
v -4.5 6 -6
v -4.5 7 3
v -4.5 7 2
v -4.5 7 -3
v -4.5 7 -5
v -4.5 9 2
v -4.5 9 -6
v -4.5 9 -7
v -4.5 9 -8
v -4.5 14 2
v -4.5 14 -6
v -4.5 14 -7
v -4.5 14 -8
v -4.5 15 3
v -4.5 15 -6
v -3.5 7 4
v -3.5 7 3
v -3.5 7 -6
v -3.5 7 -7
v -3.5 7 -8
v -3.5 8 4
v -3.5 8 3
v -3.5 9 -6
v -3.5 9 -7
v -3.5 9 -8
v -3.5 12 4
v -3.5 12 3
v -3.5 14 4
v -3.5 14 3
v -3.5 14 -6
v -3.5 14 -7
v -3.5 15 -6
v -3.5 15 -7
v -3.5 18 2
v -3.5 18 -7
v -3.5 19 2
v -3.5 19 -7
v -2.5 6 5
v -2.5 6 2
v -2.5 7 5
v -2.5 7 4
v -2.5 7 3
v -2.5 7 2
v -2.5 19 1
v -2.5 19 -6
v -2.5 22 1
v -2.5 22 -6
v -1.5 12 4
v -1.5 12 3
v -1.5 13 4
v -1.5 13 3
v -1.5 22 -0
v -1.5 22 -6
v -1.5 23 -8
v -1.5 23 -9
v -1.5 24 -6
v -1.5 24 -8
v -1.5 25 -0
v -1.5 25 -9
v 0.5 12 4
v 0.5 12 3
v 0.5 13 4
v 0.5 13 3
v 0.5 14 4
v 0.5 14 3
v 2.5 12 4
v 2.5 12 3
v 2.5 13 4
v 2.5 13 3
v 4.5 0 7
v 4.5 0 6
v 4.5 5 6
v 4.5 5 2
v 4.5 6 2
v 4.5 7 6
v 4.5 7 3
v 4.5 7 2
v 4.5 15 6
v 4.5 16 6
v 4.5 17 6
v 4.5 17 4
v 4.5 18 10
v 4.5 18 9
v 4.5 18 7
v 4.5 18 5
v 4.5 18 4
v 4.5 21 9
v 4.5 21 5
v 4.5 22 10
v 4.5 22 4
v -2.5 12 4
v -2.5 12 3
v -2.5 13 4
v -2.5 13 3
v -0.5 12 4
v -0.5 12 3
v -0.5 13 4
v -0.5 13 3
v -0.5 14 4
v -0.5 14 3
v 1.5 12 4
v 1.5 12 3
v 1.5 13 4
v 1.5 13 3
v 1.5 22 -0
v 1.5 22 -6
v 1.5 23 -8
v 1.5 23 -9
v 1.5 24 -6
v 1.5 24 -8
v 1.5 25 -0
v 1.5 25 -9
v 2.5 6 5
v 2.5 6 2
v 2.5 7 5
v 2.5 7 4
v 2.5 7 3
v 2.5 7 2
v 2.5 19 1
v 2.5 19 -6
v 2.5 22 1
v 2.5 22 -6
v 3.5 7 4
v 3.5 7 3
v 3.5 7 -7
v 3.5 7 -8
v 3.5 8 4
v 3.5 8 3
v 3.5 9 -7
v 3.5 9 -8
v 3.5 12 4
v 3.5 12 3
v 3.5 14 4
v 3.5 14 3
v 3.5 18 2
v 3.5 18 -7
v 3.5 19 2
v 3.5 19 -7
v 4.5 0 1
v 4.5 0 -8
v 4.5 1 2
v 4.5 1 1
v 4.5 1 -7
v 4.5 1 -8
v 4.5 2 -6
v 4.5 2 -7
v 4.5 5 2
v 4.5 5 -1
v 4.5 5 -6
v 4.5 6 -1
v 4.5 6 -6
v 4.5 7 3
v 4.5 7 2
v 4.5 7 -1
v 4.5 7 -6
v 4.5 7 -7
v 4.5 9 2
v 4.5 9 -6
v 4.5 9 -7
v 4.5 9 -8
v 4.5 14 2
v 4.5 14 -7
v 4.5 14 -8
v 4.5 15 3
v 4.5 15 -7
v 5.5 0 7
v 5.5 0 6
v 5.5 5 7
v 5.5 5 6
v 5.5 7 7
v 5.5 7 6
v 5.5 9 2
v 5.5 9 -7
v 5.5 14 2
v 5.5 14 -7
v 5.5 15 6
v 5.5 16 6
v 5.5 16 4
v 5.5 16 -9
v 5.5 17 6
v 5.5 17 4
v 5.5 18 10
v 5.5 18 9
v 5.5 18 7
v 5.5 18 5
v 5.5 18 4
v 5.5 18 -9
v 5.5 21 9
v 5.5 21 5
v 5.5 22 10
v 5.5 22 4
v 6.5 5 7
v 6.5 5 6
v 6.5 5 -1
v 6.5 7 7
v 6.5 7 6
v 6.5 7 -1
v 7.5 15 6
v 7.5 15 -10
v 7.5 16 6
v 7.5 16 -10
v 4.5 18 10
v 4.5 22 10
v 5.5 18 10
v 5.5 22 10
v 4.5 0 7
v 4.5 18 7
v 5.5 0 7
v 5.5 5 7
v 5.5 7 7
v 5.5 18 7
v 6.5 5 7
v 6.5 7 7
v -7.5 15 6
v -7.5 16 6
v 4.5 15 6
v 4.5 16 6
v 5.5 15 6
v 5.5 16 6
v 7.5 15 6
v 7.5 16 6
v -2.5 6 5
v -2.5 7 5
v 2.5 6 5
v 2.5 7 5
v 4.5 18 5
v 4.5 21 5
v 5.5 18 5
v 5.5 21 5
v -5.5 16 4
v -5.5 18 4
v -3.5 7 4
v -3.5 8 4
v -3.5 12 4
v -3.5 14 4
v -2.5 7 4
v -2.5 12 4
v -2.5 13 4
v -1.5 12 4
v -1.5 13 4
v -0.5 12 4
v -0.5 13 4
v -0.5 14 4
v 0.5 12 4
v 0.5 13 4
v 0.5 14 4
v 1.5 12 4
v 1.5 13 4
v 2.5 7 4
v 2.5 12 4
v 2.5 13 4
v 3.5 7 4
v 3.5 8 4
v 3.5 12 4
v 3.5 14 4
v 4.5 17 4
v 4.5 18 4
v 5.5 16 4
v 5.5 17 4
v -4.5 7 3
v -4.5 15 3
v -3.5 7 3
v -3.5 8 3
v -3.5 10 3
v -3.5 12 3
v -3.5 14 3
v -2.5 9 3
v -2.5 10 3
v -2.5 12 3
v -2.5 13 3
v -2.5 14 3
v -2.5 15 3
v -1.5 12 3
v -1.5 13 3
v -0.5 12 3
v -0.5 13 3
v -0.5 14 3
v 0.5 12 3
v 0.5 13 3
v 0.5 14 3
v 1.5 12 3
v 1.5 13 3
v 2.5 9 3
v 2.5 10 3
v 2.5 12 3
v 2.5 13 3
v 2.5 14 3
v 2.5 15 3
v 3.5 7 3
v 3.5 8 3
v 3.5 10 3
v 3.5 12 3
v 3.5 14 3
v 4.5 7 3
v 4.5 15 3
v -5.5 9 2
v -5.5 14 2
v -4.5 1 2
v -4.5 5 2
v -4.5 6 2
v -4.5 7 2
v -4.5 9 2
v -4.5 14 2
v -3.5 7 2
v -3.5 18 2
v -3.5 19 2
v -2.5 5 2
v -2.5 6 2
v -2.5 7 2
v 2.5 6 2
v 2.5 7 2
v 3.5 5 2
v 3.5 6 2
v 3.5 7 2
v 3.5 18 2
v 3.5 19 2
v 4.5 1 2
v 4.5 5 2
v 4.5 6 2
v 4.5 7 2
v 4.5 9 2
v 4.5 14 2
v 5.5 9 2
v 5.5 14 2
v -6.5 3 1
v -6.5 6 1
v -5.5 3 1
v -5.5 5 1
v -4.5 0 1
v -4.5 1 1
v -4.5 3 1
v -4.5 5 1
v -4.5 6 1
v -2.5 19 1
v -2.5 22 1
v 2.5 19 1
v 2.5 22 1
v 4.5 0 1
v 4.5 1 1
v -1.5 22 -0
v -1.5 25 -0
v 1.5 22 -0
v 1.5 25 -0
v -6.5 6 -3
v -6.5 7 -3
v -4.5 6 -3
v -4.5 7 -3
v -1.5 23 -8
v -1.5 24 -8
v 1.5 23 -8
v 1.5 24 -8
v 4.5 18 9
v 4.5 21 9
v 5.5 18 9
v 5.5 21 9
v 4.5 0 6
v 4.5 5 6
v 4.5 7 6
v 4.5 15 6
v 4.5 16 6
v 4.5 17 6
v 5.5 0 6
v 5.5 5 6
v 5.5 7 6
v 5.5 15 6
v 5.5 16 6
v 5.5 17 6
v 4.5 18 4
v 4.5 22 4
v 5.5 18 4
v 5.5 22 4
v 4.5 5 -1
v 4.5 6 -1
v 4.5 7 -1
v 6.5 5 -1
v 6.5 7 -1
v -6.5 3 -5
v -6.5 4 -5
v -6.5 7 -5
v -4.5 3 -5
v -4.5 4 -5
v -4.5 5 -5
v -4.5 6 -5
v -4.5 7 -5
v -4.5 2 -6
v -4.5 5 -6
v -4.5 6 -6
v -4.5 9 -6
v -4.5 14 -6
v -4.5 15 -6
v -3.5 7 -6
v -3.5 9 -6
v -3.5 14 -6
v -3.5 15 -6
v -2.5 19 -6
v -2.5 22 -6
v -1.5 22 -6
v -1.5 24 -6
v -0.5 7 -6
v 1.5 22 -6
v 1.5 24 -6
v 2.5 19 -6
v 2.5 22 -6
v 4.5 2 -6
v 4.5 5 -6
v 4.5 6 -6
v 4.5 7 -6
v -5.5 9 -7
v -5.5 14 -7
v -4.5 1 -7
v -4.5 2 -7
v -4.5 9 -7
v -4.5 14 -7
v -3.5 14 -7
v -3.5 15 -7
v -3.5 18 -7
v -3.5 19 -7
v 3.5 7 -7
v 3.5 9 -7
v 3.5 18 -7
v 3.5 19 -7
v 4.5 1 -7
v 4.5 2 -7
v 4.5 7 -7
v 4.5 9 -7
v 4.5 14 -7
v 4.5 15 -7
v 5.5 9 -7
v 5.5 14 -7
v -4.5 0 -8
v -4.5 1 -8
v -4.5 9 -8
v -4.5 14 -8
v -3.5 7 -8
v -3.5 9 -8
v 3.5 7 -8
v 3.5 9 -8
v 4.5 0 -8
v 4.5 1 -8
v 4.5 9 -8
v 4.5 14 -8
v -5.5 16 -9
v -5.5 18 -9
v -1.5 23 -9
v -1.5 25 -9
v 1.5 23 -9
v 1.5 25 -9
v 5.5 16 -9
v 5.5 18 -9
v -7.5 15 -10
v -7.5 16 -10
v 7.5 15 -10
v 7.5 16 -10
v 4.5 0 7
v 5.5 0 7
v 4.5 0 6
v 5.5 0 6
v -4.5 0 1
v 4.5 0 1
v -4.5 0 -8
v 4.5 0 -8
v -4.5 1 2
v 4.5 1 2
v -4.5 1 1
v 4.5 1 1
v -6.5 3 1
v -5.5 3 1
v -4.5 3 1
v -5.5 3 -0
v -4.5 3 -0
v -6.5 3 -3
v -4.5 3 -3
v -6.5 3 -5
v -4.5 3 -5
v 5.5 5 7
v 6.5 5 7
v 4.5 5 6
v 5.5 5 6
v 6.5 5 6
v 4.5 5 2
v 4.5 5 -1
v 6.5 5 -1
v -2.5 6 5
v 2.5 6 5
v -2.5 6 2
v 2.5 6 2
v -3.5 7 4
v -2.5 7 4
v 2.5 7 4
v 3.5 7 4
v -4.5 7 3
v -3.5 7 3
v -2.5 7 3
v 2.5 7 3
v 3.5 7 3
v 4.5 7 3
v -4.5 7 2
v -3.5 7 2
v -2.5 7 2
v 2.5 7 2
v 3.5 7 2
v 4.5 7 2
v -3.5 7 -6
v -0.5 7 -6
v 4.5 7 -6
v -3.5 7 -7
v -0.5 7 -7
v 3.5 7 -7
v 4.5 7 -7
v -3.5 7 -8
v 3.5 7 -8
v -5.5 9 2
v -4.5 9 2
v 4.5 9 2
v 5.5 9 2
v -4.5 9 -6
v -3.5 9 -6
v 4.5 9 -6
v -5.5 9 -7
v -4.5 9 -7
v -3.5 9 -7
v 3.5 9 -7
v 4.5 9 -7
v 5.5 9 -7
v -4.5 9 -8
v -3.5 9 -8
v 3.5 9 -8
v 4.5 9 -8
v -3.5 12 4
v -2.5 12 4
v -1.5 12 4
v -0.5 12 4
v 0.5 12 4
v 1.5 12 4
v 2.5 12 4
v 3.5 12 4
v -3.5 12 3
v -2.5 12 3
v -1.5 12 3
v -0.5 12 3
v 0.5 12 3
v 1.5 12 3
v 2.5 12 3
v 3.5 12 3
v -2.5 13 4
v -1.5 13 4
v 1.5 13 4
v 2.5 13 4
v -2.5 13 3
v -1.5 13 3
v 1.5 13 3
v 2.5 13 3
v -7.5 15 6
v 4.5 15 6
v 5.5 15 6
v 7.5 15 6
v -4.5 15 3
v -2.5 15 3
v 2.5 15 3
v 4.5 15 3
v -4.5 15 -6
v -3.5 15 -6
v -3.5 15 -7
v 4.5 15 -7
v -7.5 15 -10
v 7.5 15 -10
v 4.5 17 6
v 5.5 17 6
v 4.5 17 4
v 5.5 17 4
v 4.5 18 10
v 5.5 18 10
v 4.5 18 9
v 5.5 18 9
v 4.5 21 9
v 5.5 21 9
v 4.5 21 5
v 5.5 21 5
v -1.5 23 -8
v 1.5 23 -8
v -1.5 23 -9
v 1.5 23 -9
v -1.5 24 -6
v 1.5 24 -6
v -1.5 24 -8
v 1.5 24 -8
v -4.5 1 -7
v 4.5 1 -7
v -4.5 1 -8
v 4.5 1 -8
v -4.5 2 -6
v 4.5 2 -6
v -4.5 2 -7
v 4.5 2 -7
v -6.5 6 1
v -4.5 6 1
v -6.5 6 -3
v -4.5 6 -3
v 5.5 7 7
v 6.5 7 7
v 4.5 7 6
v 5.5 7 6
v 6.5 7 6
v -2.5 7 5
v 2.5 7 5
v -2.5 7 4
v 2.5 7 4
v 4.5 7 3
v 4.5 7 2
v 4.5 7 -1
v 6.5 7 -1
v -6.5 7 -3
v -4.5 7 -3
v -6.5 7 -5
v -4.5 7 -5
v -3.5 8 4
v 3.5 8 4
v -3.5 8 3
v 3.5 8 3
v -3.5 14 4
v -0.5 14 4
v 0.5 14 4
v 3.5 14 4
v -3.5 14 3
v -2.5 14 3
v -0.5 14 3
v 0.5 14 3
v 2.5 14 3
v 3.5 14 3
v -5.5 14 2
v -4.5 14 2
v 4.5 14 2
v 5.5 14 2
v -4.5 14 -6
v -3.5 14 -6
v -5.5 14 -7
v -4.5 14 -7
v -3.5 14 -7
v 4.5 14 -7
v 5.5 14 -7
v -4.5 14 -8
v 4.5 14 -8
v -7.5 16 6
v 4.5 16 6
v 5.5 16 6
v 7.5 16 6
v -5.5 16 4
v 5.5 16 4
v -5.5 16 -9
v 5.5 16 -9
v -7.5 16 -10
v 7.5 16 -10
v 4.5 18 7
v 5.5 18 7
v 4.5 18 5
v 5.5 18 5
v -5.5 18 4
v 4.5 18 4
v 5.5 18 4
v -3.5 18 2
v 3.5 18 2
v -3.5 18 -7
v 3.5 18 -7
v -5.5 18 -9
v 5.5 18 -9
v -3.5 19 2
v 3.5 19 2
v -2.5 19 1
v 2.5 19 1
v -2.5 19 -6
v 2.5 19 -6
v -3.5 19 -7
v 3.5 19 -7
v 4.5 22 10
v 5.5 22 10
v 4.5 22 4
v 5.5 22 4
v -2.5 22 1
v 2.5 22 1
v -1.5 22 -0
v 1.5 22 -0
v -2.5 22 -6
v -1.5 22 -6
v 1.5 22 -6
v 2.5 22 -6
v -1.5 25 -0
v 1.5 25 -0
v -1.5 25 -9
v 1.5 25 -9

# faces
f 3/5/1 2/5/1 1/5/1
f 4/5/1 2/5/1 3/5/1
f 8/8/1 6/8/1 5/8/1
f 8/2/1 7/2/1 6/2/1
f 9/2/1 7/2/1 8/2/1
f 10/8/1 8/8/1 5/8/1
f 11/5/1 9/5/1 8/5/1
f 11/8/1 8/8/1 10/8/1
f 12/5/1 9/5/1 11/5/1
f 13/5/1 9/5/1 12/5/1
f 16/6/1 15/6/1 14/6/1
f 17/6/1 15/6/1 16/6/1
f 20/5/1 19/5/1 18/5/1
f 21/5/1 19/5/1 20/5/1
f 25/5/1 23/5/1 22/5/1
f 26/5/1 23/5/1 25/5/1
f 27/5/1 23/5/1 26/5/1
f 28/5/1 25/5/1 24/5/1
f 28/5/1 26/5/1 25/5/1
f 29/5/1 26/5/1 28/5/1
f 30/5/1 28/5/1 24/5/1
f 31/5/1 28/5/1 30/5/1
f 32/5/1 28/5/1 31/5/1
f 33/5/1 28/5/1 32/5/1
f 34/5/1 28/5/1 33/5/1
f 35/5/1 30/5/1 24/5/1
f 36/5/1 30/5/1 35/5/1
f 37/5/1 28/5/1 34/5/1
f 38/5/1 28/5/1 37/5/1
f 39/1/1 36/1/1 35/1/1
f 40/1/1 36/1/1 39/1/1
f 42/1/1 38/1/1 37/1/1
f 43/1/1 38/1/1 42/1/1
f 45/5/1 41/5/1 40/5/1
f 45/5/1 40/5/1 39/5/1
f 46/5/1 41/5/1 45/5/1
f 47/5/1 43/5/1 42/5/1
f 48/5/1 46/5/1 45/5/1
f 48/5/1 47/5/1 46/5/1
f 48/6/1 45/6/1 44/6/1
f 49/5/1 43/5/1 47/5/1
f 49/5/1 47/5/1 48/5/1
f 52/6/1 48/6/1 44/6/1
f 54/6/1 51/6/1 50/6/1
f 55/6/1 51/6/1 54/6/1
f 56/6/1 53/6/1 52/6/1
f 56/6/1 52/6/1 44/6/1
f 57/6/1 53/6/1 56/6/1
f 63/6/1 59/6/1 58/6/1
f 64/6/1 59/6/1 63/6/1
f 65/7/1 61/7/1 60/7/1
f 66/6/1 62/6/1 61/6/1
f 66/7/1 61/7/1 65/7/1
f 67/6/1 62/6/1 66/6/1
f 70/6/1 69/6/1 68/6/1
f 71/6/1 69/6/1 70/6/1
f 74/6/1 73/6/1 72/6/1
f 75/6/1 73/6/1 74/6/1
f 78/1/1 77/1/1 76/1/1
f 79/1/1 77/1/1 78/1/1
f 82/6/1 81/6/1 80/6/1
f 83/6/1 81/6/1 82/6/1
f 84/6/1 81/6/1 83/6/1
f 85/6/1 81/6/1 84/6/1
f 88/4/1 87/4/1 86/4/1
f 89/4/1 87/4/1 88/4/1
f 92/9/1 91/9/1 90/9/1
f 93/9/1 91/9/1 92/9/1
f 98/4/1 95/4/1 94/4/1
f 99/4/1 97/4/1 96/4/1
f 100/4/1 98/4/1 94/4/1
f 100/4/1 99/4/1 98/4/1
f 101/4/1 97/4/1 99/4/1
f 101/4/1 99/4/1 100/4/1
f 104/9/1 103/9/1 102/9/1
f 105/9/1 103/9/1 104/9/1
f 106/6/1 105/6/1 104/6/1
f 107/6/1 105/6/1 106/6/1
f 110/6/1 109/6/1 108/6/1
f 111/6/1 109/6/1 110/6/1
f 114/3/1 113/3/1 112/3/1
f 116/5/1 115/5/1 114/5/1
f 117/3/1 114/3/1 112/3/1
f 117/5/1 116/5/1 114/5/1
f 118/5/1 116/5/1 117/5/1
f 119/5/1 116/5/1 118/5/1
f 120/3/1 117/3/1 112/3/1
f 121/3/1 120/3/1 112/3/1
f 122/3/1 121/3/1 112/3/1
f 126/3/1 122/3/1 112/3/1
f 126/3/1 123/3/1 122/3/1
f 127/3/1 123/3/1 126/3/1
f 128/3/1 123/3/1 127/3/1
f 129/3/1 125/3/1 124/3/1
f 130/3/1 128/3/1 127/3/1
f 131/3/1 129/3/1 124/3/1
f 131/3/1 130/3/1 129/3/1
f 132/3/1 128/3/1 130/3/1
f 132/3/1 130/3/1 131/3/1
f 133/6/2 134/6/2 135/6/2
f 135/6/2 134/6/2 136/6/2
f 137/9/2 138/9/2 139/9/2
f 139/9/2 138/9/2 140/9/2
f 139/6/2 140/6/2 141/6/2
f 141/6/2 140/6/2 142/6/2
f 143/9/2 144/9/2 145/9/2
f 145/9/2 144/9/2 146/9/2
f 147/4/2 148/4/2 151/4/2
f 149/4/2 150/4/2 152/4/2
f 147/4/2 151/4/2 153/4/2
f 151/4/2 152/4/2 153/4/2
f 152/4/2 150/4/2 154/4/2
f 153/4/2 152/4/2 154/4/2
f 155/6/2 156/6/2 157/6/2
f 157/6/2 156/6/2 158/6/2
f 158/6/2 156/6/2 159/6/2
f 159/6/2 156/6/2 160/6/2
f 161/4/2 162/4/2 163/4/2
f 163/4/2 162/4/2 164/4/2
f 165/6/2 166/6/2 169/6/2
f 169/6/2 166/6/2 170/6/2
f 167/6/2 168/6/2 171/6/2
f 171/6/2 168/6/2 172/6/2
f 173/6/2 174/6/2 175/6/2
f 175/6/2 174/6/2 176/6/2
f 177/1/2 178/1/2 179/1/2
f 179/1/2 178/1/2 180/1/2
f 181/5/2 182/5/2 184/5/2
f 184/5/2 182/5/2 185/5/2
f 185/5/2 182/5/2 186/5/2
f 183/5/2 184/5/2 187/5/2
f 184/5/2 185/5/2 187/5/2
f 187/5/2 185/5/2 188/5/2
f 183/5/2 187/5/2 189/5/2
f 189/5/2 187/5/2 190/5/2
f 190/5/2 187/5/2 191/5/2
f 190/1/2 191/1/2 192/1/2
f 192/1/2 191/1/2 193/1/2
f 192/5/2 193/5/2 196/5/2
f 196/5/2 193/5/2 197/5/2
f 196/5/2 197/5/2 199/5/2
f 194/6/2 195/6/2 199/6/2
f 195/5/2 196/5/2 199/5/2
f 197/6/2 198/6/2 200/6/2
f 199/5/2 197/5/2 200/5/2
f 200/6/2 198/6/2 201/6/2
f 194/6/2 199/6/2 203/6/2
f 201/6/2 202/6/2 204/6/2
f 204/6/2 202/6/2 205/6/2
f 194/6/2 203/6/2 206/6/2
f 203/6/2 204/6/2 206/6/2
f 206/6/2 204/6/2 207/6/2
f 208/3/2 209/3/2 210/3/2
f 210/3/2 209/3/2 211/3/2
f 214/6/2 215/6/2 216/6/2
f 216/6/2 215/6/2 217/6/2
f 212/3/2 213/3/2 218/3/2
f 212/3/2 218/3/2 219/3/2
f 212/3/2 219/3/2 222/3/2
f 220/5/2 221/5/2 223/5/2
f 212/3/2 222/3/2 226/3/2
f 222/3/2 223/3/2 226/3/2
f 226/3/2 223/3/2 227/3/2
f 223/5/2 221/5/2 228/5/2
f 227/3/2 223/3/2 228/3/2
f 228/5/2 221/5/2 229/5/2
f 224/3/2 225/3/2 230/3/2
f 227/3/2 228/3/2 231/3/2
f 224/3/2 230/3/2 232/3/2
f 230/3/2 231/3/2 232/3/2
f 231/3/2 228/3/2 233/3/2
f 232/3/2 231/3/2 233/3/2
f 234/2/2 235/2/2 237/2/2
f 235/5/2 236/5/2 238/5/2
f 237/2/2 235/2/2 238/2/2
f 238/5/2 236/5/2 239/5/2
f 240/5/2 241/5/2 242/5/2
f 242/5/2 241/5/2 243/5/2
f 246/3/3 245/3/3 244/3/3
f 247/3/3 245/3/3 246/3/3
f 250/3/3 249/3/3 248/3/3
f 251/3/3 249/3/3 250/3/3
f 252/3/3 249/3/3 251/3/3
f 253/3/3 249/3/3 252/3/3
f 254/2/3 252/2/3 251/2/3
f 255/2/3 252/2/3 254/2/3
f 258/5/3 257/5/3 256/5/3
f 259/5/3 257/5/3 258/5/3
f 262/5/3 261/5/3 260/5/3
f 263/5/3 261/5/3 262/5/3
f 266/6/3 265/6/3 264/6/3
f 267/6/3 265/6/3 266/6/3
f 270/3/3 269/3/3 268/3/3
f 271/3/3 269/3/3 270/3/3
f 278/6/3 275/6/3 274/6/3
f 279/6/3 277/6/3 276/6/3
f 280/6/3 277/6/3 279/6/3
f 282/6/3 277/6/3 280/6/3
f 283/9/3 282/9/3 281/9/3
f 284/6/3 277/6/3 282/6/3
f 284/9/3 282/9/3 283/9/3
f 285/6/3 277/6/3 284/6/3
f 289/9/3 287/9/3 286/9/3
f 290/6/3 288/6/3 287/6/3
f 290/9/3 287/9/3 289/9/3
f 291/6/3 275/6/3 278/6/3
f 293/6/3 288/6/3 290/6/3
f 294/6/3 275/6/3 291/6/3
f 295/6/3 275/6/3 294/6/3
f 296/6/3 293/6/3 292/6/3
f 297/6/3 288/6/3 293/6/3
f 297/6/3 293/6/3 296/6/3
f 298/5/3 273/5/3 272/5/3
f 299/5/3 273/5/3 298/5/3
f 300/5/3 298/5/3 272/5/3
f 301/5/3 298/5/3 300/5/3
f 304/6/3 303/6/3 302/6/3
f 305/6/3 303/6/3 304/6/3
f 306/6/3 303/6/3 305/6/3
f 307/6/3 303/6/3 306/6/3
f 308/6/3 303/6/3 307/6/3
f 309/6/3 306/6/3 305/6/3
f 310/2/3 307/2/3 306/2/3
f 310/6/3 306/6/3 309/6/3
f 311/2/3 307/2/3 310/2/3
f 313/6/3 303/6/3 308/6/3
f 314/6/3 303/6/3 313/6/3
f 315/2/3 312/2/3 311/2/3
f 315/2/3 310/2/3 309/2/3
f 315/2/3 311/2/3 310/2/3
f 316/2/3 312/2/3 315/2/3
f 317/2/3 315/2/3 309/2/3
f 319/2/3 314/2/3 313/2/3
f 320/2/3 318/2/3 317/2/3
f 320/2/3 319/2/3 318/2/3
f 320/2/3 317/2/3 309/2/3
f 321/2/3 319/2/3 320/2/3
f 322/2/3 314/2/3 319/2/3
f 322/2/3 319/2/3 321/2/3
f 323/2/3 320/2/3 309/2/3
f 325/6/3 309/6/3 305/6/3
f 325/2/3 324/2/3 323/2/3
f 325/2/3 323/2/3 309/2/3
f 326/2/3 324/2/3 325/2/3
f 327/2/3 324/2/3 326/2/3
f 328/2/3 324/2/3 327/2/3
f 329/2/3 314/2/3 322/2/3
f 330/2/3 314/2/3 329/2/3
f 332/6/3 325/6/3 305/6/3
f 332/6/3 326/6/3 325/6/3
f 333/2/3 327/2/3 326/2/3
f 333/6/3 326/6/3 332/6/3
f 334/2/3 327/2/3 333/2/3
f 335/6/3 330/6/3 329/6/3
f 336/6/3 334/6/3 333/6/3
f 336/6/3 335/6/3 334/6/3
f 336/6/3 332/6/3 331/6/3
f 336/6/3 333/6/3 332/6/3
f 337/6/3 330/6/3 335/6/3
f 337/6/3 335/6/3 336/6/3
f 344/6/3 339/6/3 338/6/3
f 345/6/3 339/6/3 344/6/3
f 346/5/3 343/5/3 342/5/3
f 349/5/3 341/5/3 340/5/3
f 349/1/3 342/1/3 341/1/3
f 350/5/3 346/5/3 342/5/3
f 350/1/3 342/1/3 349/1/3
f 351/5/3 346/5/3 350/5/3
f 352/6/3 350/6/3 349/6/3
f 354/5/3 349/5/3 340/5/3
f 354/6/3 353/6/3 352/6/3
f 354/6/3 352/6/3 349/6/3
f 355/6/3 353/6/3 354/6/3
f 356/6/3 353/6/3 355/6/3
f 357/1/3 348/1/3 347/1/3
f 358/1/3 348/1/3 357/1/3
f 359/5/3 354/5/3 340/5/3
f 360/1/3 355/1/3 354/1/3
f 360/5/3 354/5/3 359/5/3
f 361/5/3 356/5/3 355/5/3
f 361/1/3 355/1/3 360/1/3
f 362/5/3 356/5/3 361/5/3
f 365/6/3 364/6/3 363/6/3
f 366/6/3 364/6/3 365/6/3
f 369/8/3 368/8/3 367/8/3
f 370/8/3 368/8/3 369/8/3
f 373/7/3 370/7/3 369/7/3
f 374/8/3 368/8/3 370/8/3
f 374/7/3 370/7/3 373/7/3
f 375/8/3 368/8/3 374/8/3
f 378/4/3 377/4/3 376/4/3
f 379/4/3 377/4/3 378/4/3
f 380/5/3 372/5/3 371/5/3
f 381/5/3 372/5/3 380/5/3
f 384/4/3 383/4/3 382/4/3
f 385/4/3 383/4/3 384/4/3
f 388/5/3 387/5/3 386/5/3
f 389/5/3 387/5/3 388/5/3
f 392/4/3 391/4/3 390/4/3
f 393/4/3 391/4/3 392/4/3
f 394/3/4 395/3/4 396/3/4
f 396/3/4 395/3/4 397/3/4
f 398/3/4 399/3/4 404/3/4
f 404/3/4 399/3/4 405/3/4
f 400/3/4 401/3/4 406/3/4
f 406/3/4 401/3/4 407/3/4
f 402/3/4 403/3/4 408/3/4
f 408/3/4 403/3/4 409/3/4
f 410/3/4 411/3/4 412/3/4
f 412/3/4 411/3/4 413/3/4
f 414/5/4 415/5/4 417/5/4
f 415/5/4 416/5/4 417/5/4
f 417/5/4 416/5/4 418/5/4
f 419/2/4 420/2/4 422/2/4
f 420/5/4 421/5/4 423/5/4
f 422/2/4 420/2/4 423/2/4
f 423/5/4 421/5/4 424/5/4
f 424/5/4 421/5/4 425/5/4
f 425/5/4 421/5/4 426/5/4
f 429/5/4 430/5/4 433/5/4
f 433/5/4 430/5/4 434/5/4
f 431/6/4 432/6/4 435/6/4
f 435/6/4 432/6/4 436/6/4
f 437/4/4 438/4/4 439/4/4
f 429/5/4 433/5/4 441/5/4
f 439/4/4 440/4/4 442/4/4
f 437/4/4 439/4/4 442/4/4
f 442/4/4 440/4/4 443/4/4
f 437/4/4 442/4/4 444/4/4
f 444/4/4 442/4/4 445/4/4
f 427/5/4 428/5/4 446/5/4
f 428/1/4 429/1/4 447/1/4
f 446/5/4 428/5/4 447/5/4
f 429/5/4 441/5/4 448/5/4
f 447/1/4 429/1/4 448/1/4
f 448/5/4 441/5/4 449/5/4
f 450/6/4 451/6/4 454/6/4
f 454/6/4 451/6/4 455/6/4
f 458/1/4 459/1/4 462/1/4
f 462/1/4 459/1/4 463/1/4
f 452/5/4 453/5/4 464/5/4
f 464/5/4 453/5/4 465/5/4
f 460/6/4 461/6/4 466/6/4
f 466/6/4 461/6/4 467/6/4
f 456/6/4 457/6/4 468/6/4
f 468/6/4 457/6/4 469/6/4
f 467/6/4 468/6/4 470/6/4
f 470/6/4 468/6/4 471/6/4
f 474/6/4 475/6/4 477/6/4
f 476/6/4 477/6/4 478/6/4
f 477/6/4 475/6/4 479/6/4
f 478/6/4 477/6/4 479/6/4
f 472/5/4 473/5/4 480/5/4
f 480/5/4 473/5/4 481/5/4
f 479/6/4 475/6/4 482/6/4
f 482/6/4 475/6/4 483/6/4
f 486/4/4 487/4/4 488/4/4
f 488/4/4 487/4/4 489/4/4
f 484/5/4 485/5/4 490/5/4
f 490/5/4 485/5/4 491/5/4
f 492/5/4 493/5/4 494/5/4
f 494/5/4 493/5/4 495/5/4
f 498/3/5 497/3/5 496/3/5
f 499/3/5 497/3/5 498/3/5
f 502/5/5 501/5/5 500/5/5
f 503/5/5 501/5/5 502/5/5
f 506/5/5 505/5/5 504/5/5
f 507/5/5 505/5/5 506/5/5
f 511/8/5 509/8/5 508/8/5
f 511/7/5 510/7/5 509/7/5
f 512/7/5 510/7/5 511/7/5
f 513/8/5 511/8/5 508/8/5
f 513/8/5 512/8/5 511/8/5
f 514/8/5 512/8/5 513/8/5
f 515/2/5 514/2/5 513/2/5
f 516/2/5 514/2/5 515/2/5
f 520/2/5 518/2/5 517/2/5
f 521/2/5 518/2/5 520/2/5
f 522/5/5 520/5/5 519/5/5
f 522/5/5 521/5/5 520/5/5
f 523/5/5 521/5/5 522/5/5
f 524/5/5 521/5/5 523/5/5
f 527/6/5 526/6/5 525/6/5
f 528/6/5 526/6/5 527/6/5
f 534/6/5 530/6/5 529/6/5
f 535/6/5 530/6/5 534/6/5
f 536/6/5 532/6/5 531/6/5
f 537/6/5 532/6/5 536/6/5
f 539/6/5 534/6/5 533/6/5
f 540/7/5 535/7/5 534/7/5
f 540/6/5 534/6/5 539/6/5
f 541/7/5 535/7/5 540/7/5
f 542/7/5 537/7/5 536/7/5
f 543/6/5 538/6/5 537/6/5
f 543/7/5 537/7/5 542/7/5
f 544/6/5 538/6/5 543/6/5
f 548/7/5 546/7/5 545/7/5
f 549/6/5 547/6/5 546/6/5
f 549/7/5 546/7/5 548/7/5
f 550/6/5 547/6/5 549/6/5
f 551/6/5 547/6/5 550/6/5
f 552/6/5 549/6/5 548/6/5
f 552/6/5 550/6/5 549/6/5
f 553/6/5 550/6/5 552/6/5
f 558/6/5 555/6/5 554/6/5
f 560/6/5 557/6/5 556/6/5
f 561/6/5 558/6/5 554/6/5
f 562/7/5 559/7/5 558/7/5
f 562/6/5 558/6/5 561/6/5
f 563/7/5 559/7/5 562/7/5
f 565/6/5 557/6/5 560/6/5
f 566/6/5 557/6/5 565/6/5
f 567/6/5 563/6/5 562/6/5
f 568/6/5 563/6/5 567/6/5
f 569/6/5 565/6/5 564/6/5
f 570/6/5 565/6/5 569/6/5
f 579/6/5 572/6/5 571/6/5
f 580/6/5 572/6/5 579/6/5
f 581/9/5 574/9/5 573/9/5
f 582/9/5 574/9/5 581/9/5
f 583/9/5 576/9/5 575/9/5
f 584/9/5 576/9/5 583/9/5
f 585/6/5 578/6/5 577/6/5
f 586/6/5 578/6/5 585/6/5
f 591/6/5 588/6/5 587/6/5
f 592/6/5 588/6/5 591/6/5
f 593/6/5 590/6/5 589/6/5
f 594/6/5 590/6/5 593/6/5
f 599/5/5 596/5/5 595/5/5
f 599/5/5 598/5/5 597/5/5
f 599/5/5 597/5/5 596/5/5
f 600/5/5 598/5/5 599/5/5
f 601/5/5 598/5/5 600/5/5
f 602/5/5 598/5/5 601/5/5
f 603/5/5 599/5/5 595/5/5
f 605/5/5 604/5/5 603/5/5
f 606/5/5 598/5/5 602/5/5
f 607/5/5 605/5/5 603/5/5
f 607/5/5 606/5/5 605/5/5
f 607/5/5 603/5/5 595/5/5
f 608/5/5 598/5/5 606/5/5
f 608/5/5 606/5/5 607/5/5
f 611/3/5 610/3/5 609/3/5
f 612/3/5 610/3/5 611/3/5
f 615/3/5 614/3/5 613/3/5
f 616/3/5 614/3/5 615/3/5
f 619/3/5 618/3/5 617/3/5
f 620/3/5 618/3/5 619/3/5
f 623/4/5 622/4/5 621/4/5
f 624/4/5 622/4/5 623/4/5
f 627/4/5 626/4/5 625/4/5
f 628/4/5 626/4/5 627/4/5
f 629/5/6 630/5/6 631/5/6
f 631/5/6 630/5/6 632/5/6
f 633/5/6 634/5/6 635/5/6
f 635/5/6 634/5/6 636/5/6
f 637/8/6 638/8/6 639/8/6
f 639/8/6 638/8/6 640/8/6
f 641/2/6 642/2/6 644/2/6
f 644/2/6 642/2/6 645/2/6
f 646/6/6 647/6/6 648/6/6
f 648/6/6 647/6/6 649/6/6
f 643/5/6 644/5/6 650/5/6
f 644/5/6 645/5/6 650/5/6
f 650/5/6 645/5/6 651/5/6
f 651/5/6 645/5/6 652/5/6
f 652/5/6 645/5/6 653/5/6
f 654/5/6 655/5/6 656/5/6
f 656/5/6 655/5/6 657/5/6
f 658/6/6 659/6/6 660/6/6
f 660/6/6 659/6/6 661/6/6
f 662/6/6 663/6/6 666/6/6
f 666/6/6 663/6/6 667/6/6
f 667/6/6 663/6/6 668/6/6
f 664/6/6 665/6/6 669/6/6
f 669/6/6 665/6/6 670/6/6
f 670/6/6 665/6/6 671/6/6
f 672/6/6 673/6/6 676/6/6
f 672/6/6 676/6/6 678/6/6
f 676/7/6 677/7/6 679/7/6
f 678/6/6 676/6/6 679/6/6
f 679/7/6 677/7/6 680/7/6
f 674/6/6 675/6/6 681/6/6
f 681/6/6 675/6/6 682/6/6
f 679/6/6 680/6/6 683/6/6
f 680/6/6 681/6/6 683/6/6
f 683/6/6 681/6/6 684/6/6
f 685/5/6 686/5/6 689/5/6
f 687/5/6 688/5/6 689/5/6
f 686/5/6 687/5/6 689/5/6
f 689/5/6 688/5/6 690/5/6
f 685/5/6 689/5/6 691/5/6
f 690/5/6 688/5/6 692/5/6
f 685/5/6 691/5/6 693/5/6
f 691/5/6 692/5/6 693/5/6
f 692/5/6 688/5/6 694/5/6
f 693/5/6 692/5/6 694/5/6
f 695/3/6 696/3/6 697/3/6
f 697/3/6 696/3/6 698/3/6
f 699/5/6 700/5/6 702/5/6
f 700/5/6 701/5/6 702/5/6
f 702/5/6 701/5/6 703/5/6
f 699/5/6 702/5/6 704/5/6
f 703/5/6 701/5/6 705/5/6
f 699/5/6 704/5/6 706/5/6
f 704/5/6 705/5/6 706/5/6
f 705/5/6 701/5/6 707/5/6
f 706/5/6 705/5/6 707/5/6
f 708/1/6 709/1/6 710/1/6
f 710/1/6 709/1/6 711/1/6
f 708/1/6 710/1/6 712/1/6
f 711/1/6 709/1/6 713/1/6
f 708/1/6 712/1/6 714/1/6
f 712/1/6 713/1/6 714/1/6
f 713/1/6 709/1/6 715/1/6
f 714/1/6 713/1/6 715/1/6
f 716/3/6 717/3/6 718/3/6
f 718/3/6 717/3/6 719/3/6
f 720/4/6 721/4/6 722/4/6
f 722/4/6 721/4/6 723/4/6
f 720/4/6 722/4/6 724/4/6
f 724/4/6 722/4/6 725/4/6
f 723/4/6 721/4/6 726/4/6
f 726/4/6 721/4/6 727/4/6
f 728/4/6 729/4/6 730/4/6
f 730/4/6 729/4/6 731/4/6
