# MagicaVoxel @ ephtracy

# material
mtllib GraveTile_2.mtl
usemtl palette

# normals
vn -1 0 0
vn 1 0 0
vn 0 0 1
vn 0 0 -1
vn 0 -1 0
vn 0 1 0

# texcoords
vt 0.982422 0.5
vt 0.986328 0.5
vt 0.990234 0.5

# verts
v -4 0 4
v -4 0 3
v -4 0 1
v -4 0 -0
v -4 1 4
v -4 1 3
v -4 1 2
v -4 1 1
v -4 1 -0
v -4 1 -1
v -4 2 3
v -4 2 2
v -4 2 1
v -4 2 -0
v -4 2 -2
v -4 2 -4
v -4 3 4
v -4 3 3
v -4 3 2
v -4 3 1
v -4 3 -1
v -4 3 -2
v -4 3 -3
v -4 3 -4
v -4 4 -3
v -4 4 -4
v -4 5 4
v -4 5 -4
v -4 6 4
v -4 6 -4
v -3 0 -0
v -3 0 -1
v -3 1 3
v -3 1 2
v -3 1 -0
v -3 1 -1
v -3 1 -4
v -3 2 3
v -3 2 2
v -3 2 1
v -3 2 -2
v -3 2 -4
v -3 3 2
v -3 3 1
v -3 3 -1
v -3 3 -2
v -3 3 -3
v -3 3 -4
v -3 4 -3
v -3 4 -4
v -2 0 3
v -2 0 2
v -2 0 -2
v -2 0 -4
v -2 1 3
v -2 1 2
v -2 1 1
v -2 1 -0
v -2 1 -2
v -2 1 -4
v -2 2 1
v -2 2 -0
v -2 3 4
v -2 3 3
v -2 4 4
v -2 4 3
v -1 0 4
v -1 0 3
v -1 0 2
v -1 0 -0
v -1 0 -1
v -1 0 -2
v -1 1 2
v -1 1 -0
v -1 1 -1
v -1 1 -2
v -1 1 -3
v -1 2 -2
v -1 2 -3
v -1 3 4
v -1 3 3
v 1 0 4
v 1 0 3
v 1 0 2
v 1 0 1
v 1 0 -3
v 1 0 -4
v 1 1 3
v 1 1 2
v 1 1 1
v 1 1 -3
v 1 1 -4
v 1 2 4
v 1 2 3
v 2 0 3
v 2 0 2
v 2 0 -0
v 2 0 -1
v 2 1 3
v 2 1 2
v 2 1 -0
v 2 1 -1
v 2 2 4
v 2 2 3
v 2 3 4
v 2 3 3
v 2 3 -3
v 2 3 -4
v 2 4 -3
v 2 4 -4
v 3 0 -3
v 3 0 -4
v 3 1 -3
v 3 1 -4
v -3 0 4
v -3 0 3
v -3 1 4
v -3 1 3
v -3 3 4
v -3 3 3
v -3 4 4
v -3 4 3
v -2 0 1
v -2 0 -0
v -2 1 1
v -2 1 -0
v -2 1 -2
v -2 1 -4
v -2 2 -2
v -2 2 -3
v -2 3 -3
v -2 3 -4
v -1 0 -0
v -1 0 -1
v -1 0 -3
v -1 0 -4
v -1 1 -0
v -1 1 -1
v -1 1 -3
v -1 1 -4
v 0 0 4
v 0 0 1
v 0 1 3
v 0 1 1
v 0 2 4
v 0 2 3
v 1 0 -1
v 1 0 -3
v 1 1 -1
v 1 1 -2
v 1 1 -3
v 1 2 4
v 1 2 3
v 1 2 -2
v 1 2 -3
v 1 3 4
v 1 3 3
v 1 3 -3
v 1 3 -4
v 1 4 -3
v 1 4 -4
v 2 0 4
v 2 0 3
v 2 0 -3
v 2 0 -4
v 2 1 4
v 2 1 3
v 2 1 -3
v 2 1 -4
v 3 0 3
v 3 0 2
v 3 0 1
v 3 0 -0
v 3 1 4
v 3 1 3
v 3 1 2
v 3 1 1
v 3 1 -0
v 3 1 -1
v 3 1 -2
v 3 2 3
v 3 2 2
v 3 2 1
v 3 2 -0
v 3 2 -1
v 3 2 -2
v 3 2 -3
v 3 3 3
v 3 3 2
v 3 3 1
v 3 3 -1
v 3 3 -2
v 3 3 -3
v 3 4 4
v 3 4 3
v 3 4 2
v 3 4 1
v 3 4 -1
v 3 4 -3
v 4 0 2
v 4 0 1
v 4 0 -0
v 4 0 -1
v 4 0 -3
v 4 0 -4
v 4 1 3
v 4 1 2
v 4 1 1
v 4 1 -0
v 4 1 -1
v 4 1 -3
v 4 1 -4
v 4 2 3
v 4 2 2
v 4 2 1
v 4 2 -0
v 4 2 -1
v 4 2 -2
v 4 3 3
v 4 3 2
v 4 3 1
v 4 3 -1
v 4 3 -2
v 4 3 -3
v 4 3 -4
v 4 4 4
v 4 4 3
v 4 4 2
v 4 4 1
v 4 4 -1
v 4 4 -3
v 4 5 4
v 4 5 -4
v 4 6 4
v 4 6 -4
v -4 0 4
v -4 1 4
v -4 3 4
v -4 5 4
v -4 6 4
v -3 0 4
v -3 1 4
v -3 3 4
v -3 4 4
v -2 3 4
v -2 4 4
v -1 0 4
v -1 3 4
v 0 0 4
v 0 2 4
v 1 0 4
v 1 2 4
v 1 3 4
v 2 0 4
v 2 1 4
v 2 2 4
v 2 3 4
v 3 1 4
v 3 4 4
v 4 4 4
v 4 5 4
v 4 6 4
v -4 2 3
v -4 3 3
v -3 1 3
v -3 2 3
v -3 3 3
v -3 4 3
v -2 0 3
v -2 1 3
v -2 3 3
v -2 4 3
v -1 0 3
v -1 3 3
v 0 1 3
v 0 2 3
v 1 1 3
v 1 2 3
v 1 3 3
v 2 0 3
v 2 1 3
v 2 2 3
v 2 3 3
v 3 0 3
v 3 1 3
v 3 2 3
v 3 3 3
v 3 4 3
v 4 1 3
v 4 2 3
v 4 3 3
v 4 4 3
v -4 1 2
v -4 2 2
v -3 1 2
v -3 2 2
v 1 0 2
v 1 1 2
v 2 0 2
v 2 1 2
v 3 0 2
v 3 1 2
v 4 0 2
v 4 1 2
v -4 0 1
v -4 1 1
v -4 2 1
v -4 3 1
v -3 2 1
v -3 3 1
v -2 0 1
v -2 1 1
v 0 0 1
v 0 1 1
v 1 0 1
v 1 1 1
v 3 1 1
v 3 2 1
v 3 3 1
v 3 4 1
v 4 1 1
v 4 2 1
v 4 3 1
v 4 4 1
v -4 1 -0
v -4 2 -0
v -2 0 -0
v -2 1 -0
v -2 2 -0
v -1 0 -0
v -1 1 -0
v 3 0 -0
v 3 1 -0
v 4 0 -0
v 4 1 -0
v -1 0 -1
v -1 1 -1
v 1 0 -1
v 1 1 -1
v 3 2 -1
v 3 3 -1
v 4 2 -1
v 4 3 -1
v -4 2 -2
v -4 3 -2
v -3 2 -2
v -3 3 -2
v -2 0 -2
v -2 1 -2
v -1 0 -2
v -1 1 -2
v 1 0 -3
v 1 1 -3
v 2 0 -3
v 2 1 -3
v 3 0 -3
v 3 1 -3
v 3 3 -3
v 3 4 -3
v 4 0 -3
v 4 1 -3
v 4 3 -3
v 4 4 -3
v -4 0 3
v -4 1 3
v -3 0 3
v -3 1 3
v 1 0 3
v 1 1 3
v 2 0 3
v 2 1 3
v -4 2 2
v -4 3 2
v -3 2 2
v -3 3 2
v -2 0 2
v -2 1 2
v -1 0 2
v -1 1 2
v 3 1 2
v 3 2 2
v 3 3 2
v 3 4 2
v 4 1 2
v 4 2 2
v 4 3 2
v 4 4 2
v -4 1 1
v -4 2 1
v -2 1 1
v -2 2 1
v 3 0 1
v 3 1 1
v 4 0 1
v 4 1 1
v -4 0 -0
v -4 1 -0
v -3 0 -0
v -3 1 -0
v -1 0 -0
v -1 1 -0
v 0 0 -0
v 0 1 -0
v 1 0 -0
v 1 1 -0
v 2 0 -0
v 2 1 -0
v 3 1 -0
v 3 2 -0
v 4 1 -0
v 4 2 -0
v -4 1 -1
v -4 3 -1
v -3 0 -1
v -3 1 -1
v -3 3 -1
v -1 0 -1
v -1 1 -1
v 2 0 -1
v 2 1 -1
v 3 1 -1
v 3 3 -1
v 3 4 -1
v 4 0 -1
v 4 1 -1
v 4 3 -1
v 4 4 -1
v -2 1 -2
v -2 2 -2
v -1 1 -2
v -1 2 -2
v 1 1 -2
v 1 2 -2
v 3 1 -2
v 3 2 -2
v 3 3 -2
v 4 2 -2
v 4 3 -2
v -4 3 -3
v -4 4 -3
v -3 3 -3
v -3 4 -3
v -2 2 -3
v -2 3 -3
v -1 0 -3
v -1 1 -3
v -1 2 -3
v 1 0 -3
v 1 1 -3
v 1 2 -3
v 1 3 -3
v 1 4 -3
v 2 3 -3
v 2 4 -3
v 3 2 -3
v 3 3 -3
v -4 2 -4
v -4 3 -4
v -4 4 -4
v -4 5 -4
v -4 6 -4
v -3 1 -4
v -3 2 -4
v -3 3 -4
v -3 4 -4
v -2 0 -4
v -2 1 -4
v -2 3 -4
v -1 0 -4
v -1 1 -4
v 1 0 -4
v 1 1 -4
v 1 3 -4
v 1 4 -4
v 2 0 -4
v 2 1 -4
v 2 3 -4
v 2 4 -4
v 3 0 -4
v 3 1 -4
v 4 0 -4
v 4 1 -4
v 4 3 -4
v 4 5 -4
v 4 6 -4
v -4 0 4
v -3 0 4
v -1 0 4
v 0 0 4
v 1 0 4
v 2 0 4
v -4 0 3
v -3 0 3
v -2 0 3
v -1 0 3
v 1 0 3
v 2 0 3
v 3 0 3
v -2 0 2
v -1 0 2
v 1 0 2
v 2 0 2
v 3 0 2
v 4 0 2
v -4 0 1
v -2 0 1
v 0 0 1
v 1 0 1
v 3 0 1
v 4 0 1
v -4 0 -0
v -3 0 -0
v -2 0 -0
v -1 0 -0
v 0 0 -0
v 1 0 -0
v 2 0 -0
v 3 0 -0
v 4 0 -0
v -3 0 -1
v -1 0 -1
v 1 0 -1
v 2 0 -1
v 4 0 -1
v -2 0 -2
v -1 0 -2
v -1 0 -3
v 1 0 -3
v 2 0 -3
v 3 0 -3
v 4 0 -3
v -2 0 -4
v -1 0 -4
v 1 0 -4
v 2 0 -4
v 3 0 -4
v 4 0 -4
v 2 1 4
v 3 1 4
v -3 1 3
v -2 1 3
v 0 1 3
v 1 1 3
v 2 1 3
v 3 1 3
v 4 1 3
v -4 1 2
v -3 1 2
v -2 1 2
v -1 1 2
v 1 1 2
v 2 1 2
v 3 1 2
v 4 1 2
v -4 1 1
v -2 1 1
v 0 1 1
v 1 1 1
v 3 1 1
v 4 1 1
v -4 1 -0
v -3 1 -0
v -2 1 -0
v -1 1 -0
v 0 1 -0
v 1 1 -0
v 2 1 -0
v 3 1 -0
v 4 1 -0
v -4 1 -1
v -3 1 -1
v -1 1 -1
v 1 1 -1
v 2 1 -1
v 3 1 -1
v -2 1 -2
v -1 1 -2
v 1 1 -2
v 3 1 -2
v -3 1 -4
v -2 1 -4
v 0 2 4
v 1 2 4
v -4 2 3
v -3 2 3
v 0 2 3
v 1 2 3
v -4 2 2
v -3 2 2
v -4 2 1
v -2 2 1
v -4 2 -0
v -2 2 -0
v 3 2 -1
v 4 2 -1
v -4 2 -2
v -3 2 -2
v -2 2 -2
v -1 2 -2
v 1 2 -2
v 3 2 -2
v 4 2 -2
v -2 2 -3
v -1 2 -3
v 1 2 -3
v 3 2 -3
v -4 2 -4
v -3 2 -4
v -4 3 4
v -3 3 4
v -2 3 4
v -1 3 4
v 1 3 4
v 2 3 4
v -4 3 3
v -3 3 3
v -2 3 3
v -1 3 3
v 1 3 3
v 2 3 3
v 3 3 3
v 4 3 3
v -4 3 2
v -3 3 2
v 3 3 2
v 4 3 2
v -4 3 1
v -3 3 1
v 3 3 1
v 4 3 1
v -4 3 -1
v -3 3 -1
v 3 3 -1
v 4 3 -1
v -4 3 -2
v -3 3 -2
v -2 3 -3
v 1 3 -3
v 2 3 -3
v 3 3 -3
v 4 3 -3
v -2 3 -4
v 1 3 -4
v 2 3 -4
v 4 3 -4
v -3 4 4
v -2 4 4
v 3 4 4
v 4 4 4
v -3 4 3
v -2 4 3
v 3 4 3
v 4 4 3
v 3 4 2
v 4 4 2
v 3 4 1
v 4 4 1
v 3 4 -1
v 4 4 -1
v -4 4 -3
v -3 4 -3
v 1 4 -3
v 2 4 -3
v 3 4 -3
v 4 4 -3
v -4 4 -4
v -3 4 -4
v 1 4 -4
v 2 4 -4
v -4 1 4
v -3 1 4
v -4 1 3
v -3 1 3
v 3 1 2
v 4 1 2
v -4 1 1
v -2 1 1
v 3 1 1
v 4 1 1
v -4 1 -0
v -2 1 -0
v 3 1 -0
v 4 1 -0
v 3 1 -1
v 4 1 -1
v -2 1 -2
v -1 1 -2
v -1 1 -3
v 1 1 -3
v 2 1 -3
v 3 1 -3
v 4 1 -3
v -2 1 -4
v -1 1 -4
v 1 1 -4
v 2 1 -4
v 3 1 -4
v 4 1 -4
v 1 2 4
v 2 2 4
v 1 2 3
v 2 2 3
v 3 2 3
v 4 2 3
v -4 2 2
v -3 2 2
v 3 2 2
v 4 2 2
v -4 2 1
v -3 2 1
v 3 2 1
v 4 2 1
v 3 2 -0
v 4 2 -0
v 3 3 -1
v 4 3 -1
v 3 3 -2
v 4 3 -2
v -4 3 -3
v -3 3 -3
v -4 3 -4
v -3 3 -4
v -4 6 4
v 4 6 4
v 1 6 2
v 2 6 2
v 1 6 1
v 2 6 1
v -1 6 -1
v 0 6 -1
v -1 6 -2
v 0 6 -2
v -4 6 -4
v 4 6 -4

# faces
f 5/3/1 2/3/1 1/3/1
f 6/3/1 2/3/1 5/3/1
f 8/3/1 4/3/1 3/3/1
f 9/3/1 4/3/1 8/3/1
f 12/3/1 8/3/1 7/3/1
f 13/3/1 8/3/1 12/3/1
f 14/3/1 10/3/1 9/3/1
f 18/3/1 12/3/1 11/3/1
f 19/3/1 12/3/1 18/3/1
f 20/3/1 14/3/1 13/3/1
f 21/3/1 10/3/1 14/3/1
f 21/3/1 14/3/1 20/3/1
f 22/3/1 16/3/1 15/3/1
f 23/3/1 16/3/1 22/3/1
f 24/3/1 16/3/1 23/3/1
f 25/3/1 21/3/1 20/3/1
f 25/3/1 19/3/1 18/3/1
f 25/3/1 23/3/1 22/3/1
f 25/3/1 22/3/1 21/3/1
f 25/3/1 20/3/1 19/3/1
f 25/3/1 18/3/1 17/3/1
f 27/3/1 25/3/1 17/3/1
f 27/3/1 26/3/1 25/3/1
f 28/3/1 26/3/1 27/3/1
f 29/2/1 28/2/1 27/2/1
f 30/2/1 28/2/1 29/2/1
f 35/3/1 32/3/1 31/3/1
f 36/3/1 32/3/1 35/3/1
f 38/3/1 34/3/1 33/3/1
f 39/3/1 34/3/1 38/3/1
f 41/3/1 37/3/1 36/3/1
f 42/3/1 37/3/1 41/3/1
f 43/3/1 40/3/1 39/3/1
f 44/3/1 40/3/1 43/3/1
f 45/3/1 41/3/1 36/3/1
f 46/3/1 41/3/1 45/3/1
f 49/3/1 48/3/1 47/3/1
f 50/3/1 48/3/1 49/3/1
f 55/3/1 52/3/1 51/3/1
f 56/3/1 52/3/1 55/3/1
f 59/3/1 54/3/1 53/3/1
f 60/3/1 54/3/1 59/3/1
f 61/3/1 58/3/1 57/3/1
f 62/3/1 58/3/1 61/3/1
f 65/3/1 64/3/1 63/3/1
f 66/3/1 64/3/1 65/3/1
f 73/3/1 70/3/1 69/3/1
f 74/3/1 70/3/1 73/3/1
f 75/3/1 72/3/1 71/3/1
f 76/3/1 72/3/1 75/3/1
f 78/3/1 77/3/1 76/3/1
f 79/3/1 77/3/1 78/3/1
f 80/3/1 68/3/1 67/3/1
f 81/3/1 68/3/1 80/3/1
f 88/3/1 83/3/1 82/3/1
f 89/3/1 85/3/1 84/3/1
f 90/3/1 85/3/1 89/3/1
f 91/3/1 87/3/1 86/3/1
f 92/3/1 87/3/1 91/3/1
f 93/3/1 88/3/1 82/3/1
f 94/3/1 88/3/1 93/3/1
f 99/3/1 96/3/1 95/3/1
f 100/3/1 96/3/1 99/3/1
f 101/3/1 98/3/1 97/3/1
f 102/3/1 98/3/1 101/3/1
f 105/3/1 104/3/1 103/3/1
f 106/3/1 104/3/1 105/3/1
f 109/3/1 108/3/1 107/3/1
f 110/3/1 108/3/1 109/3/1
f 113/3/1 112/3/1 111/3/1
f 114/3/1 112/3/1 113/3/1
f 115/3/2 116/3/2 117/3/2
f 117/3/2 116/3/2 118/3/2
f 119/3/2 120/3/2 121/3/2
f 121/3/2 120/3/2 122/3/2
f 123/3/2 124/3/2 125/3/2
f 125/3/2 124/3/2 126/3/2
f 127/3/2 128/3/2 129/3/2
f 129/3/2 128/3/2 130/3/2
f 130/3/2 128/3/2 131/3/2
f 131/3/2 128/3/2 132/3/2
f 133/3/2 134/3/2 137/3/2
f 137/3/2 134/3/2 138/3/2
f 135/3/2 136/3/2 139/3/2
f 139/3/2 136/3/2 140/3/2
f 141/3/2 142/3/2 143/3/2
f 143/3/2 142/3/2 144/3/2
f 141/3/2 143/3/2 145/3/2
f 145/3/2 143/3/2 146/3/2
f 147/3/2 148/3/2 149/3/2
f 149/3/2 148/3/2 150/3/2
f 150/3/2 148/3/2 151/3/2
f 150/3/2 151/3/2 154/3/2
f 154/3/2 151/3/2 155/3/2
f 152/3/2 153/3/2 156/3/2
f 156/3/2 153/3/2 157/3/2
f 158/3/2 159/3/2 160/3/2
f 160/3/2 159/3/2 161/3/2
f 162/3/2 163/3/2 166/3/2
f 166/3/2 163/3/2 167/3/2
f 164/3/2 165/3/2 168/3/2
f 168/3/2 165/3/2 169/3/2
f 170/3/2 171/3/2 175/3/2
f 175/3/2 171/3/2 176/3/2
f 172/3/2 173/3/2 177/3/2
f 177/3/2 173/3/2 178/3/2
f 174/3/2 175/3/2 181/3/2
f 176/3/2 177/3/2 182/3/2
f 182/3/2 177/3/2 183/3/2
f 179/3/2 180/3/2 184/3/2
f 178/3/2 179/3/2 184/3/2
f 184/3/2 180/3/2 185/3/2
f 185/3/2 180/3/2 186/3/2
f 182/3/2 183/3/2 188/3/2
f 181/3/2 182/3/2 188/3/2
f 184/3/2 185/3/2 188/3/2
f 183/3/2 184/3/2 188/3/2
f 174/3/2 181/3/2 188/3/2
f 188/3/2 185/3/2 189/3/2
f 189/3/2 185/3/2 190/3/2
f 190/3/2 185/3/2 191/3/2
f 186/3/2 187/3/2 192/3/2
f 192/3/2 187/3/2 193/3/2
f 174/3/2 188/3/2 194/3/2
f 194/3/2 188/3/2 195/3/2
f 189/3/2 190/3/2 196/3/2
f 196/3/2 190/3/2 197/3/2
f 192/3/2 193/3/2 198/3/2
f 191/3/2 192/3/2 198/3/2
f 198/3/2 193/3/2 199/3/2
f 200/3/2 201/3/2 207/3/2
f 207/3/2 201/3/2 208/3/2
f 202/3/2 203/3/2 209/3/2
f 209/3/2 203/3/2 210/3/2
f 204/3/2 205/3/2 211/3/2
f 211/3/2 205/3/2 212/3/2
f 206/3/2 207/3/2 213/3/2
f 213/3/2 207/3/2 214/3/2
f 208/3/2 209/3/2 215/3/2
f 215/3/2 209/3/2 216/3/2
f 217/3/2 218/3/2 222/3/2
f 222/3/2 218/3/2 223/3/2
f 219/3/2 220/3/2 227/3/2
f 227/3/2 220/3/2 228/3/2
f 221/3/2 222/3/2 229/3/2
f 229/3/2 222/3/2 230/3/2
f 224/3/2 225/3/2 231/3/2
f 229/3/2 230/3/2 232/3/2
f 230/3/2 231/3/2 232/3/2
f 227/3/2 228/3/2 232/3/2
f 226/3/2 227/3/2 232/3/2
f 228/3/2 229/3/2 232/3/2
f 231/3/2 225/3/2 233/3/2
f 232/3/2 231/3/2 233/3/2
f 232/2/2 233/2/2 234/2/2
f 234/2/2 233/2/2 235/2/2
f 241/3/3 237/3/3 236/3/3
f 242/3/3 237/3/3 241/3/3
f 243/3/3 239/3/3 238/3/3
f 244/3/3 239/3/3 243/3/3
f 246/3/3 239/3/3 244/3/3
f 248/3/3 246/3/3 245/3/3
f 249/3/3 248/3/3 247/3/3
f 250/3/3 248/3/3 249/3/3
f 252/3/3 248/3/3 250/3/3
f 253/3/3 246/3/3 248/3/3
f 253/3/3 248/3/3 252/3/3
f 254/3/3 252/3/3 251/3/3
f 255/3/3 252/3/3 254/3/3
f 256/3/3 252/3/3 255/3/3
f 257/3/3 246/3/3 253/3/3
f 258/3/3 256/3/3 255/3/3
f 258/3/3 257/3/3 256/3/3
f 259/3/3 239/3/3 246/3/3
f 259/3/3 257/3/3 258/3/3
f 259/3/3 246/3/3 257/3/3
f 260/3/3 239/3/3 259/3/3
f 261/2/3 240/2/3 239/2/3
f 261/3/3 239/3/3 260/3/3
f 262/2/3 240/2/3 261/2/3
f 266/3/3 264/3/3 263/3/3
f 267/3/3 264/3/3 266/3/3
f 270/3/3 266/3/3 265/3/3
f 270/3/3 268/3/3 267/3/3
f 270/3/3 267/3/3 266/3/3
f 271/3/3 268/3/3 270/3/3
f 272/3/3 268/3/3 271/3/3
f 273/3/3 270/3/3 269/3/3
f 273/3/3 271/3/3 270/3/3
f 274/3/3 271/3/3 273/3/3
f 277/3/3 276/3/3 275/3/3
f 278/3/3 276/3/3 277/3/3
f 282/3/3 279/3/3 278/3/3
f 283/3/3 279/3/3 282/3/3
f 284/3/3 281/3/3 280/3/3
f 285/3/3 281/3/3 284/3/3
f 289/3/3 286/3/3 285/3/3
f 290/3/3 286/3/3 289/3/3
f 291/3/3 288/3/3 287/3/3
f 292/3/3 288/3/3 291/3/3
f 295/3/3 294/3/3 293/3/3
f 296/3/3 294/3/3 295/3/3
f 299/3/3 298/3/3 297/3/3
f 300/3/3 298/3/3 299/3/3
f 303/3/3 302/3/3 301/3/3
f 304/3/3 302/3/3 303/3/3
f 309/3/3 308/3/3 307/3/3
f 310/3/3 308/3/3 309/3/3
f 311/3/3 306/3/3 305/3/3
f 312/3/3 306/3/3 311/3/3
f 315/2/3 314/2/3 313/2/3
f 316/2/3 314/2/3 315/2/3
f 321/3/3 318/3/3 317/3/3
f 322/3/3 318/3/3 321/3/3
f 323/3/3 320/3/3 319/3/3
f 324/3/3 320/3/3 323/3/3
f 328/3/3 326/3/3 325/3/3
f 329/3/3 326/3/3 328/3/3
f 330/3/3 328/3/3 327/3/3
f 331/3/3 328/3/3 330/3/3
f 334/3/3 333/3/3 332/3/3
f 335/3/3 333/3/3 334/3/3
f 338/3/3 337/3/3 336/3/3
f 339/3/3 337/3/3 338/3/3
f 342/3/3 341/3/3 340/3/3
f 343/3/3 341/3/3 342/3/3
f 346/3/3 345/3/3 344/3/3
f 347/3/3 345/3/3 346/3/3
f 350/3/3 349/3/3 348/3/3
f 351/3/3 349/3/3 350/3/3
f 354/3/3 353/3/3 352/3/3
f 355/3/3 353/3/3 354/3/3
f 360/3/3 357/3/3 356/3/3
f 361/3/3 357/3/3 360/3/3
f 362/3/3 359/3/3 358/3/3
f 363/3/3 359/3/3 362/3/3
f 364/3/4 365/3/4 366/3/4
f 366/3/4 365/3/4 367/3/4
f 368/3/4 369/3/4 370/3/4
f 370/3/4 369/3/4 371/3/4
f 372/3/4 373/3/4 374/3/4
f 374/3/4 373/3/4 375/3/4
f 376/3/4 377/3/4 378/3/4
f 378/3/4 377/3/4 379/3/4
f 380/3/4 381/3/4 384/3/4
f 384/3/4 381/3/4 385/3/4
f 382/3/4 383/3/4 386/3/4
f 386/3/4 383/3/4 387/3/4
f 388/3/4 389/3/4 390/3/4
f 390/3/4 389/3/4 391/3/4
f 392/3/4 393/3/4 394/3/4
f 394/3/4 393/3/4 395/3/4
f 396/3/4 397/3/4 398/3/4
f 398/3/4 397/3/4 399/3/4
f 400/3/4 401/3/4 402/3/4
f 402/3/4 401/3/4 403/3/4
f 402/2/4 403/2/4 404/2/4
f 404/2/4 403/2/4 405/2/4
f 404/3/4 405/3/4 406/3/4
f 406/3/4 405/3/4 407/3/4
f 408/3/4 409/3/4 410/3/4
f 410/3/4 409/3/4 411/3/4
f 412/3/4 413/3/4 415/3/4
f 415/3/4 413/3/4 416/3/4
f 414/3/4 415/3/4 417/3/4
f 417/3/4 415/3/4 418/3/4
f 419/3/4 420/3/4 421/3/4
f 419/3/4 421/3/4 424/3/4
f 424/3/4 421/3/4 425/3/4
f 422/3/4 423/3/4 426/3/4
f 426/3/4 423/3/4 427/3/4
f 428/3/4 429/3/4 430/3/4
f 430/3/4 429/3/4 431/3/4
f 432/3/4 433/3/4 434/3/4
f 434/3/4 433/3/4 435/3/4
f 435/3/4 436/3/4 437/3/4
f 437/3/4 436/3/4 438/3/4
f 439/3/4 440/3/4 441/3/4
f 441/3/4 440/3/4 442/3/4
f 443/3/4 444/3/4 447/3/4
f 445/3/4 446/3/4 448/3/4
f 446/3/4 447/3/4 448/3/4
f 448/3/4 447/3/4 449/3/4
f 447/3/4 444/3/4 450/3/4
f 449/3/4 447/3/4 450/3/4
f 450/3/4 444/3/4 451/3/4
f 451/3/4 452/3/4 453/3/4
f 450/3/4 451/3/4 453/3/4
f 453/3/4 452/3/4 454/3/4
f 450/3/4 453/3/4 455/3/4
f 455/3/4 453/3/4 456/3/4
f 457/3/4 458/3/4 463/3/4
f 463/3/4 458/3/4 464/3/4
f 459/3/4 460/3/4 465/3/4
f 463/3/4 464/3/4 467/3/4
f 464/3/4 465/3/4 467/3/4
f 462/3/4 463/3/4 467/3/4
f 467/3/4 465/3/4 468/3/4
f 466/3/4 467/3/4 469/3/4
f 469/3/4 467/3/4 470/3/4
f 468/3/4 465/3/4 473/3/4
f 465/3/4 460/3/4 474/3/4
f 473/3/4 465/3/4 474/3/4
f 471/3/4 472/3/4 475/3/4
f 475/3/4 472/3/4 476/3/4
f 474/3/4 460/3/4 478/3/4
f 479/3/4 480/3/4 481/3/4
f 481/3/4 480/3/4 482/3/4
f 477/3/4 478/3/4 483/3/4
f 460/2/4 461/2/4 484/2/4
f 483/3/4 478/3/4 484/3/4
f 478/3/4 460/3/4 484/3/4
f 484/2/4 461/2/4 485/2/4
f 492/3/5 487/3/5 486/3/5
f 493/3/5 487/3/5 492/3/5
f 495/3/5 489/3/5 488/3/5
f 496/3/5 491/3/5 490/3/5
f 497/3/5 491/3/5 496/3/5
f 499/3/5 495/3/5 494/3/5
f 500/3/5 489/3/5 495/3/5
f 500/3/5 495/3/5 499/3/5
f 502/3/5 498/3/5 497/3/5
f 503/3/5 498/3/5 502/3/5
f 507/3/5 489/3/5 500/3/5
f 508/3/5 504/3/5 503/3/5
f 508/3/5 502/3/5 501/3/5
f 508/3/5 503/3/5 502/3/5
f 509/3/5 504/3/5 508/3/5
f 510/3/5 504/3/5 509/3/5
f 511/3/5 506/3/5 505/3/5
f 512/3/5 506/3/5 511/3/5
f 513/3/5 506/3/5 512/3/5
f 514/3/5 507/3/5 500/3/5
f 515/2/5 508/2/5 507/2/5
f 515/3/5 507/3/5 514/3/5
f 516/3/5 509/3/5 508/3/5
f 516/2/5 508/2/5 515/2/5
f 517/3/5 509/3/5 516/3/5
f 518/3/5 509/3/5 517/3/5
f 520/3/5 513/3/5 512/3/5
f 520/3/5 514/3/5 513/3/5
f 521/3/5 514/3/5 520/3/5
f 523/3/5 519/3/5 518/3/5
f 523/3/5 518/3/5 517/3/5
f 524/3/5 519/3/5 523/3/5
f 526/3/5 522/3/5 521/3/5
f 527/3/5 522/3/5 526/3/5
f 527/3/5 526/3/5 525/3/5
f 528/3/5 522/3/5 527/3/5
f 532/3/5 527/3/5 525/3/5
f 533/3/5 527/3/5 532/3/5
f 534/3/5 529/3/5 528/3/5
f 535/3/5 529/3/5 534/3/5
f 536/3/5 531/3/5 530/3/5
f 537/3/5 531/3/5 536/3/5
f 544/3/5 539/3/5 538/3/5
f 545/3/5 539/3/5 544/3/5
f 548/3/5 541/3/5 540/3/5
f 549/3/5 541/3/5 548/3/5
f 551/3/5 543/3/5 542/3/5
f 551/3/5 544/3/5 543/3/5
f 552/3/5 544/3/5 551/3/5
f 553/3/5 546/3/5 545/3/5
f 554/3/5 546/3/5 553/3/5
f 555/3/5 550/3/5 549/3/5
f 555/3/5 549/3/5 548/3/5
f 555/3/5 548/3/5 547/3/5
f 556/3/5 550/3/5 555/3/5
f 557/3/5 551/3/5 542/3/5
f 558/3/5 551/3/5 557/3/5
f 563/3/5 550/3/5 556/3/5
f 564/3/5 550/3/5 563/3/5
f 568/3/5 560/3/5 559/3/5
f 569/3/5 560/3/5 568/3/5
f 570/3/5 562/3/5 561/3/5
f 571/3/5 562/3/5 570/3/5
f 572/3/5 567/3/5 566/3/5
f 572/3/5 565/3/5 564/3/5
f 572/3/5 566/3/5 565/3/5
f 573/3/5 567/3/5 572/3/5
f 574/3/5 567/3/5 573/3/5
f 576/3/5 572/3/5 571/3/5
f 577/3/5 572/3/5 576/3/5
f 578/3/5 575/3/5 574/3/5
f 578/3/5 574/3/5 573/3/5
f 579/3/5 575/3/5 578/3/5
f 580/3/5 576/3/5 571/3/5
f 581/3/5 576/3/5 580/3/5
f 586/3/5 583/3/5 582/3/5
f 587/3/5 583/3/5 586/3/5
f 588/3/5 585/3/5 584/3/5
f 589/3/5 585/3/5 588/3/5
f 592/3/5 591/3/5 590/3/5
f 593/3/5 591/3/5 592/3/5
f 601/3/5 595/3/5 594/3/5
f 602/3/5 595/3/5 601/3/5
f 603/3/5 599/3/5 598/3/5
f 604/3/5 599/3/5 603/3/5
f 605/3/5 601/3/5 600/3/5
f 606/3/5 601/3/5 605/3/5
f 607/3/5 597/3/5 596/3/5
f 608/3/5 597/3/5 607/3/5
f 615/3/5 610/3/5 609/3/5
f 616/3/5 610/3/5 615/3/5
f 617/3/5 612/3/5 611/3/5
f 618/3/5 612/3/5 617/3/5
f 619/3/5 614/3/5 613/3/5
f 620/3/5 614/3/5 619/3/5
f 625/3/5 622/3/5 621/3/5
f 626/3/5 622/3/5 625/3/5
f 627/3/5 624/3/5 623/3/5
f 628/3/5 624/3/5 627/3/5
f 633/3/5 630/3/5 629/3/5
f 634/3/5 630/3/5 633/3/5
f 635/3/5 632/3/5 631/3/5
f 636/3/5 632/3/5 635/3/5
f 642/3/5 638/3/5 637/3/5
f 643/3/5 638/3/5 642/3/5
f 644/3/5 641/3/5 640/3/5
f 644/3/5 640/3/5 639/3/5
f 645/3/5 641/3/5 644/3/5
f 650/3/5 647/3/5 646/3/5
f 651/3/5 647/3/5 650/3/5
f 652/3/5 649/3/5 648/3/5
f 653/3/5 649/3/5 652/3/5
f 656/3/5 655/3/5 654/3/5
f 657/3/5 655/3/5 656/3/5
f 664/3/5 659/3/5 658/3/5
f 665/3/5 659/3/5 664/3/5
f 666/3/5 661/3/5 660/3/5
f 667/3/5 661/3/5 666/3/5
f 668/3/5 663/3/5 662/3/5
f 669/3/5 663/3/5 668/3/5
f 670/3/6 671/3/6 672/3/6
f 672/3/6 671/3/6 673/3/6
f 674/3/6 675/3/6 678/3/6
f 678/3/6 675/3/6 679/3/6
f 676/3/6 677/3/6 680/3/6
f 680/3/6 677/3/6 681/3/6
f 682/3/6 683/3/6 684/3/6
f 684/3/6 683/3/6 685/3/6
f 686/3/6 687/3/6 688/3/6
f 686/3/6 688/3/6 693/3/6
f 693/3/6 688/3/6 694/3/6
f 689/3/6 690/3/6 695/3/6
f 695/3/6 690/3/6 696/3/6
f 691/3/6 692/3/6 697/3/6
f 697/3/6 692/3/6 698/3/6
f 699/3/6 700/3/6 701/3/6
f 701/3/6 700/3/6 702/3/6
f 703/3/6 704/3/6 707/3/6
f 707/3/6 704/3/6 708/3/6
f 705/3/6 706/3/6 709/3/6
f 709/3/6 706/3/6 710/3/6
f 711/3/6 712/3/6 713/3/6
f 713/3/6 712/3/6 714/3/6
f 715/3/6 716/3/6 717/3/6
f 717/3/6 716/3/6 718/3/6
f 719/3/6 720/3/6 721/3/6
f 721/3/6 720/3/6 722/3/6
f 723/2/6 724/2/6 725/2/6
f 725/2/6 724/2/6 726/2/6
f 723/2/6 725/2/6 727/2/6
f 725/1/6 726/1/6 727/1/6
f 726/2/6 724/2/6 728/2/6
f 727/1/6 726/1/6 728/1/6
f 723/2/6 727/2/6 729/2/6
f 727/2/6 728/2/6 729/2/6
f 729/2/6 728/2/6 730/2/6
f 723/2/6 729/2/6 731/2/6
f 729/1/6 730/1/6 731/1/6
f 730/2/6 728/2/6 732/2/6
f 731/1/6 730/1/6 732/1/6
f 723/2/6 731/2/6 733/2/6
f 731/2/6 732/2/6 733/2/6
f 728/2/6 724/2/6 734/2/6
f 733/2/6 732/2/6 734/2/6
f 732/2/6 728/2/6 734/2/6
