# MagicaVoxel @ ephtracy

# material
mtllib Dungeon_Tile_1.mtl
usemtl palette

# normals
vn -1 0 0
vn 1 0 0
vn 0 0 1
vn 0 0 -1
vn 0 -1 0
vn 0 1 0

# texcoords
vt 0.369141 0.5
vt 0.537109 0.5
vt 0.990234 0.5

# verts
v -4 0 3
v -4 0 -0
v -4 1 4
v -4 1 3
v -4 1 2
v -4 1 1
v -4 1 -0
v -4 1 -1
v -4 1 -2
v -4 1 -3
v -4 2 3
v -4 2 2
v -4 2 1
v -4 2 -0
v -4 2 -1
v -4 2 -2
v -4 3 4
v -4 3 3
v -4 3 -0
v -4 3 -1
v -4 3 -2
v -4 3 -3
v -4 3 -4
v -4 4 4
v -4 4 3
v -4 4 -1
v -4 4 -2
v -4 5 4
v -4 5 -4
v -4 6 4
v -4 6 -4
v -3 0 -0
v -3 0 -1
v -3 0 -2
v -3 0 -3
v -3 1 2
v -3 1 1
v -3 1 -0
v -3 1 -1
v -3 1 -2
v -3 1 -3
v -3 1 -4
v -3 2 3
v -3 2 2
v -3 2 1
v -3 2 -0
v -3 2 -1
v -3 2 -2
v -3 2 -3
v -3 2 -4
v -3 3 4
v -3 3 3
v -3 3 -0
v -3 3 -1
v -3 3 -2
v -3 4 4
v -3 4 3
v -3 4 -1
v -3 4 -2
v -2 0 2
v -2 0 1
v -2 0 -1
v -2 0 -2
v -2 1 2
v -2 1 1
v -2 1 -1
v -2 1 -2
v -1 2 -3
v -1 2 -4
v -1 3 -3
v -1 3 -4
v 0 0 4
v 0 0 3
v 0 0 -2
v 0 0 -4
v 0 1 4
v 0 1 3
v 0 1 -2
v 0 1 -3
v 0 2 4
v 0 2 3
v 0 2 -3
v 0 2 -4
v 0 3 4
v 0 3 3
v 1 1 3
v 1 1 2
v 1 1 -0
v 1 1 -2
v 1 2 3
v 1 2 2
v 1 2 -0
v 1 2 -2
v 2 1 4
v 2 1 3
v 2 1 1
v 2 1 -0
v 2 2 -2
v 2 2 -3
v 2 3 4
v 2 3 3
v 2 3 1
v 2 3 -0
v 2 3 -2
v 2 3 -3
v 3 0 2
v 3 0 1
v 3 1 2
v 3 1 1
v 3 1 -2
v 3 1 -3
v 3 2 -2
v 3 2 -3
v -3 0 3
v -3 0 1
v -3 1 4
v -3 1 3
v -3 1 1
v -3 1 -0
v -3 1 -1
v -3 2 4
v -3 2 3
v -3 2 -0
v -3 2 -1
v -2 0 1
v -2 0 -1
v -2 0 -2
v -2 0 -3
v -2 1 3
v -2 1 2
v -2 1 -0
v -2 1 -1
v -2 1 -2
v -2 1 -3
v -2 1 -4
v -2 2 4
v -2 2 3
v -2 2 2
v -2 2 -0
v -2 2 -3
v -2 2 -4
v -2 3 4
v -2 3 3
v -2 3 1
v -2 3 -0
v 0 0 2
v 0 0 1
v 0 0 -1
v 0 0 -2
v 0 1 2
v 0 1 1
v 0 2 -1
v 0 2 -2
v 0 2 -3
v 0 2 -4
v 0 3 -3
v 0 3 -4
v 1 0 4
v 1 0 3
v 1 0 -2
v 1 0 -4
v 1 1 4
v 1 1 3
v 1 1 -2
v 1 2 4
v 1 2 3
v 1 2 -3
v 1 2 -4
v 1 3 4
v 1 3 3
v 1 3 -2
v 1 3 -3
v 3 1 4
v 3 1 2
v 3 1 1
v 3 1 -0
v 3 1 -1
v 3 1 -2
v 3 2 3
v 3 2 -0
v 3 2 -2
v 3 2 -3
v 3 3 4
v 3 3 3
v 3 3 -1
v 3 3 -3
v 4 0 2
v 4 0 1
v 4 1 2
v 4 1 1
v 4 1 -0
v 4 1 -1
v 4 1 -2
v 4 1 -3
v 4 2 3
v 4 2 -0
v 4 2 -2
v 4 2 -3
v 4 3 4
v 4 3 3
v 4 3 -1
v 4 3 -4
v 4 5 4
v 4 5 -4
v 4 6 4
v 4 6 -4
v -4 1 4
v -4 3 4
v -4 4 4
v -4 5 4
v -4 6 4
v -3 1 4
v -3 2 4
v -3 3 4
v -3 4 4
v -2 2 4
v -2 3 4
v 0 0 4
v 0 1 4
v 0 2 4
v 0 3 4
v 1 0 4
v 1 1 4
v 1 2 4
v 1 3 4
v 2 1 4
v 2 3 4
v 3 1 4
v 3 3 4
v 4 3 4
v 4 5 4
v 4 6 4
v -4 0 3
v -4 1 3
v -4 3 3
v -4 4 3
v -3 0 3
v -3 1 3
v -3 2 3
v -3 3 3
v -3 4 3
v -2 1 3
v -2 2 3
v -2 3 3
v 0 2 3
v 0 3 3
v 1 1 3
v 1 2 3
v 1 3 3
v 2 1 3
v 2 3 3
v 3 2 3
v 3 3 3
v 4 2 3
v 4 3 3
v -2 0 2
v -2 1 2
v -2 2 2
v 0 0 2
v 0 1 2
v 1 1 2
v 1 2 2
v 3 0 2
v 3 1 2
v 4 0 2
v 4 1 2
v -4 1 1
v -4 2 1
v -3 0 1
v -3 1 1
v -3 2 1
v -2 0 1
v -2 1 1
v -4 2 -0
v -4 3 -0
v -3 2 -0
v -3 3 -0
v -2 2 -0
v -2 3 -0
v 1 1 -0
v 1 2 -0
v 2 1 -0
v 2 3 -0
v 3 1 -0
v 3 2 -0
v 4 1 -0
v 4 2 -0
v -3 1 -1
v -3 2 -1
v -2 0 -1
v -2 1 -1
v 0 0 -1
v 0 2 -1
v -4 1 -2
v -4 2 -2
v -4 3 -2
v -4 4 -2
v -3 0 -2
v -3 1 -2
v -3 2 -2
v -3 3 -2
v -3 4 -2
v -2 0 -2
v -2 1 -2
v 0 0 -2
v 0 2 -2
v 1 0 -2
v 1 1 -2
v 1 2 -2
v 3 1 -2
v 3 2 -2
v 4 1 -2
v 4 2 -2
v -4 2 3
v -4 3 3
v -3 2 3
v -3 3 3
v 0 0 3
v 0 1 3
v 1 0 3
v 1 1 3
v -4 1 2
v -4 2 2
v -3 1 2
v -3 2 2
v -2 0 1
v -2 3 1
v 0 0 1
v 0 1 1
v 2 1 1
v 2 3 1
v 3 0 1
v 3 1 1
v 4 0 1
v 4 1 1
v -4 0 -0
v -4 1 -0
v -3 0 -0
v -3 1 -0
v -3 2 -0
v -2 1 -0
v -2 2 -0
v -4 1 -1
v -4 2 -1
v -4 3 -1
v -4 4 -1
v -3 0 -1
v -3 1 -1
v -3 2 -1
v -3 3 -1
v -3 4 -1
v -2 0 -1
v -2 1 -1
v 3 1 -1
v 3 3 -1
v 4 1 -1
v 4 3 -1
v -2 0 -2
v -2 1 -2
v 0 0 -2
v 0 1 -2
v 1 1 -2
v 1 3 -2
v 2 2 -2
v 2 3 -2
v 3 1 -2
v 3 2 -2
v -4 1 -3
v -4 3 -3
v -3 0 -3
v -3 1 -3
v -3 2 -3
v -2 0 -3
v -2 1 -3
v -2 2 -3
v -1 2 -3
v -1 3 -3
v 0 1 -3
v 0 2 -3
v 0 3 -3
v 1 2 -3
v 1 3 -3
v 2 2 -3
v 2 3 -3
v 3 1 -3
v 3 2 -3
v 3 3 -3
v 4 1 -3
v 4 2 -3
v -4 3 -4
v -4 5 -4
v -4 6 -4
v -3 1 -4
v -3 2 -4
v -2 1 -4
v -2 2 -4
v -1 2 -4
v -1 3 -4
v 0 0 -4
v 0 2 -4
v 0 3 -4
v 1 0 -4
v 1 2 -4
v 4 3 -4
v 4 5 -4
v 4 6 -4
v 0 0 4
v 1 0 4
v -4 0 3
v -3 0 3
v 0 0 3
v 1 0 3
v -2 0 2
v 0 0 2
v 3 0 2
v 4 0 2
v -3 0 1
v -2 0 1
v 0 0 1
v 3 0 1
v 4 0 1
v -4 0 -0
v -3 0 -0
v -3 0 -1
v -2 0 -1
v 0 0 -1
v -3 0 -2
v -2 0 -2
v 0 0 -2
v 1 0 -2
v -3 0 -3
v -2 0 -3
v 0 0 -4
v 1 0 -4
v -4 1 4
v -3 1 4
v 2 1 4
v 3 1 4
v -4 1 3
v -3 1 3
v -2 1 3
v 1 1 3
v 2 1 3
v -2 1 2
v 0 1 2
v 1 1 2
v 3 1 2
v -3 1 1
v -2 1 1
v 0 1 1
v 2 1 1
v 3 1 1
v -4 1 -0
v -3 1 -0
v 1 1 -0
v 2 1 -0
v 3 1 -0
v 4 1 -0
v -4 1 -1
v -3 1 -1
v -2 1 -1
v 3 1 -1
v 4 1 -1
v -4 1 -2
v -3 1 -2
v -2 1 -2
v 0 1 -2
v 1 1 -2
v 3 1 -2
v 4 1 -2
v -4 1 -3
v -3 1 -3
v -2 1 -3
v 0 1 -3
v 3 1 -3
v 4 1 -3
v -3 1 -4
v -2 1 -4
v -3 2 4
v -2 2 4
v 0 2 4
v 1 2 4
v -3 2 3
v -2 2 3
v 0 2 3
v 1 2 3
v 3 2 3
v 4 2 3
v -2 2 2
v 1 2 2
v -3 2 -0
v -2 2 -0
v 1 2 -0
v 3 2 -0
v 4 2 -0
v -4 2 -1
v -3 2 -1
v 0 2 -1
v -4 2 -2
v -3 2 -2
v 0 2 -2
v 1 2 -2
v 2 2 -2
v 3 2 -2
v -1 2 -3
v 0 2 -3
v 2 2 -3
v 3 2 -3
v -1 2 -4
v 0 2 -4
v -2 3 4
v 0 3 4
v 1 3 4
v 2 3 4
v 3 3 4
v 4 3 4
v -4 3 3
v -3 3 3
v -2 3 3
v 0 3 3
v 1 3 3
v 2 3 3
v 3 3 3
v 4 3 3
v -2 3 1
v 2 3 1
v -4 3 -0
v -3 3 -0
v -2 3 -0
v 2 3 -0
v 3 3 -1
v 4 3 -1
v 1 3 -2
v 2 3 -2
v -4 3 -3
v -1 3 -3
v 0 3 -3
v 1 3 -3
v 2 3 -3
v 3 3 -3
v -4 3 -4
v -1 3 -4
v 0 3 -4
v 4 3 -4
v -4 4 4
v -3 4 4
v -4 4 3
v -3 4 3
v -4 4 -1
v -3 4 -1
v -4 4 -2
v -3 4 -2
v 0 1 4
v 1 1 4
v 0 1 3
v 1 1 3
v -4 1 2
v -3 1 2
v 3 1 2
v 4 1 2
v -4 1 1
v -3 1 1
v 3 1 1
v 4 1 1
v -3 1 -0
v -2 1 -0
v -3 1 -1
v -2 1 -1
v -4 2 3
v -3 2 3
v -4 2 2
v -3 2 2
v -4 2 1
v -3 2 1
v -4 2 -0
v -3 2 -0
v 3 2 -2
v 4 2 -2
v -3 2 -3
v -2 2 -3
v 0 2 -3
v 1 2 -3
v 3 2 -3
v 4 2 -3
v -3 2 -4
v -2 2 -4
v 0 2 -4
v 1 2 -4
v -4 3 4
v -3 3 4
v -4 3 3
v -3 3 3
v -4 3 -1
v -3 3 -1
v -4 3 -2
v -3 3 -2
v -4 6 4
v 4 6 4
v -2 6 2
v -1 6 2
v -2 6 1
v -1 6 1
v 1 6 -2
v 2 6 -2
v 1 6 -3
v 2 6 -3
v -4 6 -4
v 4 6 -4

# faces
f 4/2/1 2/2/1 1/2/1
f 5/2/1 2/2/1 4/2/1
f 6/2/1 2/2/1 5/2/1
f 7/2/1 2/2/1 6/2/1
f 11/2/1 4/2/1 3/2/1
f 11/2/1 5/2/1 4/2/1
f 12/2/1 5/2/1 11/2/1
f 13/2/1 8/2/1 7/2/1
f 13/2/1 7/2/1 6/2/1
f 14/2/1 8/2/1 13/2/1
f 15/2/1 8/2/1 14/2/1
f 16/2/1 10/2/1 9/2/1
f 17/2/1 11/2/1 3/2/1
f 18/2/1 11/2/1 17/2/1
f 19/2/1 15/2/1 14/2/1
f 19/2/1 16/2/1 15/2/1
f 20/2/1 16/2/1 19/2/1
f 21/2/1 10/2/1 16/2/1
f 21/2/1 16/2/1 20/2/1
f 22/2/1 10/2/1 21/2/1
f 25/2/1 20/2/1 19/2/1
f 25/2/1 19/2/1 18/2/1
f 26/2/1 20/2/1 25/2/1
f 27/2/1 23/2/1 22/2/1
f 27/2/1 22/2/1 21/2/1
f 28/2/1 26/2/1 25/2/1
f 28/2/1 27/2/1 26/2/1
f 28/2/1 25/2/1 24/2/1
f 29/2/1 23/2/1 27/2/1
f 29/2/1 27/2/1 28/2/1
f 30/1/1 29/1/1 28/1/1
f 31/1/1 29/1/1 30/1/1
f 38/2/1 33/2/1 32/2/1
f 39/2/1 33/2/1 38/2/1
f 40/2/1 35/2/1 34/2/1
f 41/2/1 35/2/1 40/2/1
f 44/2/1 37/2/1 36/2/1
f 45/2/1 37/2/1 44/2/1
f 47/2/1 40/2/1 39/2/1
f 48/2/1 40/2/1 47/2/1
f 49/2/1 42/2/1 41/2/1
f 50/2/1 42/2/1 49/2/1
f 52/2/1 46/2/1 45/2/1
f 52/2/1 44/2/1 43/2/1
f 52/2/1 45/2/1 44/2/1
f 53/2/1 46/2/1 52/2/1
f 56/2/1 52/2/1 51/2/1
f 57/2/1 52/2/1 56/2/1
f 58/2/1 55/2/1 54/2/1
f 59/2/1 55/2/1 58/2/1
f 64/2/1 61/2/1 60/2/1
f 65/2/1 61/2/1 64/2/1
f 66/2/1 63/2/1 62/2/1
f 67/2/1 63/2/1 66/2/1
f 70/2/1 69/2/1 68/2/1
f 71/2/1 69/2/1 70/2/1
f 76/2/1 73/2/1 72/2/1
f 77/2/1 73/2/1 76/2/1
f 78/2/1 75/2/1 74/2/1
f 79/2/1 75/2/1 78/2/1
f 82/2/1 75/2/1 79/2/1
f 83/2/1 75/2/1 82/2/1
f 84/2/1 81/2/1 80/2/1
f 85/2/1 81/2/1 84/2/1
f 90/2/1 87/2/1 86/2/1
f 91/2/1 87/2/1 90/2/1
f 92/2/1 89/2/1 88/2/1
f 93/2/1 89/2/1 92/2/1
f 100/2/1 95/2/1 94/2/1
f 101/2/1 95/2/1 100/2/1
f 102/2/1 97/2/1 96/2/1
f 103/2/1 97/2/1 102/2/1
f 104/2/1 99/2/1 98/2/1
f 105/2/1 99/2/1 104/2/1
f 108/2/1 107/2/1 106/2/1
f 109/2/1 107/2/1 108/2/1
f 112/2/1 111/2/1 110/2/1
f 113/2/1 111/2/1 112/2/1
f 114/2/2 115/2/2 117/2/2
f 117/2/2 115/2/2 118/2/2
f 116/2/2 117/2/2 121/2/2
f 121/2/2 117/2/2 122/2/2
f 119/2/2 120/2/2 123/2/2
f 123/2/2 120/2/2 124/2/2
f 125/2/2 126/2/2 131/2/2
f 131/2/2 126/2/2 132/2/2
f 127/2/2 128/2/2 133/2/2
f 133/2/2 128/2/2 134/2/2
f 129/2/2 130/2/2 137/2/2
f 137/2/2 130/2/2 138/2/2
f 125/2/2 131/2/2 139/2/2
f 134/2/2 135/2/2 140/2/2
f 140/2/2 135/2/2 141/2/2
f 136/2/2 137/2/2 142/2/2
f 142/2/2 137/2/2 143/2/2
f 125/2/2 139/2/2 144/2/2
f 144/2/2 139/2/2 145/2/2
f 146/2/2 147/2/2 150/2/2
f 150/2/2 147/2/2 151/2/2
f 148/2/2 149/2/2 152/2/2
f 152/2/2 149/2/2 153/2/2
f 154/2/2 155/2/2 156/2/2
f 156/2/2 155/2/2 157/2/2
f 158/2/2 159/2/2 162/2/2
f 162/2/2 159/2/2 163/2/2
f 160/2/2 161/2/2 164/2/2
f 164/2/2 161/2/2 167/2/2
f 167/2/2 161/2/2 168/2/2
f 165/2/2 166/2/2 169/2/2
f 169/2/2 166/2/2 170/2/2
f 164/2/2 167/2/2 171/2/2
f 171/2/2 167/2/2 172/2/2
f 173/2/2 174/2/2 179/2/2
f 174/2/2 175/2/2 179/2/2
f 175/2/2 176/2/2 179/2/2
f 179/2/2 176/2/2 180/2/2
f 177/2/2 178/2/2 181/2/2
f 173/2/2 179/2/2 183/2/2
f 183/2/2 179/2/2 184/2/2
f 181/2/2 182/2/2 185/2/2
f 177/2/2 181/2/2 185/2/2
f 185/2/2 182/2/2 186/2/2
f 187/2/2 188/2/2 189/2/2
f 189/2/2 188/2/2 190/2/2
f 191/2/2 192/2/2 196/2/2
f 193/2/2 194/2/2 197/2/2
f 197/2/2 194/2/2 198/2/2
f 195/2/2 196/2/2 200/2/2
f 196/2/2 192/2/2 201/2/2
f 200/2/2 196/2/2 201/2/2
f 200/2/2 201/2/2 203/2/2
f 201/2/2 202/2/2 203/2/2
f 199/2/2 200/2/2 203/2/2
f 203/2/2 202/2/2 204/2/2
f 203/1/2 204/1/2 205/1/2
f 205/1/2 204/1/2 206/1/2
f 212/2/3 208/2/3 207/2/3
f 213/2/3 208/2/3 212/2/3
f 214/2/3 208/2/3 213/2/3
f 215/2/3 210/2/3 209/2/3
f 216/2/3 214/2/3 213/2/3
f 216/2/3 215/2/3 214/2/3
f 217/2/3 215/2/3 216/2/3
f 221/2/3 215/2/3 217/2/3
f 222/2/3 219/2/3 218/2/3
f 223/2/3 219/2/3 222/2/3
f 224/2/3 221/2/3 220/2/3
f 225/2/3 215/2/3 221/2/3
f 225/2/3 221/2/3 224/2/3
f 227/2/3 215/2/3 225/2/3
f 228/2/3 227/2/3 226/2/3
f 229/2/3 215/2/3 227/2/3
f 229/2/3 227/2/3 228/2/3
f 230/2/3 215/2/3 229/2/3
f 231/1/3 211/1/3 210/1/3
f 231/2/3 215/2/3 230/2/3
f 231/2/3 210/2/3 215/2/3
f 232/1/3 211/1/3 231/1/3
f 237/2/3 234/2/3 233/2/3
f 238/2/3 234/2/3 237/2/3
f 240/2/3 236/2/3 235/2/3
f 241/2/3 236/2/3 240/2/3
f 242/2/3 239/2/3 238/2/3
f 243/2/3 239/2/3 242/2/3
f 245/2/3 244/2/3 243/2/3
f 246/2/3 244/2/3 245/2/3
f 250/2/3 248/2/3 247/2/3
f 250/2/3 249/2/3 248/2/3
f 251/2/3 249/2/3 250/2/3
f 254/2/3 253/2/3 252/2/3
f 255/2/3 253/2/3 254/2/3
f 259/2/3 257/2/3 256/2/3
f 259/2/3 258/2/3 257/2/3
f 260/2/3 258/2/3 259/2/3
f 261/2/3 258/2/3 260/2/3
f 262/2/3 258/2/3 261/2/3
f 265/2/3 264/2/3 263/2/3
f 266/2/3 264/2/3 265/2/3
f 270/2/3 268/2/3 267/2/3
f 271/2/3 268/2/3 270/2/3
f 272/2/3 270/2/3 269/2/3
f 273/2/3 270/2/3 272/2/3
f 276/2/3 275/2/3 274/2/3
f 277/2/3 275/2/3 276/2/3
f 281/2/3 279/2/3 278/2/3
f 282/2/3 281/2/3 280/2/3
f 283/2/3 279/2/3 281/2/3
f 283/2/3 281/2/3 282/2/3
f 286/2/3 285/2/3 284/2/3
f 287/2/3 285/2/3 286/2/3
f 291/2/3 289/2/3 288/2/3
f 292/2/3 291/2/3 290/2/3
f 293/2/3 289/2/3 291/2/3
f 293/2/3 291/2/3 292/2/3
f 299/2/3 295/2/3 294/2/3
f 300/2/3 295/2/3 299/2/3
f 301/2/3 297/2/3 296/2/3
f 302/2/3 297/2/3 301/2/3
f 303/2/3 299/2/3 298/2/3
f 304/2/3 299/2/3 303/2/3
f 307/2/3 306/2/3 305/2/3
f 308/2/3 306/2/3 307/2/3
f 309/2/3 306/2/3 308/2/3
f 312/2/3 311/2/3 310/2/3
f 313/2/3 311/2/3 312/2/3
f 314/2/4 315/2/4 316/2/4
f 316/2/4 315/2/4 317/2/4
f 318/2/4 319/2/4 320/2/4
f 320/2/4 319/2/4 321/2/4
f 322/2/4 323/2/4 324/2/4
f 324/2/4 323/2/4 325/2/4
f 326/2/4 327/2/4 328/2/4
f 328/2/4 327/2/4 329/2/4
f 329/2/4 327/2/4 330/2/4
f 330/2/4 327/2/4 331/2/4
f 332/2/4 333/2/4 334/2/4
f 334/2/4 333/2/4 335/2/4
f 336/2/4 337/2/4 338/2/4
f 338/2/4 337/2/4 339/2/4
f 339/2/4 340/2/4 341/2/4
f 341/2/4 340/2/4 342/2/4
f 343/2/4 344/2/4 348/2/4
f 348/2/4 344/2/4 349/2/4
f 345/2/4 346/2/4 350/2/4
f 350/2/4 346/2/4 351/2/4
f 347/2/4 348/2/4 352/2/4
f 352/2/4 348/2/4 353/2/4
f 354/2/4 355/2/4 356/2/4
f 356/2/4 355/2/4 357/2/4
f 358/2/4 359/2/4 360/2/4
f 360/2/4 359/2/4 361/2/4
f 362/2/4 363/2/4 364/2/4
f 364/2/4 363/2/4 365/2/4
f 362/2/4 364/2/4 366/2/4
f 366/2/4 364/2/4 367/2/4
f 368/2/4 369/2/4 371/2/4
f 371/2/4 369/2/4 372/2/4
f 370/2/4 371/2/4 373/2/4
f 373/2/4 371/2/4 374/2/4
f 372/2/4 369/2/4 375/2/4
f 374/2/4 375/2/4 376/2/4
f 375/2/4 369/2/4 376/2/4
f 376/2/4 369/2/4 377/2/4
f 374/2/4 376/2/4 378/2/4
f 378/2/4 376/2/4 379/2/4
f 379/2/4 380/2/4 381/2/4
f 381/2/4 380/2/4 382/2/4
f 383/2/4 384/2/4 386/2/4
f 386/2/4 384/2/4 387/2/4
f 385/2/4 386/2/4 388/2/4
f 388/2/4 386/2/4 389/2/4
f 393/2/4 394/2/4 395/2/4
f 395/2/4 394/2/4 396/2/4
f 390/2/4 391/2/4 398/2/4
f 397/2/4 398/2/4 400/2/4
f 398/2/4 391/2/4 401/2/4
f 400/2/4 398/2/4 401/2/4
f 399/2/4 400/2/4 402/2/4
f 402/2/4 400/2/4 403/2/4
f 401/2/4 391/2/4 404/2/4
f 391/1/4 392/1/4 405/1/4
f 404/2/4 391/2/4 405/2/4
f 405/1/4 392/1/4 406/1/4
f 411/2/5 408/2/5 407/2/5
f 412/2/5 408/2/5 411/2/5
f 417/2/5 410/2/5 409/2/5
f 418/2/5 414/2/5 413/2/5
f 419/2/5 414/2/5 418/2/5
f 420/2/5 416/2/5 415/2/5
f 421/2/5 416/2/5 420/2/5
f 422/2/5 417/2/5 409/2/5
f 422/2/5 418/2/5 417/2/5
f 423/2/5 418/2/5 422/2/5
f 424/2/5 418/2/5 423/2/5
f 425/2/5 418/2/5 424/2/5
f 428/2/5 426/2/5 425/2/5
f 429/2/5 426/2/5 428/2/5
f 431/2/5 428/2/5 427/2/5
f 432/2/5 428/2/5 431/2/5
f 433/2/5 430/2/5 429/2/5
f 434/2/5 430/2/5 433/2/5
f 439/2/5 436/2/5 435/2/5
f 440/2/5 436/2/5 439/2/5
f 443/2/5 438/2/5 437/2/5
f 444/2/5 441/2/5 440/2/5
f 446/2/5 443/2/5 442/2/5
f 447/2/5 438/2/5 443/2/5
f 447/2/5 443/2/5 446/2/5
f 448/2/5 444/2/5 440/2/5
f 449/2/5 444/2/5 448/2/5
f 450/2/5 446/2/5 445/2/5
f 450/2/5 447/2/5 446/2/5
f 451/2/5 447/2/5 450/2/5
f 452/2/5 447/2/5 451/2/5
f 456/2/5 452/2/5 451/2/5
f 457/2/5 452/2/5 456/2/5
f 459/2/5 454/2/5 453/2/5
f 460/2/5 454/2/5 459/2/5
f 462/2/5 457/2/5 456/2/5
f 462/2/5 456/2/5 455/2/5
f 462/2/5 458/2/5 457/2/5
f 463/2/5 458/2/5 462/2/5
f 465/2/5 461/2/5 460/2/5
f 466/2/5 461/2/5 465/2/5
f 468/2/5 462/2/5 455/2/5
f 469/2/5 462/2/5 468/2/5
f 471/2/5 465/2/5 464/2/5
f 472/2/5 465/2/5 471/2/5
f 473/2/5 467/2/5 466/2/5
f 474/2/5 467/2/5 473/2/5
f 475/2/5 470/2/5 469/2/5
f 476/2/5 470/2/5 475/2/5
f 477/2/5 473/2/5 472/2/5
f 478/2/5 473/2/5 477/2/5
f 483/2/5 480/2/5 479/2/5
f 484/2/5 480/2/5 483/2/5
f 485/2/5 482/2/5 481/2/5
f 486/2/5 482/2/5 485/2/5
f 489/2/5 485/2/5 484/2/5
f 489/2/5 486/2/5 485/2/5
f 490/2/5 486/2/5 489/2/5
f 494/2/5 488/2/5 487/2/5
f 495/2/5 488/2/5 494/2/5
f 497/2/5 493/2/5 492/2/5
f 497/2/5 492/2/5 491/2/5
f 498/2/5 493/2/5 497/2/5
f 499/2/5 497/2/5 496/2/5
f 500/2/5 497/2/5 499/2/5
f 501/2/5 493/2/5 498/2/5
f 502/2/5 493/2/5 501/2/5
f 507/2/5 504/2/5 503/2/5
f 508/2/5 504/2/5 507/2/5
f 509/2/5 506/2/5 505/2/5
f 510/2/5 506/2/5 509/2/5
f 519/2/5 512/2/5 511/2/5
f 520/2/5 512/2/5 519/2/5
f 521/2/5 514/2/5 513/2/5
f 522/2/5 514/2/5 521/2/5
f 523/2/5 516/2/5 515/2/5
f 524/2/5 516/2/5 523/2/5
f 527/2/5 518/2/5 517/2/5
f 528/2/5 518/2/5 527/2/5
f 529/2/5 526/2/5 525/2/5
f 530/2/5 526/2/5 529/2/5
f 538/2/5 534/2/5 533/2/5
f 539/2/5 534/2/5 538/2/5
f 540/2/5 532/2/5 531/2/5
f 541/2/5 536/2/5 535/2/5
f 542/2/5 536/2/5 541/2/5
f 543/2/5 539/2/5 538/2/5
f 543/2/5 540/2/5 539/2/5
f 543/2/5 538/2/5 537/2/5
f 544/2/5 532/2/5 540/2/5
f 544/2/5 540/2/5 543/2/5
f 547/2/5 546/2/5 545/2/5
f 548/2/5 546/2/5 547/2/5
f 551/2/5 550/2/5 549/2/5
f 552/2/5 550/2/5 551/2/5
f 553/2/6 554/2/6 555/2/6
f 555/2/6 554/2/6 556/2/6
f 557/2/6 558/2/6 561/2/6
f 561/2/6 558/2/6 562/2/6
f 559/2/6 560/2/6 563/2/6
f 563/2/6 560/2/6 564/2/6
f 565/2/6 566/2/6 567/2/6
f 567/2/6 566/2/6 568/2/6
f 569/2/6 570/2/6 571/2/6
f 571/2/6 570/2/6 572/2/6
f 573/2/6 574/2/6 575/2/6
f 575/2/6 574/2/6 576/2/6
f 577/2/6 578/2/6 583/2/6
f 583/2/6 578/2/6 584/2/6
f 579/2/6 580/2/6 585/2/6
f 585/2/6 580/2/6 586/2/6
f 581/2/6 582/2/6 587/2/6
f 587/2/6 582/2/6 588/2/6
f 589/2/6 590/2/6 591/2/6
f 591/2/6 590/2/6 592/2/6
f 593/2/6 594/2/6 595/2/6
f 595/2/6 594/2/6 596/2/6
f 597/1/6 598/1/6 599/1/6
f 599/1/6 598/1/6 600/1/6
f 597/1/6 599/1/6 601/1/6
f 599/2/6 600/2/6 601/2/6
f 600/1/6 598/1/6 602/1/6
f 601/2/6 600/2/6 602/2/6
f 601/1/6 602/1/6 603/1/6
f 602/1/6 598/1/6 603/1/6
f 603/1/6 598/1/6 604/1/6
f 601/1/6 603/1/6 605/1/6
f 603/2/6 604/2/6 605/2/6
f 604/1/6 598/1/6 606/1/6
f 605/2/6 604/2/6 606/2/6
f 597/1/6 601/1/6 607/1/6
f 601/1/6 605/1/6 607/1/6
f 605/1/6 606/1/6 607/1/6
f 606/1/6 598/1/6 608/1/6
f 607/1/6 606/1/6 608/1/6
