# MagicaVoxel @ ephtracy

# material
mtllib Grave_Yard_Object_3.mtl
usemtl palette

# normals
vn -1 0 0
vn 1 0 0
vn 0 0 1
vn 0 0 -1
vn 0 -1 0
vn 0 1 0

# texcoords
vt 0.978516 0.5
vt 0.982422 0.5

# verts
v -4 0 4
v -4 0 -4
v -4 2 4
v -4 2 -4
v -3 2 3
v -3 2 -3
v -3 4 3
v -3 4 -3
v -2 4 2
v -2 4 1
v -2 4 -1
v -2 4 -2
v -2 11 2
v -2 11 1
v -2 13 -1
v -2 13 -2
v -1 4 1
v -1 4 -1
v -1 11 1
v -1 12 1
v -1 12 -1
v 0 12 2
v 0 12 1
v 0 12 -0
v 0 13 2
v 0 13 -0
v 1 4 2
v 1 4 1
v 1 4 -1
v 1 4 -2
v 1 11 -1
v 1 11 -2
v 1 12 2
v 1 12 1
v -1 4 2
v -1 4 1
v -1 4 -1
v -1 4 -2
v -1 11 2
v -1 11 1
v -1 12 -1
v -1 12 -2
v 0 11 -0
v 0 11 -1
v 0 12 -0
v 0 12 -1
v 0 12 -2
v 0 13 -1
v 0 13 -2
v 1 4 1
v 1 4 -1
v 1 11 -0
v 1 11 -1
v 1 13 1
v 1 13 -0
v 2 4 2
v 2 4 1
v 2 4 -1
v 2 4 -2
v 2 11 -1
v 2 11 -2
v 2 13 2
v 2 13 1
v 3 2 3
v 3 2 -3
v 3 4 3
v 3 4 -3
v 4 0 4
v 4 0 -4
v 4 2 4
v 4 2 -4
v -4 0 4
v -4 2 4
v 4 0 4
v 4 2 4
v -3 2 3
v -3 4 3
v 3 2 3
v 3 4 3
v -2 4 2
v -2 11 2
v -1 4 2
v -1 11 2
v 0 12 2
v 0 13 2
v 1 4 2
v 1 12 2
v 2 4 2
v 2 13 2
v -1 4 1
v -1 11 1
v -1 12 1
v 0 12 1
v 1 4 1
v 1 12 1
v -2 4 -1
v -2 13 -1
v -1 4 -1
v -1 12 -1
v 0 12 -1
v 0 13 -1
v 1 4 -1
v 1 11 -1
v 2 4 -1
v 2 11 -1
v -2 4 1
v -2 11 1
v -1 4 1
v -1 11 1
v 1 4 1
v 1 13 1
v 2 4 1
v 2 13 1
v 0 11 -0
v 0 12 -0
v 0 13 -0
v 1 11 -0
v 1 13 -0
v -1 4 -1
v -1 12 -1
v 0 11 -1
v 0 12 -1
v 1 4 -1
v 1 11 -1
v -2 4 -2
v -2 13 -2
v -1 4 -2
v -1 12 -2
v 0 12 -2
v 0 13 -2
v 1 4 -2
v 1 11 -2
v 2 4 -2
v 2 11 -2
v -3 2 -3
v -3 4 -3
v 3 2 -3
v 3 4 -3
v -4 0 -4
v -4 2 -4
v 4 0 -4
v 4 2 -4
v -4 0 4
v 4 0 4
v -3 0 1
v -1 0 1
v -3 0 -1
v -1 0 -1
v 3 0 -1
v -1 0 -3
v 3 0 -3
v -4 0 -4
v 4 0 -4
v 0 12 2
v 1 12 2
v 0 12 1
v 1 12 1
v -1 12 -1
v 0 12 -1
v -1 12 -2
v 0 12 -2
v -4 2 4
v 4 2 4
v -3 2 3
v 3 2 3
v -3 2 -3
v 3 2 -3
v -4 2 -4
v 4 2 -4
v -3 4 3
v 3 4 3
v -2 4 2
v -1 4 2
v 1 4 2
v 2 4 2
v -2 4 1
v -1 4 1
v 1 4 1
v 2 4 1
v -2 4 -1
v -1 4 -1
v 1 4 -1
v 2 4 -1
v -2 4 -2
v -1 4 -2
v 1 4 -2
v 2 4 -2
v -3 4 -3
v 3 4 -3
v -2 11 2
v -1 11 2
v -2 11 1
v -1 11 1
v 0 11 -0
v 1 11 -0
v 0 11 -1
v 1 11 -1
v 2 11 -1
v 1 11 -2
v 2 11 -2
v -1 12 1
v 0 12 1
v 0 12 -0
v -1 12 -1
v 0 12 -1
v 0 13 2
v 2 13 2
v 1 13 1
v 2 13 1
v 0 13 -0
v 1 13 -0
v -2 13 -1
v 0 13 -1
v -2 13 -2
v 0 13 -2

# faces
f 3/2/1 2/2/1 1/2/1
f 4/2/1 2/2/1 3/2/1
f 7/2/1 6/2/1 5/2/1
f 8/2/1 6/2/1 7/2/1
f 13/2/1 10/2/1 9/2/1
f 14/2/1 10/2/1 13/2/1
f 15/2/1 12/2/1 11/2/1
f 16/2/1 12/2/1 15/2/1
f 19/2/1 18/2/1 17/2/1
f 20/2/1 18/2/1 19/2/1
f 21/2/1 18/2/1 20/2/1
f 25/2/1 23/2/1 22/2/1
f 25/2/1 24/2/1 23/2/1
f 26/2/1 24/2/1 25/2/1
f 31/2/1 30/2/1 29/2/1
f 32/2/1 30/2/1 31/2/1
f 33/2/1 28/2/1 27/2/1
f 34/2/1 28/2/1 33/2/1
f 35/2/2 36/2/2 39/2/2
f 39/2/2 36/2/2 40/2/2
f 37/2/2 38/2/2 41/2/2
f 41/2/2 38/2/2 42/2/2
f 43/2/2 44/2/2 45/2/2
f 45/2/2 44/2/2 46/2/2
f 46/2/2 47/2/2 48/2/2
f 48/2/2 47/2/2 49/2/2
f 50/2/2 51/2/2 52/2/2
f 52/2/2 51/2/2 53/2/2
f 50/2/2 52/2/2 54/2/2
f 54/2/2 52/2/2 55/2/2
f 58/2/2 59/2/2 60/2/2
f 60/2/2 59/2/2 61/2/2
f 56/2/2 57/2/2 62/2/2
f 62/2/2 57/2/2 63/2/2
f 64/2/2 65/2/2 66/2/2
f 66/2/2 65/2/2 67/2/2
f 68/2/2 69/2/2 70/2/2
f 70/2/2 69/2/2 71/2/2
f 74/2/3 73/2/3 72/2/3
f 75/2/3 73/2/3 74/2/3
f 78/2/3 77/2/3 76/2/3
f 79/2/3 77/2/3 78/2/3
f 82/2/3 81/2/3 80/2/3
f 83/2/3 81/2/3 82/2/3
f 87/2/3 85/2/3 84/2/3
f 88/2/3 87/2/3 86/2/3
f 89/2/3 85/2/3 87/2/3
f 89/2/3 87/2/3 88/2/3
f 93/2/3 91/2/3 90/2/3
f 93/2/3 92/2/3 91/2/3
f 94/2/3 93/2/3 90/2/3
f 95/2/3 93/2/3 94/2/3
f 98/2/3 97/2/3 96/2/3
f 99/2/3 97/2/3 98/2/3
f 100/2/3 97/2/3 99/2/3
f 101/2/3 97/2/3 100/2/3
f 104/2/3 103/2/3 102/2/3
f 105/2/3 103/2/3 104/2/3
f 106/2/4 107/2/4 108/2/4
f 108/2/4 107/2/4 109/2/4
f 110/2/4 111/2/4 112/2/4
f 112/2/4 111/2/4 113/2/4
f 114/2/4 115/2/4 117/2/4
f 115/2/4 116/2/4 117/2/4
f 117/2/4 116/2/4 118/2/4
f 119/2/4 120/2/4 121/2/4
f 121/2/4 120/2/4 122/2/4
f 119/2/4 121/2/4 123/2/4
f 123/2/4 121/2/4 124/2/4
f 125/2/4 126/2/4 127/2/4
f 127/2/4 126/2/4 128/2/4
f 128/2/4 126/2/4 129/2/4
f 129/2/4 126/2/4 130/2/4
f 131/2/4 132/2/4 133/2/4
f 133/2/4 132/2/4 134/2/4
f 135/2/4 136/2/4 137/2/4
f 137/2/4 136/2/4 138/2/4
f 139/2/4 140/2/4 141/2/4
f 141/2/4 140/2/4 142/2/4
f 145/2/5 144/2/5 143/2/5
f 146/2/5 144/2/5 145/2/5
f 147/2/5 145/2/5 143/2/5
f 147/1/5 146/1/5 145/1/5
f 148/2/5 144/2/5 146/2/5
f 148/1/5 146/1/5 147/1/5
f 149/2/5 144/2/5 148/2/5
f 150/2/5 148/2/5 147/2/5
f 150/1/5 149/1/5 148/1/5
f 151/2/5 144/2/5 149/2/5
f 151/1/5 149/1/5 150/1/5
f 152/2/5 147/2/5 143/2/5
f 152/2/5 150/2/5 147/2/5
f 152/2/5 151/2/5 150/2/5
f 153/2/5 144/2/5 151/2/5
f 153/2/5 151/2/5 152/2/5
f 156/2/5 155/2/5 154/2/5
f 157/2/5 155/2/5 156/2/5
f 160/2/5 159/2/5 158/2/5
f 161/2/5 159/2/5 160/2/5
f 162/2/6 163/2/6 164/2/6
f 164/2/6 163/2/6 165/2/6
f 162/2/6 164/2/6 166/2/6
f 165/2/6 163/2/6 167/2/6
f 162/2/6 166/2/6 168/2/6
f 166/2/6 167/2/6 168/2/6
f 167/2/6 163/2/6 169/2/6
f 168/2/6 167/2/6 169/2/6
f 170/2/6 171/2/6 172/2/6
f 172/2/6 171/2/6 173/2/6
f 173/2/6 171/2/6 174/2/6
f 174/2/6 171/2/6 175/2/6
f 170/2/6 172/2/6 176/2/6
f 173/2/6 174/2/6 177/2/6
f 177/2/6 174/2/6 178/2/6
f 175/2/6 171/2/6 179/2/6
f 170/2/6 176/2/6 180/2/6
f 176/2/6 177/2/6 180/2/6
f 180/2/6 177/2/6 181/2/6
f 178/2/6 179/2/6 182/2/6
f 179/2/6 171/2/6 183/2/6
f 182/2/6 179/2/6 183/2/6
f 170/2/6 180/2/6 184/2/6
f 181/2/6 182/2/6 185/2/6
f 185/2/6 182/2/6 186/2/6
f 183/2/6 171/2/6 187/2/6
f 185/2/6 186/2/6 188/2/6
f 186/2/6 187/2/6 188/2/6
f 170/2/6 184/2/6 188/2/6
f 184/2/6 185/2/6 188/2/6
f 187/2/6 171/2/6 189/2/6
f 188/2/6 187/2/6 189/2/6
f 190/2/6 191/2/6 192/2/6
f 192/2/6 191/2/6 193/2/6
f 194/2/6 195/2/6 196/2/6
f 196/2/6 195/2/6 197/2/6
f 197/2/6 198/2/6 199/2/6
f 199/2/6 198/2/6 200/2/6
f 201/2/6 202/2/6 203/2/6
f 201/2/6 203/2/6 204/2/6
f 204/2/6 203/2/6 205/2/6
f 206/2/6 207/2/6 208/2/6
f 208/2/6 207/2/6 209/2/6
f 206/2/6 208/2/6 210/2/6
f 210/2/6 208/2/6 211/2/6
f 212/2/6 213/2/6 214/2/6
f 214/2/6 213/2/6 215/2/6
