# MagicaVoxel @ ephtracy

# material
mtllib Center.mtl
usemtl palette

# normals
vn -1 0 0
vn 1 0 0
vn 0 0 1
vn 0 0 -1
vn 0 -1 0
vn 0 1 0

# texcoords
vt 0.751953 0.5
vt 0.978516 0.5

# verts
v -4 0 4
v -4 0 -4
v -4 1 4
v -4 1 -4
v -3 1 3
v -3 1 -3
v -3 2 3
v -3 2 -3
v -3 7 2
v -3 7 -2
v -3 8 2
v -3 8 -2
v -2 2 2
v -2 2 -2
v -2 7 3
v -2 7 2
v -2 7 -2
v -2 7 -3
v -2 8 3
v -2 8 2
v -2 8 -2
v -2 8 -3
v -2 9 1
v -2 9 -1
v -2 11 1
v -2 11 -1
v -1 8 1
v -1 8 -1
v -1 9 2
v -1 9 1
v -1 9 -1
v -1 9 -2
v -1 11 2
v -1 11 1
v -1 11 -1
v -1 11 -2
v -1 12 1
v -1 12 -1
v 1 8 1
v 1 8 -1
v 1 9 2
v 1 9 1
v 1 9 -1
v 1 9 -2
v 1 11 2
v 1 11 1
v 1 11 -1
v 1 11 -2
v 1 12 1
v 1 12 -1
v 2 2 2
v 2 2 -2
v 2 7 3
v 2 7 2
v 2 7 -2
v 2 7 -3
v 2 8 3
v 2 8 2
v 2 8 -2
v 2 8 -3
v 2 9 1
v 2 9 -1
v 2 11 1
v 2 11 -1
v 3 1 3
v 3 1 -3
v 3 2 3
v 3 2 -3
v 3 7 2
v 3 7 -2
v 3 8 2
v 3 8 -2
v 4 0 4
v 4 0 -4
v 4 1 4
v 4 1 -4
v -4 0 4
v -4 1 4
v 4 0 4
v 4 1 4
v -3 1 3
v -3 2 3
v -2 7 3
v -2 8 3
v 2 7 3
v 2 8 3
v 3 1 3
v 3 2 3
v -3 7 2
v -3 8 2
v -2 2 2
v -2 7 2
v -2 8 2
v -1 9 2
v -1 11 2
v 1 9 2
v 1 11 2
v 2 2 2
v 2 7 2
v 2 8 2
v 3 7 2
v 3 8 2
v -2 9 1
v -2 11 1
v -1 8 1
v -1 9 1
v -1 11 1
v -1 12 1
v 1 8 1
v 1 9 1
v 1 11 1
v 1 12 1
v 2 9 1
v 2 11 1
v -2 9 -1
v -2 11 -1
v -1 8 -1
v -1 9 -1
v -1 11 -1
v -1 12 -1
v 1 8 -1
v 1 9 -1
v 1 11 -1
v 1 12 -1
v 2 9 -1
v 2 11 -1
v -3 7 -2
v -3 8 -2
v -2 2 -2
v -2 7 -2
v -2 8 -2
v -1 9 -2
v -1 11 -2
v 1 9 -2
v 1 11 -2
v 2 2 -2
v 2 7 -2
v 2 8 -2
v 3 7 -2
v 3 8 -2
v -3 1 -3
v -3 2 -3
v -2 7 -3
v -2 8 -3
v 2 7 -3
v 2 8 -3
v 3 1 -3
v 3 2 -3
v -4 0 -4
v -4 1 -4
v 4 0 -4
v 4 1 -4
v -4 0 4
v 4 0 4
v -4 0 -4
v 4 0 -4
v -2 7 3
v 2 7 3
v -3 7 2
v -2 7 2
v 2 7 2
v 3 7 2
v -3 7 -2
v -2 7 -2
v 2 7 -2
v 3 7 -2
v -2 7 -3
v 2 7 -3
v -1 9 2
v 1 9 2
v -2 9 1
v -1 9 1
v 1 9 1
v 2 9 1
v -2 9 -1
v -1 9 -1
v 1 9 -1
v 2 9 -1
v -1 9 -2
v 1 9 -2
v -4 1 4
v 4 1 4
v -3 1 3
v 3 1 3
v -3 1 -3
v 3 1 -3
v -4 1 -4
v 4 1 -4
v -3 2 3
v 3 2 3
v -2 2 2
v 2 2 2
v -2 2 -2
v 2 2 -2
v -3 2 -3
v 3 2 -3
v -2 8 3
v 2 8 3
v -3 8 2
v -2 8 2
v 2 8 2
v 3 8 2
v -1 8 1
v 1 8 1
v -1 8 -1
v 1 8 -1
v -3 8 -2
v -2 8 -2
v 2 8 -2
v 3 8 -2
v -2 8 -3
v 2 8 -3
v -1 11 2
v 1 11 2
v -2 11 1
v -1 11 1
v 1 11 1
v 2 11 1
v -2 11 -1
v -1 11 -1
v 1 11 -1
v 2 11 -1
v -1 11 -2
v 1 11 -2
v -1 12 1
v 1 12 1
v -1 12 -1
v 1 12 -1

# faces
f 3/2/1 2/2/1 1/2/1
f 4/2/1 2/2/1 3/2/1
f 7/2/1 6/2/1 5/2/1
f 8/2/1 6/2/1 7/2/1
f 11/2/1 10/2/1 9/2/1
f 12/2/1 10/2/1 11/2/1
f 16/2/1 14/2/1 13/2/1
f 17/2/1 14/2/1 16/2/1
f 19/2/1 16/2/1 15/2/1
f 20/2/1 16/2/1 19/2/1
f 21/2/1 18/2/1 17/2/1
f 22/2/1 18/2/1 21/2/1
f 25/1/1 24/1/1 23/1/1
f 26/1/1 24/1/1 25/1/1
f 30/1/1 28/1/1 27/1/1
f 31/1/1 28/1/1 30/1/1
f 33/1/1 30/1/1 29/1/1
f 34/1/1 30/1/1 33/1/1
f 35/1/1 32/1/1 31/1/1
f 36/1/1 32/1/1 35/1/1
f 37/1/1 35/1/1 34/1/1
f 38/1/1 35/1/1 37/1/1
f 39/1/2 40/1/2 42/1/2
f 42/1/2 40/1/2 43/1/2
f 41/1/2 42/1/2 45/1/2
f 45/1/2 42/1/2 46/1/2
f 43/1/2 44/1/2 47/1/2
f 47/1/2 44/1/2 48/1/2
f 46/1/2 47/1/2 49/1/2
f 49/1/2 47/1/2 50/1/2
f 51/2/2 52/2/2 54/2/2
f 54/2/2 52/2/2 55/2/2
f 53/2/2 54/2/2 57/2/2
f 57/2/2 54/2/2 58/2/2
f 55/2/2 56/2/2 59/2/2
f 59/2/2 56/2/2 60/2/2
f 61/1/2 62/1/2 63/1/2
f 63/1/2 62/1/2 64/1/2
f 65/2/2 66/2/2 67/2/2
f 67/2/2 66/2/2 68/2/2
f 69/2/2 70/2/2 71/2/2
f 71/2/2 70/2/2 72/2/2
f 73/2/2 74/2/2 75/2/2
f 75/2/2 74/2/2 76/2/2
f 79/2/3 78/2/3 77/2/3
f 80/2/3 78/2/3 79/2/3
f 85/2/3 84/2/3 83/2/3
f 86/2/3 84/2/3 85/2/3
f 87/2/3 82/2/3 81/2/3
f 88/2/3 82/2/3 87/2/3
f 92/2/3 90/2/3 89/2/3
f 93/2/3 90/2/3 92/2/3
f 96/1/3 95/1/3 94/1/3
f 97/1/3 95/1/3 96/1/3
f 98/2/3 92/2/3 91/2/3
f 99/2/3 92/2/3 98/2/3
f 101/2/3 100/2/3 99/2/3
f 102/2/3 100/2/3 101/2/3
f 106/1/3 104/1/3 103/1/3
f 107/1/3 104/1/3 106/1/3
f 109/1/3 106/1/3 105/1/3
f 110/1/3 106/1/3 109/1/3
f 111/1/3 108/1/3 107/1/3
f 112/1/3 108/1/3 111/1/3
f 113/1/3 111/1/3 110/1/3
f 114/1/3 111/1/3 113/1/3
f 115/1/4 116/1/4 118/1/4
f 118/1/4 116/1/4 119/1/4
f 117/1/4 118/1/4 121/1/4
f 121/1/4 118/1/4 122/1/4
f 119/1/4 120/1/4 123/1/4
f 123/1/4 120/1/4 124/1/4
f 122/1/4 123/1/4 125/1/4
f 125/1/4 123/1/4 126/1/4
f 127/2/4 128/2/4 130/2/4
f 130/2/4 128/2/4 131/2/4
f 132/1/4 133/1/4 134/1/4
f 134/1/4 133/1/4 135/1/4
f 129/2/4 130/2/4 136/2/4
f 136/2/4 130/2/4 137/2/4
f 137/2/4 138/2/4 139/2/4
f 139/2/4 138/2/4 140/2/4
f 143/2/4 144/2/4 145/2/4
f 145/2/4 144/2/4 146/2/4
f 141/2/4 142/2/4 147/2/4
f 147/2/4 142/2/4 148/2/4
f 149/2/4 150/2/4 151/2/4
f 151/2/4 150/2/4 152/2/4
f 155/2/5 154/2/5 153/2/5
f 156/2/5 154/2/5 155/2/5
f 160/2/5 158/2/5 157/2/5
f 161/2/5 158/2/5 160/2/5
f 163/2/5 160/2/5 159/2/5
f 164/2/5 160/2/5 163/2/5
f 165/2/5 162/2/5 161/2/5
f 166/2/5 162/2/5 165/2/5
f 167/2/5 165/2/5 164/2/5
f 168/2/5 165/2/5 167/2/5
f 172/1/5 170/1/5 169/1/5
f 173/1/5 170/1/5 172/1/5
f 175/1/5 172/1/5 171/1/5
f 176/1/5 172/1/5 175/1/5
f 177/1/5 174/1/5 173/1/5
f 178/1/5 174/1/5 177/1/5
f 179/1/5 177/1/5 176/1/5
f 180/1/5 177/1/5 179/1/5
f 181/2/6 182/2/6 183/2/6
f 183/2/6 182/2/6 184/2/6
f 181/2/6 183/2/6 185/2/6
f 184/2/6 182/2/6 186/2/6
f 181/2/6 185/2/6 187/2/6
f 185/2/6 186/2/6 187/2/6
f 186/2/6 182/2/6 188/2/6
f 187/2/6 186/2/6 188/2/6
f 189/2/6 190/2/6 191/2/6
f 191/2/6 190/2/6 192/2/6
f 189/2/6 191/2/6 193/2/6
f 192/2/6 190/2/6 194/2/6
f 189/2/6 193/2/6 195/2/6
f 193/2/6 194/2/6 195/2/6
f 194/2/6 190/2/6 196/2/6
f 195/2/6 194/2/6 196/2/6
f 197/2/6 198/2/6 200/2/6
f 200/2/6 198/2/6 201/2/6
f 199/2/6 200/2/6 203/2/6
f 201/2/6 202/2/6 203/2/6
f 200/2/6 201/2/6 203/2/6
f 203/2/6 202/2/6 204/2/6
f 199/2/6 203/2/6 205/2/6
f 204/2/6 202/2/6 206/2/6
f 199/2/6 205/2/6 207/2/6
f 205/2/6 206/2/6 207/2/6
f 207/2/6 206/2/6 208/2/6
f 206/2/6 202/2/6 209/2/6
f 208/2/6 206/2/6 209/2/6
f 209/2/6 202/2/6 210/2/6
f 208/2/6 209/2/6 211/2/6
f 211/2/6 209/2/6 212/2/6
f 213/1/6 214/1/6 216/1/6
f 216/1/6 214/1/6 217/1/6
f 215/1/6 216/1/6 219/1/6
f 219/1/6 216/1/6 220/1/6
f 217/1/6 218/1/6 221/1/6
f 221/1/6 218/1/6 222/1/6
f 220/1/6 221/1/6 223/1/6
f 223/1/6 221/1/6 224/1/6
f 225/1/6 226/1/6 227/1/6
f 227/1/6 226/1/6 228/1/6
