# MagicaVoxel @ ephtracy

# material
mtllib Knight.mtl
usemtl palette

# normals
vn -1 0 0
vn 1 0 0
vn 0 0 1
vn 0 0 -1
vn 0 -1 0
vn 0 1 0

# texcoords
vt 0.205078 0.5
vt 0.208984 0.5
vt 0.373047 0.5
vt 0.548828 0.5
vt 0.970703 0.5
vt 0.978516 0.5
vt 0.982422 0.5

# verts
v -8.5 5 6
v -8.5 5 2
v -8.5 8 6
v -8.5 8 2
v -8.5 9 4
v -8.5 9 -3
v -8.5 13 4
v -8.5 13 -3
v -7.5 5 7
v -7.5 5 6
v -7.5 7 7
v -7.5 7 6
v -7.5 7 2
v -7.5 7 -0
v -7.5 8 2
v -7.5 8 1
v -7.5 9 1
v -7.5 9 -0
v -7.5 16 7
v -7.5 16 6
v -7.5 17 7
v -7.5 17 6
v -6.5 0 7
v -6.5 0 6
v -6.5 5 7
v -6.5 5 6
v -6.5 7 7
v -6.5 7 6
v -6.5 8 6
v -6.5 16 7
v -6.5 16 6
v -6.5 17 7
v -6.5 17 6
v -6.5 19 7
v -6.5 19 6
v -4.5 2 4
v -4.5 2 2
v -4.5 2 -2
v -4.5 2 -4
v -4.5 4 4
v -4.5 4 2
v -4.5 4 -2
v -4.5 5 4
v -4.5 5 2
v -4.5 5 -2
v -4.5 8 5
v -4.5 8 4
v -4.5 9 4
v -4.5 9 2
v -4.5 9 -2
v -4.5 9 -3
v -4.5 13 5
v -4.5 13 4
v -4.5 13 -3
v -4.5 13 -4
v -4.5 14 4
v -4.5 14 2
v -4.5 17 4
v -4.5 17 2
v -3.5 0 3
v -3.5 0 -1
v -3.5 1 3
v -3.5 1 1
v -3.5 2 1
v -3.5 2 -1
v -3.5 13 4
v -3.5 13 -3
v -3.5 14 4
v -3.5 14 2
v -3.5 17 4
v -3.5 17 2
v -3.5 18 4
v -3.5 18 -3
v -1.5 17 -3
v -1.5 17 -5
v -1.5 18 -1
v -1.5 18 -3
v -1.5 19 -1
v -1.5 19 -2
v -1.5 20 -2
v -1.5 20 -5
v -0.5 16 -4
v -0.5 16 -6
v -0.5 17 -4
v -0.5 17 -5
v -0.5 19 -5
v -0.5 19 -6
v 1.5 0 3
v 1.5 0 -1
v 1.5 1 3
v 1.5 1 1
v 1.5 1 -1
v 5.5 4 2
v 5.5 4 -1
v 5.5 8 2
v 5.5 8 1
v 5.5 8 -0
v 5.5 8 -1
v 5.5 9 1
v 5.5 9 -0
v -5.5 0 7
v -5.5 0 6
v -5.5 5 6
v -5.5 5 2
v -5.5 7 2
v -5.5 7 -0
v -5.5 8 6
v -5.5 8 1
v -5.5 9 1
v -5.5 9 -0
v -5.5 16 7
v -5.5 16 6
v -5.5 17 7
v -5.5 17 6
v -5.5 19 7
v -5.5 19 6
v -4.5 16 7
v -4.5 16 6
v -4.5 17 7
v -4.5 17 6
v -1.5 0 3
v -1.5 0 -1
v -1.5 1 3
v -1.5 1 1
v -1.5 1 -1
v 0.5 16 -4
v 0.5 16 -6
v 0.5 17 -4
v 0.5 17 -5
v 0.5 19 -5
v 0.5 19 -6
v 1.5 17 -3
v 1.5 17 -5
v 1.5 18 -1
v 1.5 18 -3
v 1.5 19 -1
v 1.5 19 -2
v 1.5 20 -2
v 1.5 20 -5
v 3.5 0 3
v 3.5 0 -1
v 3.5 1 3
v 3.5 1 1
v 3.5 2 1
v 3.5 2 -1
v 3.5 13 4
v 3.5 13 -3
v 3.5 14 4
v 3.5 14 2
v 3.5 17 4
v 3.5 17 2
v 3.5 18 4
v 3.5 18 -3
v 4.5 2 4
v 4.5 2 2
v 4.5 2 -2
v 4.5 2 -4
v 4.5 4 4
v 4.5 4 2
v 4.5 4 -2
v 4.5 5 4
v 4.5 5 2
v 4.5 5 -2
v 4.5 8 5
v 4.5 8 4
v 4.5 9 4
v 4.5 9 2
v 4.5 9 -2
v 4.5 9 -3
v 4.5 13 5
v 4.5 13 4
v 4.5 13 -3
v 4.5 13 -4
v 4.5 14 4
v 4.5 14 2
v 4.5 17 4
v 4.5 17 2
v 7.5 4 2
v 7.5 4 -1
v 7.5 8 2
v 7.5 8 1
v 7.5 8 -0
v 7.5 8 -1
v 7.5 9 1
v 7.5 9 -0
v 8.5 9 4
v 8.5 9 -3
v 8.5 13 4
v 8.5 13 -3
v -7.5 5 7
v -7.5 7 7
v -7.5 16 7
v -7.5 17 7
v -6.5 0 7
v -6.5 5 7
v -6.5 7 7
v -6.5 16 7
v -6.5 17 7
v -6.5 19 7
v -5.5 0 7
v -5.5 16 7
v -5.5 17 7
v -5.5 19 7
v -4.5 16 7
v -4.5 17 7
v -8.5 5 6
v -8.5 8 6
v -7.5 5 6
v -7.5 7 6
v -6.5 7 6
v -6.5 8 6
v -4.5 8 5
v -4.5 13 5
v 4.5 8 5
v 4.5 13 5
v -8.5 9 4
v -8.5 13 4
v -4.5 2 4
v -4.5 4 4
v -4.5 5 4
v -4.5 8 4
v -4.5 9 4
v -4.5 13 4
v -4.5 14 4
v -4.5 17 4
v -3.5 13 4
v -3.5 14 4
v -3.5 17 4
v -3.5 18 4
v -2.5 14 4
v -2.5 17 4
v -1.5 3 4
v -1.5 4 4
v -1.5 5 4
v -1.5 6 4
v -1.5 14 4
v -1.5 17 4
v -0.5 4 4
v -0.5 5 4
v -0.5 14 4
v -0.5 17 4
v 0.5 4 4
v 0.5 5 4
v 0.5 14 4
v 0.5 17 4
v 1.5 3 4
v 1.5 4 4
v 1.5 5 4
v 1.5 6 4
v 1.5 14 4
v 1.5 17 4
v 2.5 14 4
v 2.5 17 4
v 3.5 13 4
v 3.5 14 4
v 3.5 17 4
v 3.5 18 4
v 4.5 2 4
v 4.5 4 4
v 4.5 5 4
v 4.5 8 4
v 4.5 9 4
v 4.5 13 4
v 4.5 14 4
v 4.5 17 4
v 8.5 9 4
v 8.5 13 4
v -3.5 0 3
v -3.5 1 3
v -1.5 0 3
v -1.5 1 3
v 1.5 0 3
v 1.5 1 3
v 3.5 0 3
v 3.5 1 3
v 5.5 4 2
v 5.5 8 2
v 7.5 4 2
v 7.5 8 2
v -7.5 8 1
v -7.5 9 1
v -5.5 8 1
v -5.5 9 1
v -3.5 1 1
v -3.5 2 1
v -1.5 1 1
v 1.5 1 1
v 3.5 1 1
v 3.5 2 1
v 5.5 8 1
v 5.5 9 1
v 7.5 8 1
v 7.5 9 1
v -1.5 18 -1
v -1.5 19 -1
v 1.5 18 -1
v 1.5 19 -1
v -1.5 19 -2
v -1.5 20 -2
v 1.5 19 -2
v 1.5 20 -2
v -0.5 16 -4
v -0.5 17 -4
v 0.5 16 -4
v 0.5 17 -4
v -7.5 16 6
v -7.5 17 6
v -6.5 0 6
v -6.5 5 6
v -6.5 8 6
v -6.5 16 6
v -6.5 17 6
v -6.5 19 6
v -5.5 0 6
v -5.5 5 6
v -5.5 8 6
v -5.5 16 6
v -5.5 17 6
v -5.5 19 6
v -4.5 16 6
v -4.5 17 6
v -8.5 5 2
v -8.5 8 2
v -7.5 7 2
v -7.5 8 2
v -5.5 5 2
v -5.5 7 2
v -4.5 14 2
v -4.5 17 2
v -3.5 14 2
v -3.5 17 2
v 3.5 14 2
v 3.5 17 2
v 4.5 14 2
v 4.5 17 2
v -7.5 7 -0
v -7.5 9 -0
v -5.5 7 -0
v -5.5 9 -0
v 5.5 8 -0
v 5.5 9 -0
v 7.5 8 -0
v 7.5 9 -0
v -3.5 0 -1
v -3.5 2 -1
v -1.5 0 -1
v -1.5 1 -1
v 1.5 0 -1
v 1.5 1 -1
v 3.5 0 -1
v 3.5 2 -1
v 5.5 4 -1
v 5.5 8 -1
v 7.5 4 -1
v 7.5 8 -1
v -8.5 9 -3
v -8.5 13 -3
v -4.5 9 -3
v -4.5 13 -3
v -3.5 13 -3
v -3.5 18 -3
v -1.5 17 -3
v -1.5 18 -3
v 1.5 17 -3
v 1.5 18 -3
v 3.5 13 -3
v 3.5 18 -3
v 4.5 9 -3
v 4.5 13 -3
v 8.5 9 -3
v 8.5 13 -3
v -4.5 2 -4
v -4.5 13 -4
v 4.5 2 -4
v 4.5 13 -4
v -1.5 17 -5
v -1.5 20 -5
v -0.5 17 -5
v -0.5 19 -5
v 0.5 17 -5
v 0.5 19 -5
v 1.5 17 -5
v 1.5 20 -5
v -0.5 16 -6
v -0.5 19 -6
v 0.5 16 -6
v 0.5 19 -6
v -6.5 0 7
v -5.5 0 7
v -6.5 0 6
v -5.5 0 6
v -3.5 0 3
v -1.5 0 3
v 1.5 0 3
v 3.5 0 3
v -3.5 0 -1
v -1.5 0 -1
v 1.5 0 -1
v 3.5 0 -1
v -1.5 1 1
v 1.5 1 1
v -1.5 1 -1
v 1.5 1 -1
v -4.5 2 4
v 4.5 2 4
v -3.5 2 3
v 3.5 2 3
v -4.5 2 2
v -3.5 2 2
v 3.5 2 2
v 4.5 2 2
v -3.5 2 1
v 3.5 2 1
v -3.5 2 -1
v 3.5 2 -1
v -4.5 2 -2
v -3.5 2 -2
v 3.5 2 -2
v 4.5 2 -2
v -3.5 2 -3
v 3.5 2 -3
v -4.5 2 -4
v 4.5 2 -4
v 5.5 4 2
v 7.5 4 2
v 5.5 4 -1
v 7.5 4 -1
v -7.5 5 7
v -6.5 5 7
v -8.5 5 6
v -7.5 5 6
v -6.5 5 6
v -5.5 5 6
v -8.5 5 2
v -5.5 5 2
v -7.5 7 2
v -5.5 7 2
v -7.5 7 -0
v -5.5 7 -0
v -4.5 8 5
v 4.5 8 5
v -4.5 8 4
v 4.5 8 4
v -8.5 9 4
v -4.5 9 4
v 4.5 9 4
v 8.5 9 4
v -4.5 9 2
v 4.5 9 2
v -7.5 9 1
v -5.5 9 1
v 5.5 9 1
v 7.5 9 1
v -7.5 9 -0
v -5.5 9 -0
v 5.5 9 -0
v 7.5 9 -0
v -4.5 9 -2
v 4.5 9 -2
v -8.5 9 -3
v -4.5 9 -3
v 4.5 9 -3
v 8.5 9 -3
v -4.5 14 4
v -3.5 14 4
v 3.5 14 4
v 4.5 14 4
v -4.5 14 2
v -3.5 14 2
v 3.5 14 2
v 4.5 14 2
v -7.5 16 7
v -6.5 16 7
v -5.5 16 7
v -4.5 16 7
v -7.5 16 6
v -6.5 16 6
v -5.5 16 6
v -4.5 16 6
v -0.5 16 -4
v 0.5 16 -4
v -0.5 16 -6
v 0.5 16 -6
v -1.5 17 -3
v 1.5 17 -3
v -0.5 17 -4
v 0.5 17 -4
v -1.5 17 -5
v -0.5 17 -5
v 0.5 17 -5
v 1.5 17 -5
v -3.5 1 3
v -1.5 1 3
v 1.5 1 3
v 3.5 1 3
v -3.5 1 1
v -1.5 1 1
v 1.5 1 1
v 3.5 1 1
v -7.5 7 7
v -6.5 7 7
v -7.5 7 6
v -6.5 7 6
v -8.5 8 6
v -6.5 8 6
v -5.5 8 6
v -8.5 8 2
v -7.5 8 2
v 5.5 8 2
v 7.5 8 2
v -7.5 8 1
v -5.5 8 1
v 5.5 8 1
v 7.5 8 1
v 5.5 8 -0
v 7.5 8 -0
v 5.5 8 -1
v 7.5 8 -1
v -4.5 13 5
v 4.5 13 5
v -8.5 13 4
v -4.5 13 4
v -3.5 13 4
v 3.5 13 4
v 4.5 13 4
v 8.5 13 4
v -8.5 13 -3
v -4.5 13 -3
v -3.5 13 -3
v 3.5 13 -3
v 4.5 13 -3
v 8.5 13 -3
v -4.5 13 -4
v 4.5 13 -4
v -7.5 17 7
v -6.5 17 7
v -5.5 17 7
v -4.5 17 7
v -7.5 17 6
v -6.5 17 6
v -5.5 17 6
v -4.5 17 6
v -4.5 17 4
v -3.5 17 4
v 3.5 17 4
v 4.5 17 4
v -4.5 17 2
v -3.5 17 2
v 3.5 17 2
v 4.5 17 2
v -3.5 18 4
v 3.5 18 4
v -1.5 18 -1
v 1.5 18 -1
v -3.5 18 -3
v -1.5 18 -3
v 1.5 18 -3
v 3.5 18 -3
v -6.5 19 7
v -5.5 19 7
v -6.5 19 6
v -5.5 19 6
v -1.5 19 -1
v 1.5 19 -1
v -1.5 19 -2
v 1.5 19 -2
v -0.5 19 -5
v 0.5 19 -5
v -0.5 19 -6
v 0.5 19 -6
v -1.5 20 -2
v 1.5 20 -2
v -1.5 20 -5
v 1.5 20 -5

# faces
f 3/6/1 2/6/1 1/6/1
f 4/6/1 2/6/1 3/6/1
f 7/6/1 6/6/1 5/6/1
f 8/6/1 6/6/1 7/6/1
f 11/6/1 10/6/1 9/6/1
f 12/6/1 10/6/1 11/6/1
f 15/6/1 14/6/1 13/6/1
f 16/6/1 14/6/1 15/6/1
f 17/6/1 14/6/1 16/6/1
f 18/6/1 14/6/1 17/6/1
f 21/5/1 20/5/1 19/5/1
f 22/5/1 20/5/1 21/5/1
f 25/7/1 24/7/1 23/7/1
f 26/7/1 24/7/1 25/7/1
f 29/7/1 28/7/1 27/7/1
f 30/7/1 29/7/1 27/7/1
f 31/7/1 29/7/1 30/7/1
f 34/5/1 33/5/1 32/5/1
f 35/5/1 33/5/1 34/5/1
f 40/4/1 37/4/1 36/4/1
f 41/6/1 38/6/1 37/6/1
f 41/4/1 37/4/1 40/4/1
f 42/4/1 39/4/1 38/4/1
f 42/6/1 38/6/1 41/6/1
f 43/3/1 41/3/1 40/3/1
f 43/3/1 42/3/1 41/3/1
f 44/3/1 42/3/1 43/3/1
f 45/4/1 39/4/1 42/4/1
f 45/3/1 42/3/1 44/3/1
f 47/4/1 44/4/1 43/4/1
f 48/4/1 44/4/1 47/4/1
f 48/4/1 47/4/1 46/4/1
f 49/6/1 45/6/1 44/6/1
f 49/4/1 44/4/1 48/4/1
f 50/4/1 39/4/1 45/4/1
f 50/6/1 45/6/1 49/6/1
f 51/4/1 39/4/1 50/4/1
f 52/4/1 48/4/1 46/4/1
f 53/4/1 48/4/1 52/4/1
f 54/4/1 39/4/1 51/4/1
f 55/4/1 39/4/1 54/4/1
f 58/6/1 57/6/1 56/6/1
f 59/6/1 57/6/1 58/6/1
f 62/6/1 61/6/1 60/6/1
f 63/6/1 61/6/1 62/6/1
f 64/6/1 61/6/1 63/6/1
f 65/6/1 61/6/1 64/6/1
f 68/6/1 67/6/1 66/6/1
f 69/6/1 67/6/1 68/6/1
f 71/6/1 67/6/1 69/6/1
f 72/6/1 71/6/1 70/6/1
f 73/6/1 67/6/1 71/6/1
f 73/6/1 71/6/1 72/6/1
f 77/2/1 75/2/1 74/2/1
f 78/2/1 77/2/1 76/2/1
f 79/2/1 77/2/1 78/2/1
f 80/2/1 77/2/1 79/2/1
f 81/2/1 75/2/1 77/2/1
f 81/2/1 77/2/1 80/2/1
f 84/2/1 83/2/1 82/2/1
f 85/2/1 83/2/1 84/2/1
f 86/2/1 83/2/1 85/2/1
f 87/2/1 83/2/1 86/2/1
f 90/6/1 89/6/1 88/6/1
f 91/6/1 89/6/1 90/6/1
f 92/6/1 89/6/1 91/6/1
f 95/6/1 94/6/1 93/6/1
f 96/6/1 94/6/1 95/6/1
f 97/6/1 94/6/1 96/6/1
f 98/6/1 94/6/1 97/6/1
f 99/6/1 97/6/1 96/6/1
f 100/6/1 97/6/1 99/6/1
f 101/7/2 102/7/2 103/7/2
f 103/6/2 104/6/2 105/6/2
f 101/7/2 103/7/2 107/7/2
f 105/6/2 106/6/2 107/6/2
f 103/6/2 105/6/2 107/6/2
f 107/6/2 106/6/2 108/6/2
f 108/6/2 106/6/2 109/6/2
f 109/6/2 106/6/2 110/6/2
f 101/7/2 107/7/2 111/7/2
f 111/7/2 107/7/2 112/7/2
f 113/5/2 114/5/2 115/5/2
f 115/5/2 114/5/2 116/5/2
f 117/5/2 118/5/2 119/5/2
f 119/5/2 118/5/2 120/5/2
f 121/6/2 122/6/2 123/6/2
f 123/6/2 122/6/2 124/6/2
f 124/6/2 122/6/2 125/6/2
f 126/2/2 127/2/2 128/2/2
f 128/2/2 127/2/2 129/2/2
f 129/2/2 127/2/2 130/2/2
f 130/2/2 127/2/2 131/2/2
f 132/2/2 133/2/2 135/2/2
f 134/2/2 135/2/2 136/2/2
f 136/2/2 135/2/2 137/2/2
f 137/2/2 135/2/2 138/2/2
f 135/2/2 133/2/2 139/2/2
f 138/2/2 135/2/2 139/2/2
f 140/6/2 141/6/2 142/6/2
f 142/6/2 141/6/2 143/6/2
f 143/6/2 141/6/2 144/6/2
f 144/6/2 141/6/2 145/6/2
f 146/6/2 147/6/2 148/6/2
f 148/6/2 147/6/2 149/6/2
f 149/6/2 147/6/2 151/6/2
f 150/6/2 151/6/2 152/6/2
f 151/6/2 147/6/2 153/6/2
f 152/6/2 151/6/2 153/6/2
f 154/4/2 155/4/2 158/4/2
f 155/6/2 156/6/2 159/6/2
f 158/4/2 155/4/2 159/4/2
f 156/4/2 157/4/2 160/4/2
f 159/6/2 156/6/2 160/6/2
f 158/3/2 159/3/2 161/3/2
f 159/3/2 160/3/2 161/3/2
f 161/3/2 160/3/2 162/3/2
f 160/4/2 157/4/2 163/4/2
f 162/3/2 160/3/2 163/3/2
f 161/4/2 162/4/2 165/4/2
f 165/4/2 162/4/2 166/4/2
f 164/4/2 165/4/2 166/4/2
f 162/6/2 163/6/2 167/6/2
f 166/4/2 162/4/2 167/4/2
f 163/4/2 157/4/2 168/4/2
f 167/6/2 163/6/2 168/6/2
f 168/4/2 157/4/2 169/4/2
f 164/4/2 166/4/2 170/4/2
f 170/4/2 166/4/2 171/4/2
f 169/4/2 157/4/2 172/4/2
f 172/4/2 157/4/2 173/4/2
f 174/6/2 175/6/2 176/6/2
f 176/6/2 175/6/2 177/6/2
f 178/6/2 179/6/2 180/6/2
f 180/6/2 179/6/2 181/6/2
f 181/6/2 179/6/2 182/6/2
f 182/6/2 179/6/2 183/6/2
f 181/6/2 182/6/2 184/6/2
f 184/6/2 182/6/2 185/6/2
f 186/6/2 187/6/2 188/6/2
f 188/6/2 187/6/2 189/6/2
f 195/6/3 191/6/3 190/6/3
f 196/6/3 191/6/3 195/6/3
f 197/5/3 193/5/3 192/5/3
f 198/5/3 193/5/3 197/5/3
f 200/7/3 196/7/3 195/7/3
f 200/7/3 195/7/3 194/7/3
f 200/7/3 197/7/3 196/7/3
f 201/5/3 199/5/3 198/5/3
f 201/7/3 197/7/3 200/7/3
f 201/5/3 198/5/3 197/5/3
f 202/5/3 199/5/3 201/5/3
f 203/5/3 199/5/3 202/5/3
f 204/5/3 202/5/3 201/5/3
f 205/5/3 202/5/3 204/5/3
f 208/6/3 207/6/3 206/6/3
f 209/6/3 207/6/3 208/6/3
f 210/6/3 207/6/3 209/6/3
f 211/6/3 207/6/3 210/6/3
f 214/4/3 213/4/3 212/4/3
f 215/4/3 213/4/3 214/4/3
f 222/6/3 217/6/3 216/6/3
f 223/6/3 217/6/3 222/6/3
f 227/6/3 225/6/3 224/6/3
f 228/6/3 225/6/3 227/6/3
f 230/6/3 227/6/3 226/6/3
f 230/7/3 228/7/3 227/7/3
f 231/6/3 229/6/3 228/6/3
f 231/7/3 228/7/3 230/7/3
f 232/4/3 219/4/3 218/4/3
f 233/3/3 220/3/3 219/3/3
f 233/4/3 219/4/3 232/4/3
f 234/4/3 221/4/3 220/4/3
f 234/3/3 220/3/3 233/3/3
f 235/4/3 221/4/3 234/4/3
f 236/6/3 230/6/3 226/6/3
f 236/6/3 231/6/3 230/6/3
f 237/6/3 229/6/3 231/6/3
f 237/6/3 231/6/3 236/6/3
f 238/1/3 233/1/3 232/1/3
f 238/1/3 235/1/3 234/1/3
f 238/1/3 234/1/3 233/1/3
f 239/1/3 235/1/3 238/1/3
f 240/6/3 236/6/3 226/6/3
f 240/7/3 237/7/3 236/7/3
f 241/6/3 229/6/3 237/6/3
f 241/7/3 237/7/3 240/7/3
f 242/4/3 239/4/3 238/4/3
f 242/1/3 238/1/3 232/1/3
f 243/1/3 235/1/3 239/1/3
f 243/4/3 239/4/3 242/4/3
f 244/6/3 240/6/3 226/6/3
f 244/6/3 241/6/3 240/6/3
f 245/6/3 229/6/3 241/6/3
f 245/6/3 241/6/3 244/6/3
f 246/1/3 242/1/3 232/1/3
f 246/4/3 232/4/3 218/4/3
f 246/1/3 243/1/3 242/1/3
f 247/1/3 243/1/3 246/1/3
f 248/1/3 235/1/3 243/1/3
f 248/1/3 243/1/3 247/1/3
f 249/4/3 221/4/3 235/4/3
f 249/1/3 235/1/3 248/1/3
f 250/7/3 245/7/3 244/7/3
f 250/6/3 244/6/3 226/6/3
f 251/6/3 229/6/3 245/6/3
f 251/7/3 245/7/3 250/7/3
f 252/6/3 250/6/3 226/6/3
f 252/6/3 251/6/3 250/6/3
f 253/6/3 229/6/3 251/6/3
f 253/6/3 251/6/3 252/6/3
f 254/6/3 252/6/3 226/6/3
f 255/7/3 253/7/3 252/7/3
f 255/6/3 252/6/3 254/6/3
f 256/6/3 229/6/3 253/6/3
f 256/7/3 253/7/3 255/7/3
f 257/6/3 229/6/3 256/6/3
f 258/4/3 247/4/3 246/4/3
f 258/4/3 246/4/3 218/4/3
f 259/3/3 248/3/3 247/3/3
f 259/4/3 247/4/3 258/4/3
f 260/4/3 249/4/3 248/4/3
f 260/3/3 248/3/3 259/3/3
f 261/4/3 221/4/3 249/4/3
f 261/4/3 249/4/3 260/4/3
f 264/6/3 256/6/3 255/6/3
f 265/6/3 256/6/3 264/6/3
f 266/6/3 263/6/3 262/6/3
f 267/6/3 263/6/3 266/6/3
f 270/6/3 269/6/3 268/6/3
f 271/6/3 269/6/3 270/6/3
f 274/6/3 273/6/3 272/6/3
f 275/6/3 273/6/3 274/6/3
f 278/6/3 277/6/3 276/6/3
f 279/6/3 277/6/3 278/6/3
f 282/6/3 281/6/3 280/6/3
f 283/6/3 281/6/3 282/6/3
f 286/6/3 285/6/3 284/6/3
f 287/6/3 285/6/3 286/6/3
f 288/6/3 285/6/3 287/6/3
f 289/6/3 285/6/3 288/6/3
f 292/6/3 291/6/3 290/6/3
f 293/6/3 291/6/3 292/6/3
f 296/2/3 295/2/3 294/2/3
f 297/2/3 295/2/3 296/2/3
f 300/2/3 299/2/3 298/2/3
f 301/2/3 299/2/3 300/2/3
f 304/2/3 303/2/3 302/2/3
f 305/2/3 303/2/3 304/2/3
f 306/5/4 307/5/4 311/5/4
f 311/5/4 307/5/4 312/5/4
f 308/7/4 309/7/4 314/7/4
f 314/7/4 309/7/4 315/7/4
f 310/7/4 311/7/4 316/7/4
f 312/5/4 313/5/4 317/5/4
f 316/7/4 311/7/4 317/7/4
f 311/5/4 312/5/4 317/5/4
f 317/5/4 313/5/4 318/5/4
f 318/5/4 313/5/4 319/5/4
f 317/5/4 318/5/4 320/5/4
f 320/5/4 318/5/4 321/5/4
f 322/6/4 323/6/4 324/6/4
f 324/6/4 323/6/4 325/6/4
f 322/6/4 324/6/4 326/6/4
f 326/6/4 324/6/4 327/6/4
f 328/6/4 329/6/4 330/6/4
f 330/6/4 329/6/4 331/6/4
f 332/6/4 333/6/4 334/6/4
f 334/6/4 333/6/4 335/6/4
f 336/6/4 337/6/4 338/6/4
f 338/6/4 337/6/4 339/6/4
f 340/6/4 341/6/4 342/6/4
f 342/6/4 341/6/4 343/6/4
f 344/6/4 345/6/4 346/6/4
f 346/6/4 345/6/4 347/6/4
f 347/6/4 345/6/4 349/6/4
f 348/6/4 349/6/4 350/6/4
f 349/6/4 345/6/4 351/6/4
f 350/6/4 349/6/4 351/6/4
f 352/6/4 353/6/4 354/6/4
f 354/6/4 353/6/4 355/6/4
f 356/6/4 357/6/4 358/6/4
f 358/6/4 357/6/4 359/6/4
f 360/6/4 361/6/4 362/6/4
f 362/6/4 361/6/4 363/6/4
f 360/6/4 362/6/4 364/6/4
f 360/6/4 364/6/4 366/6/4
f 364/6/4 365/6/4 366/6/4
f 366/6/4 365/6/4 367/6/4
f 368/6/4 369/6/4 370/6/4
f 370/6/4 369/6/4 371/6/4
f 372/4/4 373/4/4 374/4/4
f 374/4/4 373/4/4 375/4/4
f 376/2/4 377/2/4 378/2/4
f 378/2/4 377/2/4 379/2/4
f 379/2/4 377/2/4 381/2/4
f 380/2/4 381/2/4 382/2/4
f 381/2/4 377/2/4 383/2/4
f 382/2/4 381/2/4 383/2/4
f 384/2/4 385/2/4 386/2/4
f 386/2/4 385/2/4 387/2/4
f 390/7/5 389/7/5 388/7/5
f 391/7/5 389/7/5 390/7/5
f 396/6/5 393/6/5 392/6/5
f 397/6/5 393/6/5 396/6/5
f 398/6/5 395/6/5 394/6/5
f 399/6/5 395/6/5 398/6/5
f 402/6/5 401/6/5 400/6/5
f 403/6/5 401/6/5 402/6/5
f 406/4/5 405/4/5 404/4/5
f 407/4/5 405/4/5 406/4/5
f 408/4/5 406/4/5 404/4/5
f 409/6/5 407/6/5 406/6/5
f 409/4/5 406/4/5 408/4/5
f 410/4/5 405/4/5 407/4/5
f 410/6/5 407/6/5 409/6/5
f 411/4/5 405/4/5 410/4/5
f 412/6/5 409/6/5 408/6/5
f 412/6/5 410/6/5 409/6/5
f 412/6/5 411/6/5 410/6/5
f 413/6/5 411/6/5 412/6/5
f 414/6/5 412/6/5 408/6/5
f 415/6/5 411/6/5 413/6/5
f 416/6/5 414/6/5 408/6/5
f 416/6/5 415/6/5 414/6/5
f 417/6/5 415/6/5 416/6/5
f 418/6/5 411/6/5 415/6/5
f 418/6/5 415/6/5 417/6/5
f 419/6/5 411/6/5 418/6/5
f 420/4/5 417/4/5 416/4/5
f 420/6/5 418/6/5 417/6/5
f 421/4/5 419/4/5 418/4/5
f 421/6/5 418/6/5 420/6/5
f 422/4/5 420/4/5 416/4/5
f 422/4/5 421/4/5 420/4/5
f 423/4/5 419/4/5 421/4/5
f 423/4/5 421/4/5 422/4/5
f 426/6/5 425/6/5 424/6/5
f 427/6/5 425/6/5 426/6/5
f 431/6/5 429/6/5 428/6/5
f 432/6/5 429/6/5 431/6/5
f 434/6/5 431/6/5 430/6/5
f 434/6/5 433/6/5 432/6/5
f 434/6/5 432/6/5 431/6/5
f 435/6/5 433/6/5 434/6/5
f 438/6/5 437/6/5 436/6/5
f 439/6/5 437/6/5 438/6/5
f 442/4/5 441/4/5 440/4/5
f 443/4/5 441/4/5 442/4/5
f 448/6/5 445/6/5 444/6/5
f 449/6/5 447/6/5 446/6/5
f 450/6/5 448/6/5 444/6/5
f 451/6/5 448/6/5 450/6/5
f 452/6/5 447/6/5 449/6/5
f 453/6/5 447/6/5 452/6/5
f 454/6/5 450/6/5 444/6/5
f 455/6/5 448/6/5 451/6/5
f 456/6/5 452/6/5 449/6/5
f 457/6/5 447/6/5 453/6/5
f 458/6/5 455/6/5 454/6/5
f 458/6/5 448/6/5 455/6/5
f 459/6/5 456/6/5 449/6/5
f 459/6/5 457/6/5 456/6/5
f 460/6/5 454/6/5 444/6/5
f 460/6/5 458/6/5 454/6/5
f 461/6/5 458/6/5 460/6/5
f 462/6/5 457/6/5 459/6/5
f 463/6/5 447/6/5 457/6/5
f 463/6/5 457/6/5 462/6/5
f 468/6/5 465/6/5 464/6/5
f 469/6/5 465/6/5 468/6/5
f 470/6/5 467/6/5 466/6/5
f 471/6/5 467/6/5 470/6/5
f 476/5/5 473/5/5 472/5/5
f 477/5/5 473/5/5 476/5/5
f 478/5/5 475/5/5 474/5/5
f 479/5/5 475/5/5 478/5/5
f 482/2/5 481/2/5 480/2/5
f 483/2/5 481/2/5 482/2/5
f 486/2/5 485/2/5 484/2/5
f 487/2/5 485/2/5 486/2/5
f 488/2/5 486/2/5 484/2/5
f 489/2/5 486/2/5 488/2/5
f 490/2/5 485/2/5 487/2/5
f 491/2/5 485/2/5 490/2/5
f 492/6/6 493/6/6 496/6/6
f 496/6/6 493/6/6 497/6/6
f 494/6/6 495/6/6 498/6/6
f 498/6/6 495/6/6 499/6/6
f 500/6/6 501/6/6 502/6/6
f 502/6/6 501/6/6 503/6/6
f 504/6/6 505/6/6 507/6/6
f 505/6/6 506/6/6 507/6/6
f 507/6/6 506/6/6 508/6/6
f 508/6/6 506/6/6 511/6/6
f 511/6/6 506/6/6 512/6/6
f 509/6/6 510/6/6 513/6/6
f 513/6/6 510/6/6 514/6/6
f 515/6/6 516/6/6 517/6/6
f 517/6/6 516/6/6 518/6/6
f 519/4/6 520/4/6 522/4/6
f 522/4/6 520/4/6 523/4/6
f 523/4/6 520/4/6 524/4/6
f 524/4/6 520/4/6 525/4/6
f 521/6/6 522/6/6 527/6/6
f 522/4/6 523/4/6 528/4/6
f 527/6/6 522/6/6 528/6/6
f 528/4/6 523/4/6 529/4/6
f 524/4/6 525/4/6 530/4/6
f 525/6/6 526/6/6 531/6/6
f 530/4/6 525/4/6 531/4/6
f 531/6/6 526/6/6 532/6/6
f 529/4/6 530/4/6 533/4/6
f 528/4/6 529/4/6 533/4/6
f 530/4/6 531/4/6 533/4/6
f 533/4/6 531/4/6 534/4/6
f 535/5/6 536/5/6 539/5/6
f 539/5/6 536/5/6 540/5/6
f 537/5/6 538/5/6 541/5/6
f 541/5/6 538/5/6 542/5/6
f 543/6/6 544/6/6 547/6/6
f 547/6/6 544/6/6 548/6/6
f 545/6/6 546/6/6 549/6/6
f 549/6/6 546/6/6 550/6/6
f 551/6/6 552/6/6 553/6/6
f 553/6/6 552/6/6 554/6/6
f 551/6/6 553/6/6 555/6/6
f 555/6/6 553/6/6 556/6/6
f 554/6/6 552/6/6 557/6/6
f 557/6/6 552/6/6 558/6/6
f 559/5/6 560/5/6 561/5/6
f 561/5/6 560/5/6 562/5/6
f 563/2/6 564/2/6 565/2/6
f 565/2/6 564/2/6 566/2/6
f 567/2/6 568/2/6 569/2/6
f 569/2/6 568/2/6 570/2/6
f 571/2/6 572/2/6 573/2/6
f 573/2/6 572/2/6 574/2/6
